<svg version="1.1" viewBox="0.0 0.0 672.0 432.0" fill="none" stroke="none" stroke-linecap="square" stroke-miterlimit="10" xmlns:xlink="http://www.w3.org/1999/xlink" xmlns="http://www.w3.org/2000/svg"><clipPath id="g2a566ab5395_0_0.0"><path d="m0 0l672.0 0l0 432.0l-672.0 0l0 -432.0z" clip-rule="nonzero"/></clipPath><g clip-path="url(#g2a566ab5395_0_0.0)"><path fill="#ffffff" d="m0 0l672.0 0l0 432.0l-672.0 0z" fill-rule="evenodd"/><path fill="#000000" fill-opacity="0.0" d="m382.67145 260.32288l-142.04723 32.44095" fill-rule="evenodd"/><path stroke="#999999" stroke-width="1.0" stroke-linejoin="round" stroke-linecap="butt" stroke-dasharray="4.0,3.0" d="m382.67145 260.32288l-142.04723 32.44095" fill-rule="evenodd"/><path fill="#000000" fill-opacity="0.0" d="m67.32568 271.13367l296.50394 -67.2126l25.763763 113.44881l-296.5039 67.212616z" fill-rule="evenodd"/><path fill="#000000" d="m169.12517 263.05664l-0.01776123 -1.27771q0.65045166 -0.45184326 1.2170715 -0.7084656q0.5631561 -0.2718506 1.2031555 -0.41693115q0.42668152 -0.096710205 0.8131714 -0.0881958q0.3864746 0.008514404 0.7057495 0.1444397q0.3192749 0.13589478 0.5443268 0.42132568q0.23683167 0.26675415 0.33024597 0.6781311q0.13496399 0.5942688 0.010192871 1.1031799q-0.12823486 0.49368286 -0.5598297 0.9920654q-0.41636658 0.49490356 -1.2205963 1.0457153l0.013839722 0.060943604q0.83392334 0.0032348633 1.3560791 0.3975525q0.53741455 0.39086914 0.696579 1.0917664q0.11764526 0.5180664 0.010177612 1.1031799q-0.10746765 0.585083 -0.44763184 1.0627441q-0.3283844 0.45895386 -0.89294434 0.79519653q-0.54930115 0.3328247 -1.3569489 0.51589966q-0.59428406 0.13470459 -1.2924652 0.16479492q-0.6863861 0.011413574 -1.1580505 -0.08996582l-0.014968872 -1.4064941l0.7314453 -0.165802q0.17579651 0.63305664 0.5954895 0.8583374q0.419693 0.22531128 1.0901794 0.07330322q0.64001465 -0.14508057 1.0196381 -0.51950073q0.39486694 -0.37789917 0.5175781 -0.9664612q0.13447571 -0.6072693 -0.021240234 -1.2929382q-0.15570068 -0.68566895 -0.67375183 -0.92071533q-0.52149963 -0.25027466 -1.4053192 -0.049926758l-0.6247711 0.14163208l-0.002670288 -0.5761719q0.7480774 -0.23364258 1.275238 -0.59347534q0.5423889 -0.36328125 0.8285217 -0.79663086q0.30137634 -0.4367981 0.36724854 -0.8522644q0.062423706 -0.4307251 -0.027542114 -0.8268738q-0.12110901 -0.5332947 -0.50686646 -0.75027466q-0.37051392 -0.22039795 -0.90385437 -0.09951782q-0.6095276 0.1381836 -0.93652344 0.53274536q-0.3304596 0.37930298 -0.4697876 1.0357361l-0.7924042 0.17962646zm13.657318 3.024292q-0.37277222 0.75738525 -0.81822205 1.1948242q-0.43019104 0.43395996 -0.99401855 0.5617676q-0.67048645 0.15197754 -1.0818634 -0.10723877q-0.41482544 -0.27444458 -0.5636139 -0.92962646q-0.08996582 -0.3961792 -0.08224487 -0.92663574l0.04496765 -3.4708252l-0.960022 0.21762085l0.003540039 -0.33724976q0.37057495 -0.13204956 0.55622864 -0.30230713q0.18565369 -0.17025757 0.2965088 -0.3876648q0.107406616 -0.23260498 0.16011047 -0.56500244q0.06448364 -0.3510437 0.11238098 -0.9867554l0.88383484 -0.2003479l0.00592041 1.6488647l2.0114746 -0.45596313l0.008178711 0.671051l-2.026703 0.45941162l-0.0524292 2.591339q-0.023757935 1.0948486 0.090423584 1.5976562q0.08998108 0.3961792 0.3025818 0.5562439q0.22784424 0.15664673 0.54785156 0.084106445q0.28952026 -0.06564331 0.55763245 -0.36672974q0.26809692 -0.30111694 0.54525757 -0.844574l0.45222473 0.29803467zm1.6102295 -5.571991l0.38095093 -0.08633423l-0.085510254 1.6695862l0.07966614 -0.0020446777q0.4074402 -0.95751953 0.89653015 -1.4849548q0.48562622 -0.5426636 1.0951691 -0.68081665q0.45715332 -0.103637695 0.7792206 -0.0965271l0.017028809 1.4861145l-0.6552429 0.14852905q-0.12184143 -0.3248291 -0.26657104 -0.46826172q-0.14474487 -0.14343262 -0.37330627 -0.09161377q-0.24382019 0.055267334 -0.5202484 0.3902893q-0.26463318 0.3163147 -0.4960785 0.84942627q-0.2348938 0.5178833 -0.31600952 0.9367981q-0.08456421 0.40368652 -0.07218933 0.88153076l0.043792725 2.873932l-1.097168 0.24868774l-0.007461548 -4.5483704q-0.01651001 -0.6371155 -0.08570862 -0.941864q-0.041519165 -0.18283081 -0.12324524 -0.260437q-0.06993103 -0.09631348 -0.217453 -0.1109314q-0.1322937 -0.018066406 -0.44052124 0.0357666l6.1035156E-5 -0.35247803l1.4642944 -0.3960266zm8.007477 -1.4306335l0.50086975 -0.54611206l0.41696167 0.0015869141l0.019241333 4.529724q-0.004928589 0.40164185 0.013046265 0.6218567q0.01449585 0.20498657 0.045639038 0.34213257q0.05882263 0.2590332 0.22364807 0.349823q0.18006897 0.087371826 0.59843445 0.02456665l0.008255005 0.318573l-1.8133698 0.41104126l0.03286743 -1.6896973l-0.07965088 0.0020446777q-0.408844 1.0219116 -0.8639984 1.5576782q-0.45515442 0.5357361 -1.0646973 0.6739197q-0.70095825 0.15890503 -1.1995697 -0.27279663q-0.5020752 -0.44696045 -0.7165985 -1.3916321q-0.13841248 -0.6094971 -0.13967896 -1.250061q-0.0047302246 -0.65579224 0.14498901 -1.26651q0.16496277 -0.61416626 0.46772766 -1.115387q0.2993164 -0.516449 0.76205444 -0.87768555q0.46273804 -0.36123657 1.0722809 -0.49942017q0.39619446 -0.08981323 0.7674408 -0.077819824q0.37124634 0.011962891 0.80410767 0.1541748zm-0.119506836 2.013733q-0.0131073 -0.26937866 -0.039398193 -0.45568848q-0.014511108 -0.20498657 -0.062942505 -0.41830444q-0.11419678 -0.50283813 -0.37597656 -0.66778564q-0.26524353 -0.1802063 -0.75286865 -0.06964111q-0.25904846 0.05871582 -0.48210144 0.20541382q-0.22651672 0.13143921 -0.425354 0.38479614q-0.19882202 0.25335693 -0.35127258 0.64038086q-0.1559143 0.37179565 -0.2349701 0.8703613q-0.07904053 0.49853516 -0.06460571 1.0560303q0.029678345 0.5540161 0.14387512 1.0568237q0.14878845 0.6552124 0.39253235 0.9524231q0.25552368 0.27853394 0.6822052 0.18179321q0.1980896 -0.044891357 0.39067078 -0.18466187q0.19258118 -0.13980103 0.39971924 -0.427063q0.20368958 -0.30252075 0.4351349 -0.8356323q0.20787048 -0.49572754 0.28207397 -0.9451294q0.07072449 -0.46463013 0.06460571 -1.0560303l-0.0013275146 -0.28808594zm8.96402 2.037445l-1.9962158 0.45251465l0.058807373 -3.4098816q0.0069885254 -0.32199097 1.373291E-4 -0.70495605q-0.010314941 -0.39819336 -0.07951355 -0.7029419q-0.100357056 -0.44189453 -0.2977295 -0.6054077q-0.19735718 -0.1635437 -0.53260803 -0.08755493q-0.274292 0.062164307 -0.53060913 0.34457397q-0.25978088 0.2671814 -0.5016022 0.75457764q-0.24182129 0.48739624 -0.37350464 0.96585083q-0.1351471 0.4631958 -0.13388062 1.1037598l0.043777466 2.873932l-1.097168 0.24871826l-0.007461548 -4.548401q-0.004119873 -0.15927124 -0.024154663 -0.45913696q-0.0047912598 -0.3033142 -0.046310425 -0.48617554q-0.041519165 -0.18283081 -0.12324524 -0.260437q-0.06993103 -0.09628296 -0.217453 -0.1109314q-0.1322937 -0.018066406 -0.45576477 0.039245605l7.6293945E-5 -0.35250854l1.4338074 -0.38909912l0.35047913 -0.079437256l-0.037719727 1.7388611l0.083114624 0.013214111q0.41229248 -1.0066833 0.8944702 -1.5646057q0.48216248 -0.55789185 1.0612335 -0.68914795q0.6095276 -0.1381836 1.0091248 0.13973999q0.39613342 0.2626648 0.5449219 0.9178467q0.0519104 0.22857666 0.06846619 0.5132141q0.031814575 0.28115845 0.019302368 0.5083008l-0.021224976 2.3759766q-0.0028533936 0.48129272 0.05596924 0.7403259q0.04498291 0.1980896 0.13015747 0.29092407q0.10041809 0.08938599 0.23616028 0.12271118q0.15098572 0.029846191 0.462677 -0.008758545l0.023483276 0.315094zm4.1164856 -5.7555847q-0.20768738 -0.56173706 -0.52211 -0.74679565q-0.30262756 -0.20376587 -0.85121155 -0.07940674q-0.28953552 0.06561279 -0.50912476 0.22753906q-0.21958923 0.16192627 -0.30828857 0.40634155q-0.0887146 0.24441528 -0.022964478 0.533905q0.0519104 0.22857666 0.18832397 0.4059143q0.13641357 0.17736816 0.4134369 0.3388672q0.27355957 0.14627075 0.7320404 0.330719q0.7182007 0.2697754 1.0519714 0.61065674q0.33032227 0.3256836 0.44451904 0.8284912q0.13494873 0.5942383 -0.05769348 1.0865173q-0.18086243 0.47357178 -0.6352844 0.8008728q-0.4426422 0.30862427 -1.0674286 0.45025635q-0.56381226 0.12780762 -1.0722046 0.14691162q-0.48968506 0.030914307 -0.9745178 0.012634277l-0.021896362 -1.4369507l0.50286865 -0.113983154q0.17720032 0.56863403 0.5172272 0.7959595q0.35528564 0.22387695 0.9190979 0.096069336q0.5638275 -0.12780762 0.80630493 -0.4711609q0.2542572 -0.36206055 0.14698792 -0.8344116q-0.06227112 -0.27426147 -0.20214844 -0.4668579q-0.13987732 -0.19259644 -0.39819336 -0.34231567q-0.24308777 -0.15316772 -0.6641693 -0.3140564q-0.47372437 -0.18099976 -0.77290344 -0.36950684q-0.29917908 -0.1885376 -0.5020752 -0.44696045q-0.20288086 -0.25839233 -0.2824707 -0.6088562q-0.11764526 -0.5180664 0.054901123 -0.95770264q0.16908264 -0.45489502 0.5964813 -0.7600708q0.43919373 -0.32385254 1.0792084 -0.4689331q1.0514374 -0.23834229 1.9061279 -0.14369202l0.008056641 1.3760223l-0.50286865 0.113983154zm2.9519348 -5.3954773l0.3809662 -0.08634949l0.05670166 7.8696747q-0.0069885254 0.32202148 0.012390137 0.47784424q0.019363403 0.15582275 0.0435791 0.2624817q0.04498291 0.1980896 0.13015747 0.29092407q0.08517456 0.09283447 0.220932 0.12615967q0.15098572 0.029846191 0.46266174 -0.008758545l0.023498535 0.315094l-1.9809875 0.44906616l-0.008270264 -7.656372q-0.0013275146 -0.28807068 -0.017227173 -0.42866516q-0.004135132 -0.15927124 -0.016571045 -0.2846222q-0.012451172 -0.12535095 -0.03666687 -0.23200989q-0.041534424 -0.18284607 -0.13847351 -0.25700378q-0.08518982 -0.09283447 -0.23271179 -0.10746765q-0.14752197 -0.01461792 -0.4862213 0.046142578l6.1035156E-5 -0.3524933l1.5861816 -0.42364502zm6.3074036 2.0628815l0.50086975 -0.54611206l0.41696167 0.0016174316l0.019226074 4.529709q-0.00491333 0.40164185 0.013046265 0.6218567q0.014511108 0.20498657 0.045654297 0.34213257q0.05882263 0.2590332 0.22364807 0.349823q0.18006897 0.087371826 0.5984192 0.02456665l0.008255005 0.318573l-1.8133698 0.41104126l0.03286743 -1.6896973l-0.07965088 0.0020446777q-0.40882874 1.0219116 -0.86398315 1.5576782q-0.45515442 0.5357361 -1.0646973 0.6739197q-0.7009735 0.15890503 -1.1995697 -0.27279663q-0.5020752 -0.44692993 -0.71661377 -1.3916321q-0.13841248 -0.6094971 -0.13967896 -1.250061q-0.004714966 -0.65579224 0.14500427 -1.26651q0.16496277 -0.61416626 0.46772766 -1.115387q0.2993164 -0.516449 0.76205444 -0.87768555q0.46273804 -0.36123657 1.0722656 -0.4994049q0.39620972 -0.08981323 0.76745605 -0.07783508q0.37123108 0.011962891 0.80410767 0.15415955zm-0.119506836 2.0137482q-0.013122559 -0.26939392 -0.039398193 -0.45568848q-0.014511108 -0.20498657 -0.06295776 -0.41830444q-0.11418152 -0.5028229 -0.3759613 -0.66778564q-0.26524353 -0.18019104 -0.75286865 -0.06965637q-0.25906372 0.05873108 -0.4821167 0.20541382q-0.22650146 0.13145447 -0.42533875 0.3848114q-0.19883728 0.25334167 -0.35127258 0.64038086q-0.1559143 0.37179565 -0.2349701 0.8703613q-0.079055786 0.49853516 -0.06460571 1.0560303q0.029678345 0.5540161 0.14385986 1.0568542q0.14878845 0.6551819 0.3925476 0.9523926q0.25552368 0.27853394 0.68218994 0.18179321q0.19810486 -0.044891357 0.39068604 -0.18466187q0.19256592 -0.13980103 0.39971924 -0.427063q0.20368958 -0.30252075 0.43511963 -0.8356323q0.20788574 -0.49572754 0.28207397 -0.9451294q0.070739746 -0.46463013 0.06462097 -1.0560303l-0.0013275146 -0.28808594zm6.99086 1.2510681q-0.37277222 0.7574158 -0.81822205 1.1948242q-0.43019104 0.43399048 -0.99401855 0.5617981q-0.67048645 0.15197754 -1.0818634 -0.10723877q-0.41482544 -0.27444458 -0.5636139 -0.929657q-0.08996582 -0.39614868 -0.08224487 -0.9266052l0.04496765 -3.4708252l-0.9600067 0.21762085l0.0035247803 -0.33724976q0.37057495 -0.13206482 0.55622864 -0.3023224q0.18565369 -0.17025757 0.2965088 -0.38764954q0.107406616 -0.23262024 0.16011047 -0.56500244q0.06448364 -0.35105896 0.11239624 -0.9867554l0.8838196 -0.2003479l0.00592041 1.6488647l2.0114746 -0.4559784l0.008178711 0.671051l-2.026703 0.45942688l-0.0524292 2.5913239q-0.023757935 1.0948334 0.09043884 1.5976715q0.08996582 0.39614868 0.30256653 0.5562439q0.22784424 0.15661621 0.54785156 0.08407593q0.28953552 -0.06561279 0.55763245 -0.36669922q0.26809692 -0.30111694 0.54525757 -0.844574l0.45222473 0.29800415zm2.081009 -8.2260895l-0.012710571 1.2845917l-1.1276398 0.2556305l0.027954102 -1.2880554l1.1123962 -0.25216675zm0.011795044 7.319107q0.011703491 0.33380127 0.015838623 0.4930725q0.019363403 0.15585327 0.040130615 0.24725342q0.04498291 0.1980896 0.13015747 0.29092407q0.10040283 0.08938599 0.23616028 0.12271118q0.15098572 0.029846191 0.462677 -0.008758545l0.008239746 0.318573l-1.965744 0.44558716l-0.012313843 -4.499222q0.008377075 -0.38641357 -0.0095825195 -0.6066437q-0.021438599 -0.23545837 -0.052581787 -0.3725891q-0.041519165 -0.18284607 -0.12669373 -0.2756958q-0.06993103 -0.09629822 -0.21746826 -0.11091614q-0.13227844 -0.018081665 -0.44050598 0.0357666l-0.015182495 -0.34902954l1.5404816 -0.4132843l0.36572266 -0.082901l0.040664673 4.765152zm4.5161285 0.7546692q-0.97525024 0.22106934 -1.648407 -0.203125q-0.6579132 -0.4276123 -0.89320374 -1.4637451q-0.086517334 -0.3809204 -0.11273193 -0.91970825q-0.030349731 -0.6980591 0.06880188 -1.2492523q0.14074707 -0.72080994 0.47885132 -1.2781067q0.34988403 -0.5759735 0.8735657 -0.95103455q0.5236969 -0.37504578 1.1941833 -0.5270386q0.7314453 -0.165802 1.2543488 0.020065308q0.53466797 0.16719055 0.84350586 0.6098633q0.32060242 0.42399597 0.46246338 1.048706q0.1280365 0.5637665 0.12098694 1.238266q-0.014038086 0.996521 -0.30715942 1.7518768q-0.29312134 0.7553711 -0.8722534 1.2391205q-0.5791168 0.48376465 -1.4629517 0.68411255zm-1.3821716 -1.6413116q0.15571594 0.6856537 0.52137756 0.955246q0.36564636 0.2695923 0.9599457 0.13485718q0.60954285 -0.13815308 0.9725952 -0.79722595q0.35960388 -0.6743164 0.40551758 -1.7421265q0.045913696 -1.0678253 -0.12710571 -1.8296814q-0.15571594 -0.68566895 -0.5095825 -0.973938q-0.33865356 -0.2917328 -0.9024658 -0.16392517q-0.6552582 0.14854431 -1.0148468 0.82284546q-0.36306763 0.6590729 -0.41729736 1.7608185q-0.05769348 1.0865173 0.11186218 1.8331299zm11.344162 -0.72906494l-1.9962311 0.45251465l0.05882263 -3.4098816q0.0069732666 -0.32200623 1.2207031E-4 -0.7049713q-0.010314941 -0.39819336 -0.07951355 -0.7029419q-0.100357056 -0.441864 -0.29771423 -0.6054077q-0.19737244 -0.1635437 -0.53260803 -0.08753967q-0.274292 0.062164307 -0.5306244 0.34457397q-0.25978088 0.26716614 -0.5016022 0.7545624q-0.24182129 0.48739624 -0.37350464 0.96585083q-0.1351471 0.46321106 -0.13388062 1.103775l0.043792725 2.873932l-1.097168 0.248703l-0.007461548 -4.5483856q-0.004119873 -0.15927124 -0.024154663 -0.45913696q-0.0047912598 -0.30332947 -0.046310425 -0.48617554q-0.041534424 -0.18284607 -0.12324524 -0.26045227q-0.06993103 -0.09628296 -0.217453 -0.11091614q-0.1322937 -0.018066406 -0.45576477 0.039230347l7.6293945E-5 -0.35247803l1.4337921 -0.38911438l0.35049438 -0.079452515l-0.037734985 1.7388763l0.083114624 0.013198853q0.41230774 -1.0066833 0.8944702 -1.5645905q0.48217773 -0.55789185 1.0612335 -0.6891632q0.6095276 -0.13816833 1.0091248 0.13973999q0.39613342 0.26268005 0.5449219 0.9178772q0.0519104 0.22854614 0.068481445 0.5131836q0.031799316 0.2811737 0.01928711 0.5083008l-0.021209717 2.3759918q-0.0028686523 0.48129272 0.05595398 0.74031067q0.04498291 0.1980896 0.13015747 0.29092407q0.10041809 0.08938599 0.23616028 0.12271118q0.15098572 0.02986145 0.462677 -0.008758545l0.023498535 0.31510925zm5.454468 -10.224457l-0.012710571 1.2845917l-1.1124115 0.25216675l0.012710571 -1.2845917l1.1124115 -0.25216675zm0.06062317 9.086426q0.019897461 1.004837 -0.19908142 1.6632843q-0.21554565 0.6736908 -0.7136078 1.0910034q-0.47938538 0.42910767 -1.256546 0.60528564q-0.32000732 0.07254028 -0.5624237 0.06338501l0.024353027 -0.5982971q0.113601685 0.006286621 0.2389679 -0.0061035156q0.12536621 -0.012420654 0.2625122 -0.04348755q0.3047638 -0.0690918 0.49734497 -0.2088623q0.19256592 -0.13980103 0.3269806 -0.39456177q0.13442993 -0.254776 0.20030212 -0.6702423q0.06587219 -0.4154663 0.06460571 -1.0560455l-0.017105103 -4.802536q0.01184082 -0.3711853 -0.0061187744 -0.5914154q-0.021438599 -0.23545837 -0.056030273 -0.38783264q-0.041519165 -0.18284607 -0.12670898 -0.27568054q-0.06993103 -0.09629822 -0.217453 -0.11091614q-0.1322937 -0.018081665 -0.44052124 0.0357666l-0.015167236 -0.34902954l1.5404663 -0.4132843l0.36572266 -0.082901l0.08950806 6.5324707zm4.293335 -0.9732361q-0.9752655 0.2210846 -1.648407 -0.20309448q-0.6579132 -0.42764282 -0.893219 -1.4637604q-0.086502075 -0.3809204 -0.112716675 -0.91970825q-0.030349731 -0.6980591 0.06880188 -1.2492523q0.14073181 -0.7208252 0.47883606 -1.2781067q0.34988403 -0.5759735 0.87358093 -0.95103455q0.5236969 -0.37504578 1.1941833 -0.5270386q0.7314453 -0.165802 1.2543335 0.020065308q0.5346832 0.16719055 0.84350586 0.6098633q0.32060242 0.42399597 0.46247864 1.048706q0.1280365 0.5637665 0.12097168 1.238266q-0.014038086 0.996521 -0.30715942 1.7518768q-0.29312134 0.7553711 -0.87223816 1.2391205q-0.5791321 0.4837494 -1.4629517 0.6840973zm-1.3821716 -1.6412964q0.15571594 0.68566895 0.5213623 0.955246q0.36566162 0.2695923 0.95996094 0.13487244q0.6095276 -0.13816833 0.9725952 -0.7972412q0.35958862 -0.6743164 0.40550232 -1.7421265q0.045913696 -1.0678253 -0.12709045 -1.8296814q-0.15571594 -0.68566895 -0.5095978 -0.973938q-0.3386383 -0.2917328 -0.90245056 -0.16392517q-0.6552582 0.14854431 -1.0148621 0.82284546q-0.36305237 0.6590729 -0.4172821 1.7608185q-0.05769348 1.0865173 0.11186218 1.8331299zm6.964798 -8.724365l-0.012710571 1.2846069l-1.1276398 0.25561523l0.027954102 -1.2880554l1.1123962 -0.25216675zm0.011795044 7.3191223q0.011703491 0.33380127 0.015838623 0.4930725q0.019363403 0.15582275 0.040115356 0.24725342q0.04498291 0.19807434 0.13015747 0.29092407q0.10041809 0.08938599 0.23616028 0.12269592q0.15100098 0.02986145 0.462677 -0.008758545l0.008255005 0.31855774l-1.965744 0.44561768l-0.012329102 -4.499237q0.008392334 -0.38641357 -0.0095825195 -0.6066437q-0.02142334 -0.23545837 -0.05256653 -0.3725891q-0.041519165 -0.18284607 -0.12669373 -0.2756958q-0.06994629 -0.09628296 -0.21746826 -0.11091614q-0.13227844 -0.018066406 -0.44052124 0.03578186l-0.015167236 -0.3490448l1.5404816 -0.4132843l0.36572266 -0.082901l0.040664673 4.765167zm7.8900604 -0.12231445l-1.9962158 0.4524994l0.058807373 -3.4098663q0.0069885254 -0.32202148 1.2207031E-4 -0.7049713q-0.010314941 -0.39819336 -0.07949829 -0.7029419q-0.1003418 -0.44187927 -0.2977295 -0.6054077q-0.19735718 -0.1635437 -0.5325928 -0.08755493q-0.274292 0.062179565 -0.53063965 0.34458923q-0.25976562 0.26716614 -0.5015869 0.7545624q-0.24182129 0.48739624 -0.37350464 0.96585083q-0.13516235 0.46321106 -0.13388062 1.103775l0.043792725 2.873932l-1.097168 0.248703l-0.007461548 -4.5483856q-0.004135132 -0.1592865 -0.024154663 -0.45915222q-0.0047912598 -0.3033142 -0.046325684 -0.48616028q-0.041519165 -0.18284607 -0.12322998 -0.26045227q-0.06993103 -0.09629822 -0.21746826 -0.11091614q-0.13227844 -0.018081665 -0.4557495 0.039230347l6.1035156E-5 -0.3524933l1.4338074 -0.38909912l0.35049438 -0.079452515l-0.037750244 1.7388611l0.08312988 0.013214111q0.41229248 -1.0066833 0.8944702 -1.5645905q0.48217773 -0.55789185 1.0612183 -0.6891632q0.6095581 -0.13816833 1.0091248 0.13973999q0.39614868 0.26268005 0.5449219 0.91786194q0.0519104 0.2285614 0.068481445 0.51319885q0.031799316 0.2811737 0.019317627 0.5083008l-0.021240234 2.3759918q-0.0028686523 0.48127747 0.05596924 0.74031067q0.04498291 0.1980896 0.13015747 0.29092407q0.10040283 0.08938599 0.23617554 0.12269592q0.15097046 0.02986145 0.46264648 -0.008743286l0.023498535 0.31510925zm4.9830017 -2.3632202q-0.37277222 0.7574005 -0.8182068 1.1948242q-0.4302063 0.43397522 -0.99401855 0.56178284q-0.6705017 0.15197754 -1.0818481 -0.10723877q-0.41485596 -0.27445984 -0.56362915 -0.9296417q-0.08996582 -0.39616394 -0.08224487 -0.9266205l0.04498291 -3.4708252l-0.960022 0.21762085l0.0035095215 -0.33724976q0.37057495 -0.13206482 0.5562439 -0.3023224q0.18563843 -0.17025757 0.2965088 -0.38764954q0.10739136 -0.23262024 0.16009521 -0.56500244q0.06448364 -0.35105896 0.11239624 -0.9867554l0.8838196 -0.2003479l0.0059509277 1.6488647l2.011444 -0.4559784l0.0082092285 0.671051l-2.0267334 0.45942688l-0.0524292 2.5913239q-0.023742676 1.0948486 0.0904541 1.5976715q0.08996582 0.39616394 0.30255127 0.5562439q0.22784424 0.15663147 0.54785156 0.08409119q0.28955078 -0.06562805 0.5576477 -0.36672974q0.26809692 -0.30110168 0.54525757 -0.8445587l0.45220947 0.2980194zm3.620697 -4.409561q-0.20767212 -0.5617218 -0.5220947 -0.74679565q-0.30264282 -0.20376587 -0.8512268 -0.07940674q-0.28952026 0.06562805 -0.50909424 0.22755432q-0.21960449 0.16192627 -0.3083191 0.40634155q-0.08868408 0.24440002 -0.022949219 0.533905q0.0519104 0.2285614 0.18832397 0.4059143q0.13641357 0.1773529 0.41342163 0.33885193q0.27355957 0.14627075 0.73205566 0.33073425q0.7182007 0.2697754 1.0519714 0.61065674q0.33032227 0.32566833 0.44451904 0.8284912q0.13494873 0.5942383 -0.05770874 1.0865021q-0.18084717 0.47358704 -0.6352844 0.80088806q-0.44262695 0.30862427 -1.0674133 0.45025635q-0.56381226 0.12780762 -1.0722046 0.14691162q-0.48968506 0.030899048 -0.9745178 0.012634277l-0.021911621 -1.436966l0.50286865 -0.113983154q0.17721558 0.56863403 0.51724243 0.7959595q0.35528564 0.22387695 0.9190979 0.096069336q0.56381226 -0.12780762 0.80630493 -0.4711609q0.25427246 -0.3620453 0.14700317 -0.83439636q-0.062286377 -0.27426147 -0.20217896 -0.4668579q-0.13986206 -0.19259644 -0.39819336 -0.34231567q-0.24307251 -0.15316772 -0.66415405 -0.3140564q-0.47372437 -0.18099976 -0.7728882 -0.3695221q-0.29919434 -0.1885376 -0.5020752 -0.4469452q-0.20291138 -0.25842285 -0.2824707 -0.60887146q-0.11767578 -0.51805115 0.054870605 -0.95770264q0.1690979 -0.45487976 0.5964966 -0.76005554q0.43917847 -0.32385254 1.0791931 -0.4689331q1.0514526 -0.23834229 1.9061279 -0.14370728l0.008056641 1.3760223l-0.50286865 0.113983154z" fill-rule="nonzero"/><path fill="#000000" d="m204.8579 269.72836l-0.012710571 1.2845764l-1.1276398 0.25561523l0.027954102 -1.2880249l1.1123962 -0.25216675zm0.011795044 7.3191223q0.011703491 0.33377075 0.015838623 0.4930725q0.019363403 0.15582275 0.040115356 0.2472229q0.04498291 0.1980896 0.13017273 0.29092407q0.10040283 0.08938599 0.23616028 0.12271118q0.15098572 0.029846191 0.462677 -0.008758545l0.008239746 0.318573l-1.965744 0.44558716l-0.012313843 -4.4992065q0.008377075 -0.38641357 -0.009597778 -0.60665894q-0.02142334 -0.23547363 -0.05256653 -0.3725891q-0.041519165 -0.18286133 -0.12669373 -0.2756958q-0.06993103 -0.09628296 -0.21746826 -0.11090088q-0.13227844 -0.018096924 -0.44050598 0.0357666l-0.015182495 -0.34902954l1.5404816 -0.41329956l0.36572266 -0.08288574l0.040664673 4.765167zm7.8900757 -0.12234497l-1.9962311 0.45251465l0.058807373 -3.4098816q0.0069885254 -0.32199097 1.373291E-4 -0.70495605q-0.010314941 -0.39819336 -0.07951355 -0.7029419q-0.100357056 -0.441864 -0.29771423 -0.6054077q-0.19737244 -0.1635437 -0.5326233 -0.08755493q-0.274292 0.062194824 -0.53060913 0.34457397q-0.25978088 0.2671814 -0.5016022 0.75457764q-0.24182129 0.48739624 -0.37350464 0.96585083q-0.1351471 0.4631958 -0.13388062 1.1037903l0.043792725 2.873932l-1.097168 0.24868774l-0.007461548 -4.548401q-0.004119873 -0.15927124 -0.024154663 -0.45913696q-0.0047912598 -0.3033142 -0.046310425 -0.48614502q-0.041534424 -0.18286133 -0.12324524 -0.26046753q-0.06993103 -0.09628296 -0.21746826 -0.11090088q-0.13227844 -0.018096924 -0.4557495 0.039215088l6.1035156E-5 -0.35247803l1.4338074 -0.38912964l0.35049438 -0.079437256l-0.037734985 1.7388611l0.083114624 0.013214111q0.41229248 -1.0066833 0.8944702 -1.5645752q0.48217773 -0.55792236 1.0612335 -0.68917847q0.6095276 -0.1381836 1.0091248 0.13973999q0.39613342 0.2626648 0.5449219 0.9178772q0.0519104 0.22854614 0.068481445 0.5131836q0.031799316 0.28115845 0.01928711 0.5083008l-0.021224976 2.3759766q-0.0028533936 0.48129272 0.05596924 0.7403259q0.04498291 0.1980896 0.13015747 0.29092407q0.10041809 0.08938599 0.23616028 0.12271118q0.15098572 0.029846191 0.462677 -0.008758545l0.023498535 0.315094zm8.525833 -7.9887695q-0.9367218 1.59021 -1.9835815 3.189331l0.9091797 1.251831q0.3531494 0.49673462 0.5525818 0.7398987q0.19596863 0.22793579 0.33032227 0.32565308q0.14611816 0.07904053 0.26663208 0.11581421q0.13574219 0.033294678 0.40171814 0.005065918l-0.0069885254 0.32199097l-1.5847931 0.35925293l-1.4616852 -2.3442383q-0.124694824 0.1564331 -0.31315613 0.45550537q-0.18844604 0.29907227 -0.36997986 0.6286011q-0.16975403 0.31085205 -0.23835754 0.5026245q-0.053359985 0.18835449 -0.056152344 0.31713867q-0.0062561035 0.113586426 0.024887085 0.2507019q0.03805542 0.16760254 0.1502533 0.23831177q0.12742615 0.067230225 0.3511505 0.064575195l0.008255005 0.318573l-1.8133698 0.41107178l-0.19111633 -0.27713013q1.0475922 -1.8075562 2.1013641 -3.3762207l-0.9161072 -1.2823181q-0.27973938 -0.38519287 -0.45355225 -0.5860901q-0.1585846 -0.20437622 -0.29292297 -0.3020935q-0.13435364 -0.097717285 -0.28533936 -0.127594q-0.15444946 -0.04510498 -0.41696167 -0.0016174316l0.0069885254 -0.32199097l1.5847931 -0.35925293l1.3813629 2.20224q0.25427246 -0.36206055 0.4593506 -0.7289734q0.20509338 -0.36691284 0.2736969 -0.5587158q0.0803833 -0.21047974 0.094955444 -0.3579712q0.011108398 -0.16271973 -0.023498535 -0.315094q-0.0761261 -0.33520508 -0.5014038 -0.30288696l0.0069885254 -0.32202148l1.8133698 -0.41107178l0.19111633 0.2770996zm2.4532623 3.9459229q0.05189514 0.22854614 0.07884216 0.5588989q0.02696228 0.33032227 0.0012664795 0.64056396q-0.025680542 0.3102417 -0.09913635 0.551178q-0.070007324 0.25619507 -0.21620178 0.5296631q-0.12750244 0.2852478 -0.40046692 0.63549805q-0.2542572 0.36203003 -0.68444824 0.7960205l-0.39474487 -0.3270874q0.2494049 -0.3128662 0.37550354 -0.5337219q0.12609863 -0.2208252 0.19125366 -0.42785645q0.0803833 -0.21047974 0.10121155 -0.47155762q0.03605652 -0.26449585 0.02368164 -0.7423401q0.0028533936 -0.48129272 -0.05870056 -0.9640198l1.0819397 -0.24523926zm4.252899 -4.3285522q-0.1716919 -0.4737854 -0.27415466 -0.64282227q-0.10594177 -0.18426514 -0.24861145 -0.24804688q-0.14613342 -0.07901001 -0.43911743 -0.028625488l0.0069885254 -0.32202148l1.6305084 -0.3695984l1.6177368 4.936371q1.4842377 -3.4125671 1.193573 -4.6924744q-0.06575012 -0.28948975 -0.22711182 -0.3650818q-0.14958191 -0.09423828 -0.45780945 -0.040405273l0.0069732666 -0.32202148l1.6305084 -0.3695984l0.24029541 0.28198242q-0.134552 0.9597473 -0.45335388 2.0253296q-0.3035736 1.0621643 -0.809433 2.3623962q-0.4940796 1.2815857 -1.1468048 2.7112427q-0.50512695 1.0918274 -0.87023926 1.6712341q-0.2979126 0.45205688 -0.57640076 0.7074585q-0.26324463 0.2519226 -0.5354767 0.3937378q-0.28399658 0.16049194 -0.6040039 0.23303223q-0.18286133 0.04147339 -0.4065857 0.0440979q-0.22026062 0.017913818 -0.38302612 0.0067443848l0.0043945312 -1.2506714l0.48762512 -0.11053467q0.063690186 0.20983887 0.1828003 0.31103516q0.11911011 0.10116577 0.30197144 0.0597229q0.21333313 -0.04837036 0.35534668 -0.12863159q0.1302185 -0.061553955 0.26184082 -0.18753052q0.14686584 -0.12942505 0.32699585 -0.39456177q0.19537354 -0.2685852 0.40530396 -0.68466187q0.21340942 -0.4008484 0.46839905 -0.9713135l-1.6891327 -4.6157837zm6.6698303 1.8525391q0.0519104 0.22854614 0.07885742 0.5588989q0.026947021 0.33035278 0.0012664795 0.64056396q-0.025680542 0.3102417 -0.09915161 0.551178q-0.070007324 0.25619507 -0.21620178 0.5296631q-0.12748718 0.2852478 -0.40045166 0.63549805q-0.2542572 0.36206055 -0.6844635 0.7960205l-0.3947296 -0.3270874q0.2494049 -0.3128662 0.37550354 -0.5337219q0.12609863 -0.2208252 0.1912384 -0.42785645q0.0803833 -0.21047974 0.10121155 -0.47155762q0.036071777 -0.26449585 0.0236969 -0.7423401q0.0028533936 -0.48129272 -0.05870056 -0.96398926l1.0819244 -0.24526978zm8.796143 -2.3143616l0.023895264 1.8690796l-4.6019897 1.0432129l-0.19111633 -0.27713013l2.5643005 -4.794922q0.5411377 -1.0038147 0.80856323 -1.4489746l-0.052627563 -0.020111084l-1.4781342 0.335083q-0.3352356 0.07598877 -0.47724915 0.15625q-0.14546204 0.06500244 -0.27015686 0.22143555q-0.12815857 0.14120483 -0.25912476 0.41122437q-0.11917114 0.25131226 -0.24253845 0.6958313l-0.5638275 0.12780762l0.0037994385 -1.7471924l4.510559 -1.0224609l0.19456482 0.29232788l-3.379776 6.21344l0.04084778 0.03878784l1.4324188 -0.32470703q0.38095093 -0.08633423 0.5721283 -0.16171265q0.20295715 -0.09408569 0.33111572 -0.23529053q0.12471008 -0.1564331 0.22518921 -0.41952515q0.11225891 -0.28179932 0.24534607 -0.824646l0.56381226 -0.12780762z" fill-rule="nonzero"/><path fill="#000000" d="m230.26953 295.98196l0.03919983 5.1820374l-2.651474 0.6010437l-0.05444336 -5.178589l-4.541046 1.0293884l-1.9836426E-4 -2.6114502l4.5258026 -1.02594l-0.023971558 -5.185486l2.6667175 -0.6045227l0.023971558 5.1855164l4.5258026 -1.0259094l0.0154418945 2.6079712l-4.5258026 1.02594z" fill-rule="nonzero"/><path fill="#000000" d="m191.15903 323.68567l-0.01777649 -1.27771q0.6504669 -0.45184326 1.2170868 -0.7084656q0.5631561 -0.2718506 1.2031555 -0.41693115q0.42668152 -0.096710205 0.8131561 -0.0881958q0.38648987 0.008514404 0.7057648 0.1444397q0.3192749 0.13589478 0.5443268 0.42132568q0.23683167 0.26675415 0.33024597 0.6781311q0.13496399 0.5942688 0.010192871 1.1031799q-0.12823486 0.49368286 -0.5598297 0.9920654q-0.41636658 0.49490356 -1.2205963 1.0457153l0.013839722 0.060943604q0.83392334 0.0032348633 1.3560791 0.3975525q0.5373993 0.39086914 0.696579 1.0917664q0.11764526 0.5180664 0.010177612 1.1031494q-0.10746765 0.5851135 -0.44763184 1.0627747q-0.3283844 0.45895386 -0.89294434 0.79519653q-0.5493164 0.3327942 -1.3569489 0.51589966q-0.5942993 0.13470459 -1.2924652 0.16479492q-0.6863861 0.011413574 -1.1580505 -0.08996582l-0.014968872 -1.4064941l0.73143005 -0.165802q0.17581177 0.63305664 0.59550476 0.8583374q0.419693 0.22531128 1.0901794 0.07330322q0.64001465 -0.14508057 1.0196381 -0.51950073q0.39486694 -0.37789917 0.5175781 -0.9664612q0.13447571 -0.6072693 -0.021240234 -1.2929382q-0.15570068 -0.68566895 -0.67375183 -0.92071533q-0.52149963 -0.25027466 -1.4053192 -0.049926758l-0.6247711 0.14163208l-0.002670288 -0.5761719q0.7480774 -0.23364258 1.275238 -0.59347534q0.5423889 -0.36328125 0.8285217 -0.79663086q0.30137634 -0.4367981 0.36724854 -0.8522644q0.062423706 -0.4307251 -0.027542114 -0.8268738q-0.12110901 -0.5332947 -0.50686646 -0.75027466q-0.37051392 -0.22039795 -0.90385437 -0.09951782q-0.6095276 0.1381836 -0.93652344 0.53274536q-0.3304596 0.37930298 -0.46980286 1.0357361l-0.7923889 0.17962646zm10.780304 -1.5305176l0.3809662 -0.086364746l-0.085510254 1.6696167l0.07965088 -0.0020446777q0.40745544 -0.95751953 0.8965454 -1.4849548q0.48562622 -0.5426636 1.0951691 -0.68081665q0.45713806 -0.103637695 0.7792206 -0.0965271l0.017028809 1.4861145l-0.6552429 0.14852905q-0.12184143 -0.3248291 -0.2665863 -0.46826172q-0.14472961 -0.14343262 -0.37330627 -0.09161377q-0.24380493 0.055267334 -0.52023315 0.3902893q-0.26463318 0.3163147 -0.4960785 0.84942627q-0.2348938 0.5178833 -0.31600952 0.9367981q-0.08457947 0.40368652 -0.07218933 0.88153076l0.043777466 2.873932l-1.0971527 0.24868774l-0.007461548 -4.5483704q-0.01651001 -0.6371155 -0.08570862 -0.941864q-0.041534424 -0.18286133 -0.12324524 -0.26046753q-0.06993103 -0.09628296 -0.217453 -0.11090088q-0.1322937 -0.018066406 -0.44052124 0.0357666l6.1035156E-5 -0.35247803l1.4642792 -0.3960266zm6.642502 5.0470276q-0.9752655 0.22106934 -1.648407 -0.20309448q-0.6579132 -0.42764282 -0.893219 -1.4637756q-0.086502075 -0.3809204 -0.112716675 -0.91970825q-0.030349731 -0.6980591 0.06880188 -1.2492371q0.14073181 -0.7208252 0.47883606 -1.2781067q0.34988403 -0.57598877 0.87358093 -0.9510498q0.5236969 -0.37503052 1.1941833 -0.5270386q0.7314453 -0.165802 1.2543335 0.020080566q0.5346832 0.1671753 0.84350586 0.6098633q0.32060242 0.4239807 0.46247864 1.048706q0.1280365 0.5637512 0.12097168 1.2382507q-0.014038086 0.996521 -0.30715942 1.7518921q-0.29312134 0.7553711 -0.87223816 1.2391052q-0.5791321 0.48376465 -1.4629517 0.68411255zm-1.3821716 -1.6412964q0.15571594 0.68566895 0.5213623 0.9552307q0.36566162 0.2695923 0.95996094 0.1348877q0.6095276 -0.1381836 0.9725952 -0.7972412q0.35958862 -0.6743164 0.40550232 -1.7421265q0.045913696 -1.0678406 -0.12709045 -1.8296814q-0.15571594 -0.68566895 -0.5095978 -0.973938q-0.3386383 -0.29174805 -0.90245056 -0.16394043q-0.6552582 0.14855957 -1.0148621 0.82284546q-0.36305237 0.65908813 -0.4172821 1.7608337q-0.05769348 1.0865173 0.11186218 1.8331299zm9.371002 -1.5154419q-0.37277222 0.75738525 -0.81822205 1.1948242q-0.43019104 0.43395996 -0.99401855 0.5617676q-0.67048645 0.15200806 -1.0818634 -0.10720825q-0.41482544 -0.2744751 -0.5636139 -0.929657q-0.08996582 -0.3961792 -0.08226013 -0.92663574l0.04498291 -3.4708252l-0.960022 0.21762085l0.0035247803 -0.33724976q0.3705902 -0.13204956 0.5562439 -0.30230713q0.18565369 -0.17025757 0.2965088 -0.38763428q0.107406616 -0.2326355 0.16011047 -0.56500244q0.064468384 -0.35107422 0.11238098 -0.9867859l0.88383484 -0.2003479l0.00592041 1.6488647l2.0114746 -0.45596313l0.008178711 0.671051l-2.026703 0.45941162l-0.0524292 2.591339q-0.023757935 1.0948486 0.090423584 1.5976562q0.08998108 0.3961792 0.3025818 0.5562439q0.22784424 0.15664673 0.54785156 0.084106445q0.28952026 -0.06564331 0.55763245 -0.36672974q0.26809692 -0.30108643 0.5452423 -0.844574l0.45224 0.29803467zm4.3625336 -5.811371l0.50086975 -0.54611206l0.41696167 0.0016174316l0.019226074 4.5296936q-0.00491333 0.40164185 0.013046265 0.6218872q0.014511108 0.20498657 0.045654297 0.34210205q0.05882263 0.2590332 0.22364807 0.34985352q0.18006897 0.08734131 0.5984192 0.02456665l0.008255005 0.31854248l-1.8133698 0.41107178l0.03288269 -1.6896973l-0.07966614 0.0020141602q-0.40882874 1.0219421 -0.86398315 1.5576782q-0.45515442 0.5357666 -1.0646973 0.6739502q-0.70095825 0.15887451 -1.1995697 -0.27282715q-0.5020752 -0.44692993 -0.71661377 -1.3916321q-0.13841248 -0.60946655 -0.1396637 -1.250061q-0.0047302246 -0.65579224 0.14498901 -1.26651q0.16496277 -0.61416626 0.46772766 -1.1153564q0.2993164 -0.516449 0.76205444 -0.87768555q0.46273804 -0.3612671 1.0722809 -0.49942017q0.39619446 -0.08981323 0.7674408 -0.07785034q0.37124634 0.011993408 0.80410767 0.1541748zm-0.119506836 2.0137634q-0.0131073 -0.26940918 -0.039398193 -0.45568848q-0.014511108 -0.20501709 -0.06295776 -0.41833496q-0.11418152 -0.5028076 -0.3759613 -0.6677551q-0.26524353 -0.1802063 -0.75286865 -0.06967163q-0.25906372 0.05871582 -0.48210144 0.20541382q-0.22651672 0.13143921 -0.425354 0.38479614q-0.19882202 0.25335693 -0.35127258 0.64038086q-0.1559143 0.37179565 -0.2349701 0.8703613q-0.079055786 0.49856567 -0.06460571 1.0560303q0.029678345 0.5540161 0.14385986 1.0568542q0.14880371 0.6551819 0.3925476 0.9524231q0.25552368 0.27850342 0.6822052 0.18179321q0.1980896 -0.044921875 0.39067078 -0.18469238q0.19256592 -0.13977051 0.39971924 -0.427063q0.20368958 -0.30252075 0.43511963 -0.8356018q0.20788574 -0.49572754 0.28208923 -0.9451294q0.07072449 -0.46463013 0.06460571 -1.0560303l-0.0013275146 -0.28808594zm6.9908752 1.2510681q-0.37277222 0.75738525 -0.8182068 1.1948242q-0.4302063 0.43395996 -0.9940338 0.5617676q-0.67048645 0.15200806 -1.0818481 -0.10723877q-0.4148407 -0.27444458 -0.56362915 -0.92962646q-0.08996582 -0.3961792 -0.08224487 -0.92663574l0.04496765 -3.4708252l-0.9600067 0.21762085l0.0035247803 -0.33724976q0.37057495 -0.13204956 0.55622864 -0.30230713q0.18565369 -0.17025757 0.29652405 -0.3876648q0.10739136 -0.23260498 0.16009521 -0.56500244q0.06448364 -0.3510437 0.11239624 -0.9867554l0.8838196 -0.2003479l0.00592041 1.6488647l2.0114746 -0.45596313l0.008178711 0.671051l-2.026703 0.45941162l-0.0524292 2.591339q-0.023757935 1.0948486 0.09043884 1.5976562q0.08996582 0.3961792 0.30256653 0.5562439q0.22784424 0.15664673 0.54785156 0.084106445q0.28953552 -0.06564331 0.55763245 -0.36672974q0.26809692 -0.30108643 0.54525757 -0.844574l0.45222473 0.29803467zm2.081009 -8.226105l-0.0126953125 1.2846069l-1.1276398 0.25561523l0.027938843 -1.2880554l1.1123962 -0.25216675zm0.011795044 7.3191223q0.01171875 0.33380127 0.015838623 0.4930725q0.019363403 0.15582275 0.040130615 0.24725342q0.04498291 0.19805908 0.13015747 0.29092407q0.10041809 0.08938599 0.23616028 0.122680664q0.15098572 0.029876709 0.462677 -0.008758545l0.008255005 0.318573l-1.9657593 0.44561768l-0.012313843 -4.499237q0.008377075 -0.38641357 -0.0095825195 -0.60665894q-0.021438599 -0.23544312 -0.05256653 -0.3725891q-0.041534424 -0.18283081 -0.12670898 -0.2756958q-0.06993103 -0.09628296 -0.217453 -0.11090088q-0.1322937 -0.018066406 -0.44052124 0.0357666l-0.015167236 -0.34902954l1.5404663 -0.41329956l0.36572266 -0.08288574l0.040664673 4.765167zm4.5161285 0.7546387q-0.97525024 0.22106934 -1.648407 -0.20309448q-0.6579132 -0.42764282 -0.89320374 -1.4637756q-0.086517334 -0.3809204 -0.11273193 -0.91970825q-0.030334473 -0.6980591 0.06880188 -1.2492371q0.14074707 -0.7208252 0.47885132 -1.2781067q0.34988403 -0.57598877 0.87358093 -0.9510193q0.52368164 -0.37506104 1.1941833 -0.5270691q0.73143005 -0.165802 1.2543335 0.020080566q0.53466797 0.1671753 0.84350586 0.6098633q0.32060242 0.4239807 0.46247864 1.048706q0.12802124 0.56378174 0.12097168 1.2382812q-0.014038086 0.9964905 -0.30715942 1.7518616q-0.29312134 0.7553711 -0.8722534 1.2391052q-0.5791168 0.48376465 -1.4629517 0.68411255zm-1.3821716 -1.6412964q0.15571594 0.68566895 0.52137756 0.95526123q0.36564636 0.26956177 0.9599457 0.13485718q0.60954285 -0.1381836 0.9725952 -0.7972412q0.35960388 -0.6743164 0.40551758 -1.7421265q0.045913696 -1.0678406 -0.12710571 -1.8296814q-0.15571594 -0.68566895 -0.5095825 -0.973938q-0.3386383 -0.29174805 -0.9024658 -0.16390991q-0.6552429 0.14852905 -1.0148468 0.82281494q-0.36306763 0.65908813 -0.41729736 1.7608337q-0.057678223 1.0865173 0.11186218 1.8331299zm11.344147 -0.72906494l-1.9962311 0.45251465l0.05882263 -3.4098816q0.0069885254 -0.32202148 1.2207031E-4 -0.7049866q-0.010314941 -0.39819336 -0.07951355 -0.7029114q-0.1003418 -0.44189453 -0.29771423 -0.60543823q-0.19737244 -0.16351318 -0.53260803 -0.087524414q-0.274292 0.062164307 -0.5306244 0.34457397q-0.25978088 0.2671814 -0.5016022 0.7545471q-0.24180603 0.48739624 -0.37350464 0.96585083q-0.1351471 0.46322632 -0.13388062 1.1037903l0.043792725 2.873932l-1.097168 0.24871826l-0.007461548 -4.548401q-0.004119873 -0.15927124 -0.024154663 -0.45913696q-0.0047912598 -0.3033142 -0.046310425 -0.48617554q-0.041519165 -0.18283081 -0.12324524 -0.260437q-0.06993103 -0.09631348 -0.217453 -0.1109314q-0.1322937 -0.018066406 -0.45576477 0.039215088l7.6293945E-5 -0.35247803l1.4338074 -0.38909912l0.35047913 -0.079437256l-0.037734985 1.7388611l0.083114624 0.013183594q0.41230774 -1.0066833 0.8944702 -1.5645752q0.48217773 -0.55789185 1.0612335 -0.68914795q0.60954285 -0.1381836 1.0091248 0.13973999q0.39613342 0.2626648 0.5449219 0.9178467q0.0519104 0.22857666 0.068481445 0.5131836q0.031799316 0.28118896 0.019302368 0.5083313l-0.021224976 2.3759766q-0.0028686523 0.48129272 0.05595398 0.7403259q0.04498291 0.19805908 0.13015747 0.29092407q0.10041809 0.08938599 0.23617554 0.122680664q0.15098572 0.029876709 0.46266174 -0.008758545l0.023498535 0.3151245zm5.454468 -10.224457l-0.012710571 1.2845764l-1.1123962 0.25216675l0.0126953125 -1.2845764l1.1124115 -0.25216675zm0.060638428 9.086426q0.019897461 1.0048218 -0.19909668 1.6632996q-0.2155304 0.67367554 -0.7136078 1.0910034q-0.47938538 0.42907715 -1.256546 0.6052551q-0.31999207 0.07254028 -0.5624237 0.06341553l0.024368286 -0.59832764q0.113586426 0.006286621 0.23895264 -0.0061035156q0.12536621 -0.012390137 0.2625122 -0.04348755q0.3047638 -0.0690918 0.49734497 -0.2088623q0.19256592 -0.13977051 0.32699585 -0.39456177q0.13441467 -0.25476074 0.20028687 -0.67022705q0.06587219 -0.4154663 0.06460571 -1.0560303l-0.017105103 -4.8025513q0.01184082 -0.3711853 -0.0061187744 -0.59140015q-0.02142334 -0.23547363 -0.056030273 -0.3878479q-0.041519165 -0.18283081 -0.12669373 -0.2756958q-0.06994629 -0.09628296 -0.21746826 -0.11090088q-0.1322937 -0.018096924 -0.44052124 0.0357666l-0.015167236 -0.34902954l1.5404663 -0.41329956l0.36572266 -0.08288574l0.089523315 6.5324707zm4.293335 -0.9732361q-0.97525024 0.22106934 -1.648407 -0.20309448q-0.6579132 -0.42764282 -0.893219 -1.4637756q-0.086502075 -0.3809204 -0.112716675 -0.91970825q-0.030349731 -0.6980591 0.06880188 -1.2492371q0.14073181 -0.7208252 0.47883606 -1.2781067q0.34988403 -0.57598877 0.87358093 -0.9510498q0.5236969 -0.37503052 1.1941833 -0.5270386q0.7314453 -0.165802 1.2543488 0.020080566q0.53466797 0.1671753 0.84350586 0.6098633q0.32058716 0.4239807 0.46246338 1.048706q0.12802124 0.56378174 0.12097168 1.2382507q-0.014038086 0.996521 -0.30715942 1.7518921q-0.29312134 0.7553711 -0.87223816 1.2391052q-0.5791321 0.48376465 -1.4629517 0.68411255zm-1.3821716 -1.6412964q0.15571594 0.68566895 0.5213623 0.9552307q0.36566162 0.2695923 0.95996094 0.1348877q0.6095276 -0.1381836 0.9725952 -0.7972412q0.35958862 -0.6743164 0.40550232 -1.7421265q0.045913696 -1.0678406 -0.12709045 -1.8296814q-0.15571594 -0.68566895 -0.5095978 -0.973938q-0.3386383 -0.29174805 -0.90245056 -0.16394043q-0.6552582 0.14855957 -1.0148468 0.82284546q-0.36306763 0.65908813 -0.41729736 1.7608337q-0.05769348 1.0865173 0.11186218 1.8331299zm6.964798 -8.724365l-0.01272583 1.2846069l-1.1276245 0.25561523l0.027923584 -1.2880554l1.1124268 -0.25216675zm0.011779785 7.3191223q0.01171875 0.33380127 0.015838623 0.4930725q0.019348145 0.15582275 0.040130615 0.24725342q0.04498291 0.1980896 0.13015747 0.29092407q0.10040283 0.08938599 0.23614502 0.122680664q0.15100098 0.029876709 0.462677 -0.008728027l0.008270264 0.31854248l-1.9657593 0.44561768l-0.012329102 -4.499237q0.008392334 -0.38641357 -0.0095825195 -0.6066284q-0.02142334 -0.23547363 -0.05255127 -0.37261963q-0.041534424 -0.18283081 -0.12670898 -0.27566528q-0.06994629 -0.09631348 -0.21746826 -0.1109314q-0.1322937 -0.018066406 -0.44052124 0.0357666l-0.015167236 -0.34902954l1.5404663 -0.41326904l0.36572266 -0.08291626l0.04067993 4.765167zm7.8900757 -0.12231445l-1.9962463 0.45251465l0.05883789 -3.4098816q0.0069885254 -0.32202148 1.2207031E-4 -0.7049866q-0.010314941 -0.39819336 -0.07952881 -0.7029419q-0.1003418 -0.441864 -0.29769897 -0.6054077q-0.1973877 -0.1635437 -0.5326233 -0.087524414q-0.274292 0.062164307 -0.53060913 0.34457397q-0.25979614 0.26715088 -0.5015869 0.7545471q-0.24182129 0.48739624 -0.37353516 0.96585083q-0.13513184 0.46322632 -0.13388062 1.1037903l0.043792725 2.873932l-1.097168 0.24871826l-0.007446289 -4.548401q-0.004119873 -0.15927124 -0.024169922 -0.45913696q-0.0047912598 -0.30334473 -0.046295166 -0.48617554q-0.041534424 -0.18283081 -0.12322998 -0.260437q-0.06994629 -0.09631348 -0.21746826 -0.1109314q-0.1322937 -0.018066406 -0.4557495 0.039215088l6.1035156E-5 -0.35247803l1.4338074 -0.38909912l0.35046387 -0.07946777l-0.037719727 1.7388916l0.083099365 0.013183594q0.412323 -1.0066833 0.8944702 -1.5645752q0.48217773 -0.55789185 1.0612488 -0.68917847q0.6095276 -0.13815308 1.0091248 0.13973999q0.39611816 0.2626953 0.5449219 0.9178772q0.0519104 0.22854614 0.068481445 0.5131836q0.031799316 0.28118896 0.01928711 0.5083313l-0.021209717 2.3759766q-0.0028686523 0.48129272 0.05596924 0.7403259q0.04498291 0.19805908 0.13015747 0.29089355q0.10040283 0.089416504 0.23614502 0.12271118q0.15100098 0.029876709 0.462677 -0.008758545l0.023498535 0.3151245zm4.9830017 -2.3632202q-0.37277222 0.75738525 -0.8182068 1.1948242q-0.4302063 0.43395996 -0.99401855 0.5617676q-0.6705017 0.15200806 -1.0818787 -0.10723877q-0.41482544 -0.27444458 -0.56362915 -0.92962646q-0.08996582 -0.3961792 -0.08224487 -0.92663574l0.04498291 -3.4708252l-0.960022 0.21762085l0.003540039 -0.33724976q0.37057495 -0.13204956 0.5562134 -0.30230713q0.18566895 -0.17025757 0.2965393 -0.3876648q0.10739136 -0.23260498 0.16009521 -0.5649719q0.06448364 -0.35107422 0.11239624 -0.9867859l0.8838196 -0.2003479l0.00592041 1.6488647l2.0114746 -0.45596313l0.008178711 0.671051l-2.026703 0.45941162l-0.0524292 2.591339q-0.023742676 1.0948486 0.090423584 1.5976562q0.08996582 0.3961792 0.3025818 0.5562439q0.22784424 0.15664673 0.54785156 0.084106445q0.28952026 -0.06564331 0.5576172 -0.36672974q0.26812744 -0.30108643 0.54525757 -0.844574l0.45224 0.29803467zm3.620697 -4.409546q-0.20767212 -0.56173706 -0.5220947 -0.7468262q-0.30264282 -0.20373535 -0.8512268 -0.07940674q-0.28952026 0.06564331 -0.50912476 0.22756958q-0.21960449 0.16192627 -0.30828857 0.40634155q-0.0887146 0.24441528 -0.022949219 0.533905q0.051879883 0.22854614 0.18829346 0.4059143q0.13641357 0.17736816 0.41345215 0.3388672q0.27355957 0.14627075 0.73202515 0.330719q0.7182007 0.2697754 1.052002 0.61065674q0.33032227 0.32565308 0.44448853 0.8284912q0.13497925 0.5942383 -0.057678223 1.0865173q-0.18084717 0.47357178 -0.6352844 0.8008728q-0.44265747 0.30862427 -1.0674133 0.45025635q-0.56381226 0.12780762 -1.0722046 0.14691162q-0.48971558 0.030914307 -0.97454834 0.012634277l-0.021881104 -1.4369507l0.50286865 -0.11401367q0.17721558 0.56866455 0.51724243 0.79599q0.35525513 0.22384644 0.9190979 0.09603882q0.56381226 -0.12780762 0.80630493 -0.4711609q0.25424194 -0.36203003 0.14697266 -0.8343811q-0.062286377 -0.27426147 -0.20214844 -0.4668579q-0.13986206 -0.19259644 -0.39819336 -0.34231567q-0.24307251 -0.15316772 -0.6641846 -0.3140564q-0.47369385 -0.18099976 -0.7728882 -0.36953735q-0.29916382 -0.18850708 -0.5020752 -0.44692993q-0.20288086 -0.25842285 -0.2824707 -0.6088562q-0.11764526 -0.5180664 0.054901123 -0.95773315q0.1690979 -0.4548645 0.5964966 -0.7600403q0.43917847 -0.32385254 1.0791931 -0.4689331q1.0514526 -0.23834229 1.9061279 -0.14370728l0.008056641 1.3760071l-0.50286865 0.11401367z" fill-rule="nonzero"/><path fill="#000000" d="m206.98473 337.8019l0.50086975 -0.5461426l0.41696167 0.0016174316l0.019241333 4.5296936q-0.004928589 0.40167236 0.013046265 0.6218872q0.014511108 0.20498657 0.045639038 0.34213257q0.05883789 0.2590332 0.22366333 0.349823q0.18006897 0.087371826 0.5984192 0.02456665l0.008255005 0.318573l-1.8133698 0.41104126l0.03286743 -1.6896973l-0.07965088 0.0020446777q-0.408844 1.0219116 -0.8639984 1.5576782q-0.45515442 0.5357361 -1.064682 0.6739197q-0.7009735 0.15890503 -1.199585 -0.27279663q-0.50205994 -0.44696045 -0.7165985 -1.3916321q-0.13841248 -0.6094971 -0.13967896 -1.250061q-0.0047302246 -0.65582275 0.14498901 -1.26651q0.16496277 -0.61416626 0.46774292 -1.115387q0.29930115 -0.516449 0.7620392 -0.87768555q0.4627533 -0.36123657 1.0722809 -0.49942017q0.39619446 -0.08981323 0.7674408 -0.077819824q0.37124634 0.011962891 0.80410767 0.1541748zm-0.119506836 2.013733q-0.0131073 -0.26937866 -0.039398193 -0.45568848q-0.01449585 -0.20498657 -0.062942505 -0.41830444q-0.11419678 -0.50283813 -0.37597656 -0.66778564q-0.26522827 -0.1802063 -0.75286865 -0.06967163q-0.25904846 0.058746338 -0.48210144 0.20541382q-0.22651672 0.13146973 -0.42533875 0.38482666q-0.19883728 0.25332642 -0.35128784 0.64038086q-0.1559143 0.37179565 -0.23495483 0.8703308q-0.079055786 0.49856567 -0.06462097 1.0560608q0.029678345 0.5540161 0.14387512 1.0568237q0.14878845 0.6552124 0.39253235 0.9524231q0.25552368 0.27853394 0.6822052 0.18179321q0.19810486 -0.044891357 0.39067078 -0.18469238q0.19258118 -0.13977051 0.3997345 -0.42703247q0.20368958 -0.30252075 0.43511963 -0.8356323q0.20788574 -0.49572754 0.28207397 -0.9451294q0.070739746 -0.46463013 0.06460571 -1.0560303l-0.0013275146 -0.28808594zm4.1138763 -3.303711l0.3809662 -0.086364746l-0.085510254 1.6695862l0.07965088 -0.0020446777q0.4074402 -0.957489 0.89653015 -1.4849243q0.48564148 -0.5426636 1.0951691 -0.68084717q0.45715332 -0.10360718 0.7792206 -0.0965271l0.017044067 1.486145l-0.6552582 0.14852905q-0.12184143 -0.32485962 -0.26657104 -0.46829224q-0.14472961 -0.14343262 -0.37330627 -0.09161377q-0.24380493 0.055267334 -0.52023315 0.3902893q-0.26463318 0.3163452 -0.4960785 0.8494568q-0.2348938 0.5178528 -0.31600952 0.9367981q-0.08457947 0.40368652 -0.07220459 0.88150024l0.043792725 2.873932l-1.0971527 0.24871826l-0.007461548 -4.548401q-0.01651001 -0.6371155 -0.08570862 -0.941864q-0.041534424 -0.18283081 -0.12324524 -0.260437q-0.06993103 -0.09628296 -0.21746826 -0.1109314q-0.13227844 -0.018066406 -0.44050598 0.03579712l6.1035156E-5 -0.35250854l1.4642792 -0.3959961zm6.642502 5.046997q-0.9752655 0.22109985 -1.648407 -0.20309448q-0.6579132 -0.42764282 -0.893219 -1.4637451q-0.086502075 -0.3809204 -0.112716675 -0.91970825q-0.030349731 -0.6980591 0.06880188 -1.2492371q0.14073181 -0.7208252 0.47883606 -1.2781372q0.34988403 -0.57595825 0.87358093 -0.9510193q0.5236969 -0.37506104 1.1941833 -0.5270386q0.7314453 -0.165802 1.2543335 0.020050049q0.5346832 0.16720581 0.84350586 0.6098633q0.32060242 0.42401123 0.46247864 1.048706q0.1280365 0.56378174 0.12097168 1.2382812q-0.014038086 0.996521 -0.30715942 1.7518616q-0.29312134 0.7553711 -0.87223816 1.2391357q-0.5791321 0.48373413 -1.4629517 0.68408203zm-1.3821716 -1.6412964q0.15570068 0.68566895 0.5213623 0.95526123q0.36566162 0.2695923 0.95996094 0.13485718q0.6095276 -0.13815308 0.97257996 -0.7972412q0.35960388 -0.6742859 0.40551758 -1.7421265q0.045913696 -1.06781 -0.12710571 -1.8296814q-0.15570068 -0.68566895 -0.5095825 -0.973938q-0.3386383 -0.29171753 -0.9024658 -0.16390991q-0.6552429 0.14852905 -1.0148468 0.82284546q-0.36305237 0.6590576 -0.4172821 1.7608032q-0.05769348 1.0865173 0.11186218 1.8331299zm4.9535217 -5.6569214l1.9962311 -0.45251465l-0.07406616 3.41333q-0.01184082 0.3711548 -0.008453369 0.7388916q0.018630981 0.3642578 0.08784485 0.66900635q0.1003418 0.441864 0.29771423 0.6054077q0.21260071 0.16009521 0.54785156 0.084106445q0.25904846 -0.058746338 0.53060913 -0.3446045q0.27156067 -0.28585815 0.521698 -0.8071594q0.2619171 -0.54000854 0.37005615 -0.9810791q0.12336731 -0.44454956 0.10546875 -1.0172424l-0.04725647 -2.8891602l1.097168 -0.24871826l0.02268982 4.544922q-0.004180908 0.19320679 0.012374878 0.47784424q0.016571045 0.28463745 0.05810547 0.46746826q0.05882263 0.2590332 0.22364807 0.34985352q0.17660522 0.07211304 0.59495544 0.009307861l-0.0069732666 0.32202148l-1.8133698 0.41107178l0.048095703 -1.6931763l-0.07965088 0.0020446777q-0.427536 1.0101318 -0.9096985 1.5680237q-0.4669342 0.5544739 -1.0612335 0.68917847q-0.60954285 0.1381836 -1.0056763 -0.12451172q-0.3995819 -0.27789307 -0.5518341 -0.94833374q-0.041519165 -0.18283081 -0.069869995 -0.4487915q-0.0131073 -0.26937866 -0.014450073 -0.5574646l0.021224976 -2.3759766q-0.0013275146 -0.28808594 -0.024154663 -0.45913696q-0.007583618 -0.17453003 -0.03526306 -0.29641724q-0.062286377 -0.27426147 -0.2388916 -0.34640503q-0.18006897 -0.08734131 -0.5831909 -0.028015137l-0.011703491 -0.33377075zm13.346756 3.3510132l-1.9962311 0.45251465l0.05882263 -3.4098816q0.0069885254 -0.32199097 1.373291E-4 -0.70495605q-0.010314941 -0.39819336 -0.07952881 -0.7029419q-0.1003418 -0.441864 -0.29771423 -0.6054077q-0.19735718 -0.1635437 -0.53260803 -0.08755493q-0.274292 0.062194824 -0.53060913 0.34457397q-0.25979614 0.2671814 -0.5016022 0.75457764q-0.24182129 0.48739624 -0.37350464 0.96585083q-0.13516235 0.4631958 -0.13389587 1.1037903l0.043792725 2.8739014l-1.097168 0.24871826l-0.007446289 -4.548401q-0.004135132 -0.15927124 -0.024154663 -0.45913696q-0.0048065186 -0.3033142 -0.046325684 -0.48614502q-0.041519165 -0.18286133 -0.12322998 -0.26046753q-0.06994629 -0.09628296 -0.21746826 -0.11090088q-0.1322937 -0.018096924 -0.4557495 0.039215088l6.1035156E-5 -0.35247803l1.4338074 -0.38912964l0.35047913 -0.079437256l-0.037719727 1.7388611l0.083114624 0.013214111q0.41229248 -1.0066833 0.8944702 -1.5645752q0.48216248 -0.55792236 1.0612183 -0.68917847q0.60954285 -0.1381836 1.00914 0.13973999q0.39611816 0.2626648 0.5449219 0.9178772q0.05189514 0.22854614 0.06846619 0.5131836q0.031814575 0.28115845 0.019302368 0.5083008l-0.021224976 2.3759766q-0.0028533936 0.48129272 0.05596924 0.7403259q0.04498291 0.1980896 0.13015747 0.29092407q0.10040283 0.08938599 0.23616028 0.12271118q0.15098572 0.029846191 0.462677 -0.008758545l0.023483276 0.315094zm4.8297424 -8.753052q0.012512207 -0.22714233 -0.012374878 -0.47784424q-0.0131073 -0.26937866 -0.05809021 -0.46746826q-0.041519165 -0.18286133 -0.13847351 -0.25698853q-0.08517456 -0.09286499 -0.23269653 -0.10748291q-0.14753723 -0.01461792 -0.48623657 0.046142578l6.1035156E-5 -0.35247803l1.5861969 -0.42364502l0.36572266 -0.08291626l0.030410767 7.68338q-0.0014648438 0.41690063 0.013046265 0.6218872q0.014511108 0.20498657 0.045654297 0.34213257q0.05882263 0.2590332 0.22364807 0.349823q0.18006897 0.087371826 0.5984192 0.02456665l0.008255005 0.31854248l-1.8133698 0.41107178l0.03286743 -1.6896973l-0.07965088 0.0020446777q-0.40882874 1.0219116 -0.86398315 1.5576782q-0.45515442 0.5357361 -1.0646973 0.6739197q-0.70095825 0.15890503 -1.1995697 -0.27279663q-0.5020752 -0.44696045 -0.71661377 -1.3916626q-0.13841248 -0.60946655 -0.13967896 -1.2500305q-0.004714966 -0.65582275 0.14500427 -1.2665405q0.16496277 -0.61413574 0.46772766 -1.1153564q0.2993164 -0.516449 0.76205444 -0.87768555q0.46273804 -0.36123657 1.0722809 -0.49942017q0.38095093 -0.086364746 0.7182617 -0.08270264q0.35253906 1.8310547E-4 0.74801636 0.11880493l-0.012191772 -1.5352783zm-0.0020446777 3.589264q-0.012390137 -0.47784424 -0.10235596 -0.8739929q-0.11418152 -0.50283813 -0.3759613 -0.66778564q-0.26524353 -0.1802063 -0.75286865 -0.06967163q-0.25906372 0.05871582 -0.4821167 0.20541382q-0.22650146 0.13146973 -0.42533875 0.38482666q-0.19882202 0.25332642 -0.35127258 0.64035034q-0.1559143 0.37179565 -0.2349701 0.8703613q-0.079055786 0.49856567 -0.06460571 1.0560608q0.029678345 0.5540161 0.14385986 1.0568237q0.14878845 0.6552124 0.3925476 0.9524231q0.25552368 0.27853394 0.68218994 0.18179321q0.19810486 -0.044891357 0.39068604 -0.18469238q0.19256592 -0.13977051 0.39971924 -0.427063q0.20368958 -0.30249023 0.43511963 -0.8356018q0.20788574 -0.49572754 0.28207397 -0.9451294q0.070739746 -0.46463013 0.06462097 -1.0560303l-0.0013275146 -0.28808594zm10.508316 -4.3687134q-0.9367218 1.5901794 -1.9835815 3.1893005l0.9091797 1.2518616q0.3531494 0.4967041 0.5525818 0.73986816q0.19596863 0.22796631 0.33032227 0.3256836q0.14613342 0.07901001 0.26663208 0.11578369q0.13575745 0.033325195 0.40171814 0.005065918l-0.0069732666 0.32202148l-1.5847931 0.3592224l-1.4617004 -2.3442383q-0.124694824 0.15646362 -0.31314087 0.45550537q-0.1884613 0.29907227 -0.36997986 0.6286011q-0.16975403 0.31085205 -0.23835754 0.5026245q-0.053375244 0.18835449 -0.056167603 0.31713867q-0.0062561035 0.113586426 0.024887085 0.2507019q0.03807068 0.16760254 0.1502533 0.23831177q0.12742615 0.067230225 0.3511505 0.06460571l0.008255005 0.31854248l-1.8133698 0.41107178l-0.19111633 -0.2770996q1.0475922 -1.8075867 2.1013641 -3.3762207l-0.9161072 -1.2823486q-0.27973938 -0.38516235 -0.45355225 -0.5860901q-0.15856934 -0.20437622 -0.29292297 -0.3020935q-0.13435364 -0.097717285 -0.28533936 -0.127594q-0.15444946 -0.045074463 -0.41696167 -0.0015869141l0.0069885254 -0.32202148l1.5847931 -0.35925293l1.3813782 2.20224q0.2542572 -0.36206055 0.45933533 -0.7289734q0.20509338 -0.36691284 0.2736969 -0.5587158q0.0803833 -0.21044922 0.094955444 -0.3579712q0.011108398 -0.16271973 -0.023483276 -0.315094q-0.0761261 -0.33520508 -0.5014038 -0.30288696l0.0069885254 -0.32202148l1.8133545 -0.41107178l0.19111633 0.27713013zm2.4532623 3.9458923q0.05189514 0.22854614 0.07885742 0.5588989q0.026947021 0.33035278 0.0012664795 0.64056396q-0.0256958 0.3102417 -0.09915161 0.551178q-0.070007324 0.25619507 -0.21620178 0.5296631q-0.12750244 0.2852478 -0.40045166 0.63549805q-0.25427246 0.36206055 -0.6844635 0.7960205l-0.39474487 -0.3270874q0.2494049 -0.3128662 0.37550354 -0.5337219q0.12609863 -0.2208252 0.19125366 -0.42785645q0.0803833 -0.21047974 0.10121155 -0.47155762q0.03605652 -0.26449585 0.02368164 -0.7423401q0.0028686523 -0.48129272 -0.058685303 -0.96398926l1.0819244 -0.24526978zm4.252899 -4.3285522q-0.1716919 -0.4737854 -0.27416992 -0.64279175q-0.10592651 -0.18426514 -0.24859619 -0.2480774q-0.14613342 -0.07901001 -0.43911743 -0.028625488l0.0069885254 -0.32199097l1.6304932 -0.3696289l1.6177673 4.936371q1.4842224 -3.4125671 1.193573 -4.6924744q-0.06576538 -0.28948975 -0.22711182 -0.36505127q-0.14959717 -0.0942688 -0.4578247 -0.04043579l0.0069885254 -0.32199097l1.6304932 -0.3696289l0.24029541 0.28198242q-0.134552 0.9597473 -0.45333862 2.0253296q-0.30358887 1.0621643 -0.80944824 2.3623962q-0.4940796 1.2815857 -1.1467896 2.7112427q-0.50512695 1.0918274 -0.8702698 1.6712646q-0.2979126 0.45202637 -0.5763855 0.707428q-0.26324463 0.2519226 -0.5354614 0.3937378q-0.2840271 0.16052246 -0.6040344 0.23306274q-0.18283081 0.04144287 -0.40657043 0.0440979q-0.22024536 0.0178833 -0.38301086 0.006713867l0.0043792725 -1.2506714l0.48764038 -0.11053467q0.06367493 0.20986938 0.18278503 0.31103516q0.11911011 0.10116577 0.30197144 0.0597229q0.21334839 -0.04837036 0.35534668 -0.12863159q0.1302185 -0.061553955 0.26184082 -0.18753052q0.1468811 -0.12939453 0.32699585 -0.39453125q0.19537354 -0.2685852 0.40530396 -0.6846924q0.21340942 -0.4008484 0.4684143 -0.9713135l-1.689148 -4.6157837zm6.6698303 1.8525391q0.0519104 0.22857666 0.07885742 0.5588989q0.026947021 0.33035278 0.0012817383 0.64056396q-0.0256958 0.3102417 -0.09915161 0.551178q-0.070007324 0.25619507 -0.21621704 0.5296631q-0.12747192 0.2852478 -0.40045166 0.63549805q-0.25424194 0.36206055 -0.68444824 0.7960205l-0.39474487 -0.3270874q0.24942017 -0.3128662 0.3755188 -0.5337219q0.12609863 -0.2208252 0.19122314 -0.42785645q0.0803833 -0.21047974 0.10122681 -0.4715271q0.036071777 -0.26452637 0.02368164 -0.7423706q0.0028686523 -0.48129272 -0.058685303 -0.96398926l1.0819092 -0.24526978zm8.796143 -2.3143616l0.023895264 1.8690796l-4.6019897 1.0432129l-0.19110107 -0.2770996l2.5643005 -4.794922q0.5411072 -1.0038452 0.80856323 -1.4490051l-0.052642822 -0.020111084l-1.4781189 0.335083q-0.3352356 0.07598877 -0.4772644 0.15625q-0.14544678 0.06500244 -0.2701416 0.22146606q-0.12817383 0.14117432 -0.25912476 0.41119385q-0.11917114 0.25131226 -0.24255371 0.6958313l-0.56381226 0.12780762l0.0037841797 -1.7471924l4.510559 -1.0224609l0.19458008 0.29232788l-3.3797913 6.21344l0.040863037 0.03878784l1.4324036 -0.3246765q0.38095093 -0.086364746 0.57214355 -0.16174316q0.2029419 -0.09408569 0.33111572 -0.23529053q0.124694824 -0.1564331 0.22518921 -0.41952515q0.11224365 -0.28179932 0.24533081 -0.824646l0.56381226 -0.12780762z" fill-rule="nonzero"/><path fill="#000000" fill-opacity="0.0" d="m217.13768 298.77405l-123.49606 30.992126" fill-rule="evenodd"/><path stroke="#999999" stroke-width="1.0" stroke-linejoin="round" stroke-linecap="butt" stroke-dasharray="4.0,3.0" d="m217.13768 298.77405l-123.49606 30.992126" fill-rule="evenodd"/><path fill="#000000" fill-opacity="0.0" d="m495.32928 49.868526l-102.23624 184.47244" fill-rule="evenodd"/><path stroke="#cccccc" stroke-width="1.0" stroke-linejoin="round" stroke-linecap="butt" d="m495.32928 49.868526l-102.23624 184.47244" fill-rule="evenodd"/><path fill="#000000" fill-opacity="0.0" d="m379.68622 237.88165l13.385834 -3.5590515" fill-rule="evenodd"/><path stroke="#cccccc" stroke-width="1.0" stroke-linejoin="round" stroke-linecap="butt" d="m379.68622 237.88165l13.385834 -3.5590515" fill-rule="evenodd"/><path fill="#000000" fill-opacity="0.0" d="m410.26105 247.8974l-17.322845 -13.574799" fill-rule="evenodd"/><path stroke="#cccccc" stroke-width="1.0" stroke-linejoin="round" stroke-linecap="butt" d="m410.26105 247.8974l-17.322845 -13.574799" fill-rule="evenodd"/><path fill="#000000" fill-opacity="0.0" d="m331.63635 170.77403l-20.503937 37.00789" fill-rule="evenodd"/><path stroke="#cccccc" stroke-width="1.0" stroke-linejoin="round" stroke-linecap="butt" d="m331.63635 170.77403l-20.503937 37.00789" fill-rule="evenodd"/><path fill="#000000" fill-opacity="0.0" d="m284.51038 216.64806l27.055115 -9.32283" fill-rule="evenodd"/><path stroke="#cccccc" stroke-width="1.0" stroke-linejoin="round" stroke-linecap="butt" d="m284.51038 216.64806l27.055115 -9.32283" fill-rule="evenodd"/><path fill="#000000" fill-opacity="0.0" d="m311.8857 207.08638l153.07086 135.11812" fill-rule="evenodd"/><path stroke="#cccccc" stroke-width="1.0" stroke-linejoin="round" stroke-linecap="butt" d="m311.8857 207.08638l153.07086 135.11812" fill-rule="evenodd"/><path fill="#b7b7b7" fill-opacity="0.3408" d="m303.91196 180.63132l-19.992126 36.186356l152.8399 136.13911l20.24408 -36.692932z" fill-rule="evenodd"/><path stroke="#b7b7b7" stroke-width="1.0" stroke-linejoin="round" stroke-linecap="butt" d="m303.91196 180.63132l-19.992126 36.186356l152.8399 136.13911l20.24408 -36.692932z" fill-rule="evenodd"/><path fill="#b7b7b7" fill-opacity="0.3408" d="m303.65738 180.63132l28.595795 -9.868759l153.09186 135.12862l-28.341217 10.372681z" fill-rule="evenodd"/><path stroke="#b7b7b7" stroke-width="1.0" stroke-linejoin="round" stroke-linecap="butt" d="m303.65738 180.63132l28.595795 -9.868759l153.09186 135.12862l-28.341217 10.372681z" fill-rule="evenodd"/><path fill="#b7b7b7" fill-opacity="0.3408" d="m436.7602 352.4499l27.77353 -9.113159l20.574097 -37.193604l-27.517456 10.3446045z" fill-rule="evenodd"/><path stroke="#b7b7b7" stroke-width="1.0" stroke-linejoin="round" stroke-linecap="butt" d="m436.7602 352.4499l27.77353 -9.113159l20.574097 -37.193604l-27.517456 10.3446045z" fill-rule="evenodd"/><path fill="#b7b7b7" fill-opacity="0.3408" d="m480.53598 53.728764l17.45932 14.929134l14.425171 -3.7952728l-17.461914 -15.435699z" fill-rule="evenodd"/><path stroke="#b7b7b7" stroke-width="1.0" stroke-linejoin="round" stroke-linecap="butt" d="m480.53598 53.728764l17.45932 14.929134l14.425171 -3.7952728l-17.461914 -15.435699z" fill-rule="evenodd"/><path fill="#b7b7b7" fill-opacity="0.3408" d="m480.28137 54.235325l-101.724396 184.46982l17.461945 14.67717l102.48294 -185.23097z" fill-rule="evenodd"/><path stroke="#b7b7b7" stroke-width="1.0" stroke-linejoin="round" stroke-linecap="butt" d="m480.28137 54.235325l-101.724396 184.46982l17.461945 14.67717l102.48294 -185.23097z" fill-rule="evenodd"/><path fill="#b7b7b7" fill-opacity="0.3408" d="m511.9162 65.11459l-102.172 184.97052l-13.979889 3.2975922l102.93387 -185.47583z" fill-rule="evenodd"/><path stroke="#b7b7b7" stroke-width="1.0" stroke-linejoin="round" stroke-linecap="butt" d="m511.9162 65.11459l-102.172 184.97052l-13.979889 3.2975922l102.93387 -185.47583z" fill-rule="evenodd"/><path fill="#000000" fill-opacity="0.0" d="m348.34076 217.56303l76.66141 0l0 45.259842l-76.66141 0z" fill-rule="evenodd"/><path fill="#000000" d="m363.45013 232.82428l-0.109375 0.515625q-0.4375 0.046875 -0.671875 0.265625q-0.21875 0.203125 -0.21875 0.65625q0 0.625 0.28125 1.65625l1.109375 3.921875l2.5625 -3.421875q0.578125 -0.75 0.828125 -1.1875q0.25 -0.4375 0.359375 -0.765625q0.078125 -0.25 0.078125 -0.484375q0 -0.28125 -0.203125 -0.4375q-0.1875 -0.15625 -0.5625 -0.203125l0.109375 -0.515625l3.90625 0l-0.109375 0.515625q-0.25 0.046875 -0.4375 0.15625q-0.1875 0.09375 -0.421875 0.3125q-0.234375 0.21875 -0.640625 0.703125q-0.390625 0.484375 -1.015625 1.296875l-4.046875 5.25l-0.640625 2.953125q-0.09375 0.421875 -0.140625 0.65625q-0.03125 0.234375 -0.0625 0.5q-0.015625 0.265625 -0.015625 0.46875q0 0.328125 0.09375 0.515625q0.109375 0.171875 0.3125 0.265625q0.21875 0.078125 0.71875 0.109375l-0.109375 0.515625l-4.390625 0l0.125 -0.515625q0.40625 -0.0625 0.609375 -0.15625q0.203125 -0.109375 0.34375 -0.328125q0.15625 -0.21875 0.296875 -0.6875q0.15625 -0.46875 0.375 -1.421875l0.609375 -2.875l-1.515625 -5.25q-0.34375 -1.203125 -0.546875 -1.625q-0.1875 -0.4375 -0.421875 -0.609375q-0.21875 -0.1875 -0.578125 -0.234375l0.109375 -0.515625l4.03125 0z" fill-rule="nonzero"/><path fill="#000000" d="m374.8379 245.44928q0.859375 0 1.484375 0.34375q0.625 0.328125 0.96875 1.015625q0.34375 0.671875 0.34375 1.671875q0 1.078125 -0.375 2.421875q-0.375 1.34375 -1.078125 2.328125q-0.6875 0.984375 -1.59375 1.46875q-0.890625 0.46875 -1.859375 0.46875q-0.96875 0 -1.609375 -0.375q-0.640625 -0.375 -0.9375 -1.046875q-0.296875 -0.671875 -0.296875 -1.578125q0 -0.890625 0.25 -1.984375q0.265625 -1.09375 0.703125 -1.96875q0.4375 -0.890625 1.046875 -1.5q0.609375 -0.625 1.359375 -0.9375q0.75 -0.328125 1.59375 -0.328125zm1.46875 2.734375q0 -2.125 -1.546875 -2.125q-0.375 0 -0.703125 0.125q-0.390625 0.15625 -0.75 0.453125q-0.390625 0.34375 -0.734375 0.875q-0.40625 0.625 -0.703125 1.421875q-0.3125 0.828125 -0.5 1.796875q-0.171875 0.921875 -0.171875 1.671875q0 1.078125 0.390625 1.609375q0.390625 0.53125 1.171875 0.53125q0.625 0 1.1875 -0.375q0.6875 -0.46875 1.25 -1.484375q0.59375 -1.078125 0.921875 -2.65625q0.1875 -0.921875 0.1875 -1.84375z" fill-rule="nonzero"/><path fill="#000000" fill-opacity="0.0" d="m419.5701 189.57193l76.66144 0l0 77.5748l-76.66144 0z" fill-rule="evenodd"/><path fill="#000000" d="m434.67947 204.83318l-0.109375 0.515625q-0.4375 0.046875 -0.671875 0.265625q-0.21875 0.203125 -0.21875 0.65625q0 0.625 0.28125 1.65625l1.109375 3.921875l2.5625 -3.421875q0.578125 -0.75 0.828125 -1.1875q0.25 -0.4375 0.359375 -0.765625q0.078125 -0.25 0.078125 -0.484375q0 -0.28125 -0.203125 -0.4375q-0.1875 -0.15625 -0.5625 -0.203125l0.109375 -0.515625l3.90625 0l-0.109375 0.515625q-0.25 0.046875 -0.4375 0.15625q-0.1875 0.09375 -0.421875 0.3125q-0.234375 0.21875 -0.640625 0.703125q-0.390625 0.484375 -1.015625 1.296875l-4.046875 5.25l-0.640625 2.953125q-0.09375 0.421875 -0.140625 0.65625q-0.03125 0.234375 -0.0625 0.5q-0.015625 0.265625 -0.015625 0.46875q0 0.328125 0.09375 0.515625q0.109375 0.171875 0.3125 0.265625q0.21875 0.078125 0.71875 0.109375l-0.109375 0.515625l-4.390625 0l0.125 -0.515625q0.40625 -0.0625 0.609375 -0.15625q0.203125 -0.109375 0.34375 -0.328125q0.15625 -0.21875 0.296875 -0.6875q0.15625 -0.46875 0.375 -1.421875l0.609375 -2.875l-1.515625 -5.25q-0.34375 -1.203125 -0.546875 -1.625q-0.1875 -0.4375 -0.421875 -0.609375q-0.21875 -0.1875 -0.578125 -0.234375l0.109375 -0.515625l4.03125 0z" fill-rule="nonzero"/><path fill="#000000" d="m445.36414 222.08318q-0.015625 -0.53125 -0.09375 -0.765625q-0.078125 -0.234375 -0.25 -0.34375q-0.15625 -0.125 -0.453125 -0.125q-0.703125 0 -1.265625 0.5625q-0.546875 0.546875 -0.90625 1.578125q-0.34375 1.015625 -0.34375 1.96875q0 0.28125 0.046875 0.546875q0.046875 0.25 0.171875 0.4375q0.140625 0.1875 0.34375 0.296875q0.21875 0.109375 0.546875 0.109375q0.625 0 1.078125 -0.234375q0.46875 -0.25 0.984375 -0.75l0.421875 0.421875q-0.65625 0.71875 -1.3125 1.0625q-0.65625 0.328125 -1.421875 0.328125q-1.015625 0 -1.53125 -0.59375q-0.515625 -0.609375 -0.515625 -1.75q0 -0.734375 0.265625 -1.625q0.28125 -0.890625 0.8125 -1.5625q0.546875 -0.671875 1.25 -1.0q0.71875 -0.34375 1.53125 -0.34375q0.5625 0 0.96875 0.0625q0.421875 0.0625 0.734375 0.140625l-0.34375 1.578125l-0.71875 0zm7.7049866 -0.3125l0 0.109375q0 0.046875 0 0.09375q0.59375 -0.84375 1.1875 -1.25q0.609375 -0.421875 1.25 -0.421875q0.65625 0 1.0 0.375q0.34375 0.375 0.34375 1.09375q0 0.453125 -0.140625 1.078125l-0.578125 2.46875q-0.125 0.5 -0.125 0.796875q0 0.203125 0.0625 0.328125q0.078125 0.109375 0.21875 0.171875q0.15625 0.0625 0.484375 0.09375l-0.0625 0.34375l-2.1875 0l0.875 -3.53125q0.109375 -0.375 0.171875 -0.765625q0.078125 -0.390625 0.078125 -0.71875q0 -0.5 -0.171875 -0.703125q-0.171875 -0.21875 -0.546875 -0.21875q-0.28125 0 -0.625 0.234375q-0.328125 0.21875 -0.703125 0.671875q-0.359375 0.453125 -0.59375 0.90625q-0.234375 0.453125 -0.359375 1.09375l-0.640625 3.03125l-1.203125 0l0.796875 -3.53125q0.15625 -0.640625 0.203125 -0.953125q0.046875 -0.3125 0.046875 -0.53125q0 -0.5 -0.171875 -0.703125q-0.171875 -0.21875 -0.546875 -0.21875q-0.28125 0 -0.625 0.234375q-0.328125 0.21875 -0.703125 0.6875q-0.375 0.46875 -0.609375 0.9375q-0.21875 0.453125 -0.34375 1.078125l-0.625 3.0l-1.203125 0l1.046875 -4.734375q0.03125 -0.171875 0.09375 -0.484375q0.0625 -0.3125 0.0625 -0.515625q0 -0.1875 -0.0625 -0.296875q-0.0625 -0.109375 -0.203125 -0.15625q-0.140625 -0.0625 -0.484375 -0.078125l0.09375 -0.375l1.578125 -0.0625l0.390625 0l-0.453125 1.796875l0.078125 0.03125q0.640625 -0.953125 1.265625 -1.40625q0.640625 -0.46875 1.28125 -0.46875q0.671875 0 1.015625 0.390625q0.34375 0.375 0.34375 1.078125z" fill-rule="nonzero"/><path fill="#000000" fill-opacity="0.0" d="m538.54285 157.36018l76.66138 0l0 77.5748l-76.66138 0z" fill-rule="evenodd"/><path fill="#000000" d="m557.4647 169.3558l-0.078125 0.34375q-0.265625 0.0625 -0.390625 0.140625q-0.109375 0.0625 -0.203125 0.203125q-0.09375 0.125 -0.1875 0.421875q-0.09375 0.296875 -0.234375 0.96875l-1.640625 7.40625l-0.9375 0l-2.03125 -5.953125q-0.359375 -1.078125 -0.640625 -2.140625l-0.09375 0q-0.046875 0.359375 -0.234375 1.359375q-0.1875 1.0 -0.390625 1.9375l-0.609375 2.78125q-0.0625 0.28125 -0.109375 0.5625q-0.03125 0.265625 -0.03125 0.515625q0 0.3125 0.15625 0.4375q0.15625 0.125 0.515625 0.15625l-0.078125 0.34375l-2.421875 0l0.078125 -0.34375q0.265625 -0.03125 0.390625 -0.125q0.125 -0.09375 0.21875 -0.265625q0.09375 -0.171875 0.171875 -0.40625q0.078125 -0.234375 0.234375 -0.921875l1.171875 -5.359375q0.078125 -0.296875 0.109375 -0.5625q0.046875 -0.265625 0.046875 -0.546875q0 -0.328125 -0.171875 -0.453125q-0.15625 -0.125 -0.515625 -0.15625l0.078125 -0.34375l2.21875 0l1.828125 5.421875q0.40625 1.15625 0.609375 1.96875l0.078125 0q0.0625 -0.421875 0.25 -1.40625q0.203125 -0.984375 0.375 -1.734375l0.484375 -2.1875q0.046875 -0.21875 0.09375 -0.53125q0.0625 -0.3125 0.0625 -0.578125q0 -0.328125 -0.171875 -0.453125q-0.171875 -0.125 -0.515625 -0.15625l0.078125 -0.34375l2.4375 0z" fill-rule="nonzero"/><path fill="#000000" d="m568.4414 183.80893q-0.140625 0.609375 -0.1875 0.96875q-0.03125 0.359375 -0.03125 0.65625q0 0.46875 0.234375 0.671875q0.234375 0.1875 0.78125 0.21875l-0.109375 0.515625l-4.15625 0l0.109375 -0.515625q0.390625 -0.0625 0.59375 -0.203125q0.203125 -0.140625 0.328125 -0.390625q0.140625 -0.25 0.25 -0.609375q0.125 -0.359375 0.34375 -1.390625l0.859375 -3.859375l-5.59375 0l-0.859375 3.9375q-0.09375 0.390625 -0.140625 0.640625q-0.046875 0.234375 -0.0625 0.46875q-0.015625 0.234375 -0.015625 0.515625q0 0.453125 0.203125 0.65625q0.203125 0.1875 0.8125 0.234375l-0.109375 0.515625l-4.171875 0l0.109375 -0.515625q0.40625 -0.0625 0.59375 -0.203125q0.203125 -0.140625 0.328125 -0.390625q0.140625 -0.25 0.25 -0.609375q0.125 -0.359375 0.359375 -1.390625l1.765625 -8.015625q0.09375 -0.421875 0.15625 -0.90625q0.078125 -0.484375 0.078125 -0.765625q0 -0.484375 -0.25 -0.671875q-0.25 -0.203125 -0.78125 -0.234375l0.125 -0.515625l4.15625 0l-0.109375 0.515625q-0.390625 0.078125 -0.5625 0.1875q-0.171875 0.109375 -0.3125 0.3125q-0.140625 0.203125 -0.28125 0.65625q-0.140625 0.4375 -0.359375 1.4375l-0.71875 3.1875l5.59375 0l0.703125 -3.203125q0.09375 -0.421875 0.15625 -0.90625q0.078125 -0.484375 0.078125 -0.765625q0 -0.484375 -0.25 -0.671875q-0.25 -0.203125 -0.765625 -0.234375l0.109375 -0.515625l4.171875 0l-0.125 0.515625q-0.34375 0.078125 -0.5 0.15625q-0.140625 0.078125 -0.265625 0.203125q-0.109375 0.125 -0.21875 0.359375q-0.109375 0.234375 -0.234375 0.6875q-0.125 0.453125 -0.296875 1.1875l-1.78125 8.078125z" fill-rule="nonzero"/><path fill="#000000" d="m575.4275 169.3558l-0.078125 0.34375q-0.296875 0.03125 -0.453125 0.171875q-0.140625 0.140625 -0.140625 0.4375q0 0.421875 0.1875 1.109375l0.734375 2.625l1.71875 -2.28125q0.375 -0.515625 0.546875 -0.796875q0.171875 -0.296875 0.234375 -0.515625q0.0625 -0.15625 0.0625 -0.3125q0 -0.203125 -0.140625 -0.296875q-0.125 -0.109375 -0.375 -0.140625l0.078125 -0.34375l2.59375 0l-0.0625 0.34375q-0.171875 0.03125 -0.296875 0.109375q-0.125 0.0625 -0.28125 0.21875q-0.15625 0.140625 -0.421875 0.46875q-0.265625 0.3125 -0.6875 0.859375l-2.6875 3.5l-0.4375 1.96875q-0.0625 0.265625 -0.09375 0.421875q-0.015625 0.15625 -0.03125 0.34375q-0.015625 0.171875 -0.015625 0.3125q0 0.21875 0.0625 0.34375q0.078125 0.109375 0.203125 0.171875q0.140625 0.046875 0.484375 0.078125l-0.078125 0.34375l-2.921875 0l0.078125 -0.34375q0.28125 -0.03125 0.40625 -0.09375q0.140625 -0.078125 0.234375 -0.21875q0.109375 -0.15625 0.203125 -0.46875q0.109375 -0.3125 0.234375 -0.9375l0.421875 -1.921875l-1.015625 -3.5q-0.21875 -0.8125 -0.359375 -1.09375q-0.125 -0.28125 -0.28125 -0.40625q-0.140625 -0.125 -0.390625 -0.15625l0.078125 -0.34375l2.6875 0zm11.336548 -0.453125l-7.453125 12.921875l-1.109375 0l7.46875 -12.921875l1.09375 0zm3.076355 0.453125l-0.078125 0.34375q-0.296875 0.03125 -0.453125 0.171875q-0.140625 0.140625 -0.140625 0.4375q0 0.421875 0.1875 1.109375l0.734375 2.625l1.71875 -2.28125q0.375 -0.515625 0.546875 -0.796875q0.171875 -0.296875 0.234375 -0.515625q0.0625 -0.15625 0.0625 -0.3125q0 -0.203125 -0.140625 -0.296875q-0.125 -0.109375 -0.375 -0.140625l0.078125 -0.34375l2.59375 0l-0.0625 0.34375q-0.171875 0.03125 -0.296875 0.109375q-0.125 0.0625 -0.28125 0.21875q-0.15625 0.140625 -0.421875 0.46875q-0.265625 0.3125 -0.6875 0.859375l-2.6875 3.5l-0.4375 1.96875q-0.0625 0.265625 -0.09375 0.421875q-0.015625 0.15625 -0.03125 0.34375q-0.015625 0.171875 -0.015625 0.3125q0 0.21875 0.0625 0.34375q0.078125 0.109375 0.203125 0.171875q0.140625 0.046875 0.484375 0.078125l-0.078125 0.34375l-2.921875 0l0.078125 -0.34375q0.28125 -0.03125 0.40625 -0.09375q0.140625 -0.078125 0.234375 -0.21875q0.109375 -0.15625 0.203125 -0.46875q0.109375 -0.3125 0.234375 -0.9375l0.421875 -1.921875l-1.015625 -3.5q-0.21875 -0.8125 -0.359375 -1.09375q-0.125 -0.28125 -0.28125 -0.40625q-0.140625 -0.125 -0.390625 -0.15625l0.078125 -0.34375l2.6875 0z" fill-rule="nonzero"/><path fill="#000000" d="m596.73944 178.7308q-0.015625 -0.328125 -0.0625 -0.46875q-0.046875 -0.15625 -0.15625 -0.21875q-0.09375 -0.078125 -0.265625 -0.078125q-0.453125 0 -0.796875 0.359375q-0.34375 0.34375 -0.5625 0.984375q-0.21875 0.640625 -0.21875 1.21875q0 0.1875 0.03125 0.34375q0.03125 0.15625 0.109375 0.28125q0.078125 0.109375 0.203125 0.1875q0.140625 0.0625 0.34375 0.0625q0.390625 0 0.671875 -0.140625q0.296875 -0.15625 0.625 -0.484375l0.25 0.265625q-0.40625 0.453125 -0.828125 0.671875q-0.40625 0.203125 -0.875 0.203125q-0.625 0 -0.953125 -0.375q-0.328125 -0.375 -0.328125 -1.078125q0 -0.46875 0.171875 -1.015625q0.171875 -0.5625 0.5 -0.984375q0.34375 -0.421875 0.78125 -0.625q0.453125 -0.21875 0.96875 -0.21875q0.34375 0 0.59375 0.046875q0.265625 0.03125 0.46875 0.09375l-0.21875 0.96875l-0.453125 0zm4.8125 -0.1875l0 0.0625q0 0.03125 0 0.0625q0.375 -0.53125 0.75 -0.78125q0.375 -0.265625 0.765625 -0.265625q0.40625 0 0.625 0.234375q0.21875 0.234375 0.21875 0.6875q0 0.28125 -0.09375 0.671875l-0.359375 1.546875q-0.078125 0.3125 -0.078125 0.484375q0 0.140625 0.046875 0.21875q0.046875 0.0625 0.125 0.109375q0.09375 0.03125 0.3125 0.046875l-0.046875 0.21875l-1.359375 0l0.546875 -2.203125q0.0625 -0.234375 0.109375 -0.46875q0.046875 -0.25 0.046875 -0.453125q0 -0.3125 -0.109375 -0.4375q-0.109375 -0.140625 -0.34375 -0.140625q-0.171875 0 -0.390625 0.140625q-0.203125 0.140625 -0.4375 0.421875q-0.21875 0.28125 -0.375 0.5625q-0.140625 0.28125 -0.21875 0.6875l-0.390625 1.890625l-0.75 0l0.484375 -2.203125q0.09375 -0.40625 0.125 -0.59375q0.03125 -0.1875 0.03125 -0.328125q0 -0.3125 -0.109375 -0.4375q-0.109375 -0.140625 -0.34375 -0.140625q-0.171875 0 -0.390625 0.140625q-0.203125 0.140625 -0.4375 0.4375q-0.234375 0.296875 -0.375 0.578125q-0.140625 0.28125 -0.21875 0.671875l-0.390625 1.875l-0.75 0l0.65625 -2.953125q0.03125 -0.109375 0.0625 -0.296875q0.03125 -0.203125 0.03125 -0.328125q0 -0.125 -0.03125 -0.1875q-0.03125 -0.0625 -0.125 -0.09375q-0.09375 -0.046875 -0.296875 -0.046875l0.046875 -0.234375l0.984375 -0.046875l0.25 0l-0.28125 1.125l0.046875 0.015625q0.390625 -0.59375 0.78125 -0.875q0.40625 -0.296875 0.8125 -0.296875q0.40625 0 0.625 0.25q0.21875 0.234375 0.21875 0.671875z" fill-rule="nonzero"/><path fill="#000000" fill-opacity="0.0" d="m382.4444 72.5111l76.66144 0l0 61.41732l-76.66144 0z" fill-rule="evenodd"/><path fill="#000000" d="m401.36627 84.50673l-0.078125 0.34375q-0.265625 0.0625 -0.390625 0.140625q-0.109375 0.0625 -0.203125 0.203125q-0.09375 0.125 -0.1875 0.421875q-0.09375 0.296875 -0.234375 0.96875l-1.640625 7.40625l-0.9375 0l-2.03125 -5.953125q-0.359375 -1.078125 -0.640625 -2.140625l-0.09375 0q-0.046875 0.359375 -0.234375 1.359375q-0.1875 1.0 -0.390625 1.9375l-0.609375 2.78125q-0.0625 0.28125 -0.109375 0.5625q-0.03125 0.265625 -0.03125 0.515625q0 0.3125 0.15625 0.4375q0.15625 0.125 0.515625 0.15625l-0.078125 0.34375l-2.421875 0l0.078125 -0.34375q0.265625 -0.03125 0.390625 -0.125q0.125 -0.09375 0.21875 -0.265625q0.09375 -0.171875 0.171875 -0.40625q0.078125 -0.234375 0.234375 -0.921875l1.171875 -5.359375q0.078125 -0.296875 0.109375 -0.5625q0.046875 -0.265625 0.046875 -0.546875q0 -0.328125 -0.171875 -0.453125q-0.15625 -0.125 -0.515625 -0.15625l0.078125 -0.34375l2.21875 0l1.828125 5.421875q0.40625 1.15625 0.609375 1.96875l0.078125 0q0.0625 -0.421875 0.25 -1.40625q0.203125 -0.984375 0.375 -1.734375l0.484375 -2.1875q0.046875 -0.21875 0.09375 -0.53125q0.0625 -0.3125 0.0625 -0.578125q0 -0.328125 -0.171875 -0.453125q-0.171875 -0.125 -0.515625 -0.15625l0.078125 -0.34375l2.4375 0z" fill-rule="nonzero"/><path fill="#000000" d="m401.53046 101.47548q0.40625 -0.0625 0.59375 -0.203125q0.203125 -0.140625 0.328125 -0.390625q0.140625 -0.25 0.25 -0.609375q0.125 -0.359375 0.359375 -1.390625l1.765625 -8.015625q0.109375 -0.46875 0.171875 -0.90625q0.0625 -0.453125 0.0625 -0.765625q0 -0.484375 -0.25 -0.671875q-0.25 -0.203125 -0.78125 -0.234375l0.125 -0.515625l4.15625 0l-0.109375 0.515625q-0.390625 0.078125 -0.5625 0.1875q-0.171875 0.109375 -0.3125 0.3125q-0.140625 0.203125 -0.28125 0.65625q-0.140625 0.4375 -0.359375 1.4375l-2.234375 10.15625l2.5625 0q0.703125 0 1.09375 -0.140625q0.40625 -0.140625 0.765625 -0.5q0.359375 -0.359375 0.703125 -0.96875q0.34375 -0.609375 0.703125 -1.53125l1.0 0l-1.046875 4.09375l-8.8125 0l0.109375 -0.515625z" fill-rule="nonzero"/><path fill="#000000" d="m418.35587 89.13173q0.640625 0.265625 0.984375 0.75q0.34375 0.46875 0.34375 1.0625q0 0.71875 -0.265625 1.296875q-0.25 0.5625 -0.8125 0.984375q-0.5625 0.421875 -1.296875 0.59375q-0.71875 0.171875 -1.796875 0.171875l-3.078125 0l0.078125 -0.34375q0.25 -0.03125 0.375 -0.125q0.140625 -0.09375 0.234375 -0.265625q0.09375 -0.171875 0.171875 -0.40625q0.078125 -0.234375 0.21875 -0.921875l1.1875 -5.359375q0.15625 -0.6875 0.15625 -1.09375q0 -0.34375 -0.171875 -0.46875q-0.15625 -0.125 -0.515625 -0.15625l0.078125 -0.34375l3.4375 0q1.046875 0 1.671875 0.21875q0.625 0.21875 0.921875 0.65625q0.296875 0.421875 0.296875 1.0625q0 0.90625 -0.5625 1.578125q-0.546875 0.671875 -1.640625 1.046875l-0.015625 0.0625zm-1.921875 -0.375q0.71875 0 1.15625 -0.09375q0.453125 -0.09375 0.71875 -0.28125q0.28125 -0.203125 0.5 -0.453125q0.21875 -0.265625 0.34375 -0.625q0.140625 -0.359375 0.140625 -0.828125q0 -0.296875 -0.109375 -0.5625q-0.109375 -0.265625 -0.359375 -0.4375q-0.25 -0.1875 -0.578125 -0.265625q-0.328125 -0.078125 -0.875 -0.078125q-0.609375 0 -1.125 0.015625l-0.796875 3.609375l0.984375 0zm-1.984375 4.59375q0.546875 0.03125 1.015625 0.03125q1.046875 0 1.609375 -0.265625q0.578125 -0.265625 0.9375 -0.859375q0.359375 -0.59375 0.359375 -1.4375q0 -0.4375 -0.1875 -0.75q-0.171875 -0.3125 -0.5625 -0.5q-0.375 -0.1875 -1.0625 -0.1875l-1.25 0l-0.859375 3.96875z" fill-rule="nonzero"/><path fill="#000000" fill-opacity="0.0" d="m425.00195 288.4108l37.88977 0l0 51.716522l-37.88977 0z" fill-rule="evenodd"/><path fill="#000000" d="m435.83008 310.2108l-0.578125 -4.828125q-0.0625 -0.46875 -0.140625 -0.703125q-0.0625 -0.25 -0.203125 -0.359375q-0.125 -0.109375 -0.390625 -0.140625l0.109375 -0.421875l2.28125 0l0.453125 4.859375q0.984375 -1.40625 1.4375 -2.34375q0.46875 -0.953125 0.46875 -1.578125q0 -0.25 -0.125 -0.375q-0.109375 -0.125 -0.390625 -0.140625l0.078125 -0.421875l1.84375 0l0.21875 0.421875q-0.265625 0.734375 -0.828125 1.75q-0.5625 1.0 -1.40625 2.21875q-0.828125 1.21875 -1.75 2.4375q-0.78125 1.015625 -1.3125 1.53125q-0.390625 0.390625 -0.75 0.59375q-0.296875 0.171875 -0.609375 0.25q-0.3125 0.09375 -0.734375 0.09375q-0.203125 0 -0.453125 -0.046875q-0.25 -0.03125 -0.453125 -0.109375l0.3125 -1.453125l0.6875 0q0.015625 0.265625 0.125 0.390625q0.09375 0.140625 0.296875 0.140625q0.265625 0 0.484375 -0.09375q0.21875 -0.09375 0.4375 -0.28125q0.234375 -0.1875 0.546875 -0.546875q0.3125 -0.34375 0.71875 -0.84375l-0.375 0z" fill-rule="nonzero"/><path fill="#000000" d="m441.4629 312.00766q-0.03125 -0.328125 -0.078125 -0.453125q-0.03125 -0.125 -0.125 -0.1875q-0.09375 -0.078125 -0.28125 -0.09375l0.046875 -0.203125l1.109375 0l0.328125 3.4375q1.46875 -2.0 1.46875 -2.859375q0 -0.203125 -0.09375 -0.28125q-0.078125 -0.078125 -0.28125 -0.09375l0.03125 -0.203125l1.125 0l0.125 0.21875q-0.234375 0.59375 -0.59375 1.25q-0.359375 0.640625 -0.875 1.40625q-0.515625 0.765625 -1.15625 1.59375q-0.484375 0.640625 -0.8125 0.96875q-0.25 0.234375 -0.46875 0.359375q-0.21875 0.140625 -0.40625 0.1875q-0.203125 0.0625 -0.4375 0.0625q-0.109375 0 -0.25 -0.03125q-0.15625 -0.015625 -0.265625 -0.0625l0.1875 -0.8125l0.34375 0q0 0.15625 0.0625 0.234375q0.0625 0.09375 0.1875 0.09375q0.140625 0 0.25 -0.03125q0.09375 -0.03125 0.203125 -0.09375q0.109375 -0.0625 0.265625 -0.203125q0.15625 -0.140625 0.359375 -0.390625q0.203125 -0.234375 0.453125 -0.5625l-0.421875 -3.25z" fill-rule="nonzero"/><path fill="#000000" fill-opacity="0.0" d="m331.0702 280.2323l37.88977 0l0 51.716553l-37.88977 0z" fill-rule="evenodd"/><path fill="#000000" d="m341.89832 302.03232l-0.578125 -4.828125q-0.0625 -0.46875 -0.140625 -0.703125q-0.0625 -0.25 -0.203125 -0.359375q-0.125 -0.109375 -0.390625 -0.140625l0.109375 -0.421875l2.28125 0l0.453125 4.859375q0.984375 -1.40625 1.4375 -2.34375q0.46875 -0.953125 0.46875 -1.578125q0 -0.25 -0.125 -0.375q-0.109375 -0.125 -0.390625 -0.140625l0.078125 -0.421875l1.84375 0l0.21875 0.421875q-0.265625 0.734375 -0.828125 1.75q-0.5625 1.0 -1.40625 2.21875q-0.828125 1.21875 -1.75 2.4375q-0.78125 1.015625 -1.3125 1.53125q-0.390625 0.390625 -0.75 0.59375q-0.296875 0.171875 -0.609375 0.25q-0.3125 0.09375 -0.734375 0.09375q-0.203125 0 -0.453125 -0.046875q-0.25 -0.03125 -0.453125 -0.109375l0.3125 -1.453125l0.6875 0q0.015625 0.265625 0.125 0.390625q0.09375 0.140625 0.296875 0.140625q0.265625 0 0.484375 -0.09375q0.21875 -0.09375 0.4375 -0.28125q0.234375 -0.1875 0.546875 -0.546875q0.3125 -0.34375 0.71875 -0.84375l-0.375 0z" fill-rule="nonzero"/><path fill="#000000" d="m350.828 303.09482q-0.828125 0.90625 -1.75 1.78125l0.40625 0.953125q0.15625 0.375 0.25 0.5625q0.09375 0.171875 0.171875 0.25q0.078125 0.078125 0.15625 0.125q0.078125 0.03125 0.25 0.046875l-0.046875 0.21875l-1.078125 0l-0.609375 -1.734375q-0.109375 0.078125 -0.28125 0.25q-0.15625 0.15625 -0.328125 0.34375q-0.15625 0.1875 -0.21875 0.296875q-0.0625 0.109375 -0.09375 0.203125q-0.015625 0.078125 -0.015625 0.15625q0 0.109375 0.0625 0.1875q0.0625 0.0625 0.21875 0.078125l-0.046875 0.21875l-1.234375 0l-0.078125 -0.21875q0.9375 -1.015625 1.859375 -1.875l-0.40625 -0.96875q-0.125 -0.28125 -0.203125 -0.4375q-0.078125 -0.15625 -0.15625 -0.234375q-0.0625 -0.09375 -0.15625 -0.140625q-0.09375 -0.046875 -0.265625 -0.0625l0.046875 -0.203125l1.078125 0l0.578125 1.625q0.203125 -0.1875 0.390625 -0.390625q0.203125 -0.21875 0.28125 -0.328125q0.078125 -0.125 0.09375 -0.21875q0.03125 -0.09375 0.03125 -0.203125q0 -0.234375 -0.265625 -0.28125l0.046875 -0.203125l1.234375 0l0.078125 0.203125z" fill-rule="nonzero"/><path fill="#000000" fill-opacity="0.0" d="m381.60983 187.94754l37.88977 0l0 51.716522l-37.88977 0z" fill-rule="evenodd"/><path fill="#000000" d="m392.43796 209.74753l-0.578125 -4.828125q-0.0625 -0.46875 -0.140625 -0.703125q-0.0625 -0.25 -0.203125 -0.359375q-0.125 -0.109375 -0.390625 -0.140625l0.109375 -0.421875l2.28125 0l0.453125 4.859375q0.984375 -1.40625 1.4375 -2.34375q0.46875 -0.953125 0.46875 -1.578125q0 -0.25 -0.125 -0.375q-0.109375 -0.125 -0.390625 -0.140625l0.078125 -0.421875l1.84375 0l0.21875 0.421875q-0.265625 0.734375 -0.828125 1.75q-0.5625 1.0 -1.40625 2.21875q-0.828125 1.21875 -1.75 2.4375q-0.78125 1.015625 -1.3125 1.53125q-0.390625 0.390625 -0.75 0.59375q-0.296875 0.171875 -0.609375 0.25q-0.3125 0.09375 -0.734375 0.09375q-0.203125 0 -0.453125 -0.046875q-0.25 -0.03125 -0.453125 -0.109375l0.3125 -1.453125l0.6875 0q0.015625 0.265625 0.125 0.390625q0.09375 0.140625 0.296875 0.140625q0.265625 0 0.484375 -0.09375q0.21875 -0.09375 0.4375 -0.28125q0.234375 -0.1875 0.546875 -0.546875q0.3125 -0.34375 0.71875 -0.84375l-0.375 0z" fill-rule="nonzero"/><path fill="#000000" d="m400.72702 213.52878l-0.265625 1.21875l-3.140625 0l-0.078125 -0.21875l2.375 -2.71875q0.5 -0.578125 0.734375 -0.828125l-0.03125 -0.03125l-1.015625 0q-0.21875 0 -0.328125 0.03125q-0.09375 0.03125 -0.203125 0.109375q-0.109375 0.078125 -0.234375 0.234375q-0.109375 0.140625 -0.25 0.421875l-0.390625 0l0.25 -1.140625l3.078125 0l0.09375 0.21875l-3.109375 3.546875l0.015625 0.03125l0.984375 0q0.265625 0 0.390625 -0.03125q0.140625 -0.03125 0.25 -0.109375q0.109375 -0.078125 0.21875 -0.234375q0.109375 -0.15625 0.265625 -0.5l0.390625 0z" fill-rule="nonzero"/><path fill="#000000" fill-opacity="0.0" d="m382.26917 259.8471l-46.64566 31.77951" fill-rule="evenodd"/><path stroke="#000000" stroke-width="2.0" stroke-linejoin="round" stroke-linecap="butt" d="m382.26917 259.8471l-36.728516 25.02298" fill-rule="evenodd"/><path fill="#000000" stroke="#000000" stroke-width="2.0" stroke-linecap="butt" d="m343.68063 282.14005l-5.640808 7.8403625l9.360809 -2.3802185z" fill-rule="evenodd"/><path fill="#000000" fill-opacity="0.0" d="m382.26917 259.8471l48.346466 43.527557" fill-rule="evenodd"/><path stroke="#000000" stroke-width="2.0" stroke-linejoin="round" stroke-linecap="butt" d="m382.26917 259.8471l39.428345 35.498352" fill-rule="evenodd"/><path fill="#000000" stroke="#000000" stroke-width="2.0" stroke-linecap="butt" d="m419.48718 297.8005l8.955536 3.6178284l-4.534851 -8.527924z" fill-rule="evenodd"/><path fill="#000000" fill-opacity="0.0" d="m382.26917 259.8471l27.779541 -48.094498" fill-rule="evenodd"/><path stroke="#000000" stroke-width="2.0" stroke-linejoin="round" stroke-linecap="butt" d="m382.26917 259.8471l21.777557 -37.70334" fill-rule="evenodd"/><path fill="#000000" stroke="#000000" stroke-width="2.0" stroke-linecap="butt" d="m406.9073 223.79605l1.6790161 -9.511642l-7.400177 6.2070923z" fill-rule="evenodd"/><path fill="#000000" d="m379.642 260.12967l0 0c0 -1.748169 1.4171753 -3.1653442 3.1653442 -3.1653442l0 0c0.83950806 0 1.6446228 0.3334961 2.2382507 0.927124c0.5935974 0.5935974 0.9270935 1.3987427 0.9270935 2.2382202l0 0c0 1.7481995 -1.4171753 3.1653748 -3.1653442 3.1653748l0 0c-1.748169 0 -3.1653442 -1.4171753 -3.1653442 -3.1653748z" fill-rule="evenodd"/><path fill="#000000" fill-opacity="0.0" d="m415.5744 197.49976l-38.456696 -92.62991" fill-rule="evenodd"/><path stroke="#00ffff" stroke-width="4.0" stroke-linejoin="round" stroke-linecap="butt" d="m415.5744 197.49976l-29.254303 -70.46427" fill-rule="evenodd"/><path fill="#00ffff" stroke="#00ffff" stroke-width="4.0" stroke-linecap="butt" d="m392.42206 124.502174l-13.062195 -14.231667l0.85827637 19.298294z" fill-rule="evenodd"/><path fill="#000000" fill-opacity="0.0" d="m415.88556 201.85965l176.8504 -56.409454" fill-rule="evenodd"/><path stroke="#ff00ff" stroke-width="4.0" stroke-linejoin="round" stroke-linecap="butt" d="m415.8856 201.85963l153.98532 -49.11624" fill-rule="evenodd"/><path fill="#ff00ff" stroke="#ff00ff" stroke-width="4.0" stroke-linecap="butt" d="m571.87866 159.03787l15.286255 -11.810684l-19.301697 -0.77827454z" fill-rule="evenodd"/><path fill="#ffffff" d="m411.19424 200.2375l0 0c0.02557373 -3.462967 2.8400574 -6.256775 6.3031006 -6.256775l0 6.3032684z" fill-rule="evenodd"/><path stroke="#000000" stroke-width="1.0" stroke-linejoin="round" stroke-linecap="butt" d="m411.19424 200.2375l0 0c0.02557373 -3.462967 2.8400574 -6.256775 6.3031006 -6.256775l0 6.3032684z" fill-rule="evenodd"/><path fill="#000000" d="m417.54385 193.98091l0 0c3.4629517 0.025543213 6.2567444 2.8400269 6.2567444 6.3030853l-6.303253 0z" fill-rule="evenodd"/><path stroke="#000000" stroke-width="1.0" stroke-linejoin="round" stroke-linecap="butt" d="m417.54385 193.98091l0 0c3.4629517 0.025543213 6.2567444 2.8400269 6.2567444 6.3030853l-6.303253 0z" fill-rule="evenodd"/><path fill="#ffffff" d="m423.80045 200.33049l0 0c-0.025543213 3.4629517 -2.8400574 6.2567596 -6.3031006 6.2567596l0 -6.303253z" fill-rule="evenodd"/><path stroke="#000000" stroke-width="1.0" stroke-linejoin="round" stroke-linecap="butt" d="m423.80045 200.33049l0 0c-0.025543213 3.4629517 -2.8400574 6.2567596 -6.3031006 6.2567596l0 -6.303253z" fill-rule="evenodd"/><path fill="#000000" d="m417.45084 206.58708l0 0c-3.4629517 -0.025543213 -6.2567444 -2.840042 -6.2567444 -6.3030853l6.303253 0z" fill-rule="evenodd"/><path stroke="#000000" stroke-width="1.0" stroke-linejoin="round" stroke-linecap="butt" d="m417.45084 206.58708l0 0c-3.4629517 -0.025543213 -6.2567444 -2.840042 -6.2567444 -6.3030853l6.303253 0z" fill-rule="evenodd"/><path fill="#000000" fill-opacity="0.0" d="m93.86679 329.61017l-19.061005 53.131134" fill-rule="evenodd"/><path stroke="#000000" stroke-width="2.0" stroke-linejoin="round" stroke-linecap="butt" d="m93.86679 329.61017l-15.008835 41.83603" fill-rule="evenodd"/><path fill="#000000" stroke="#000000" stroke-width="2.0" stroke-linecap="butt" d="m75.748535 370.33066l0.044563293 9.6586l6.1742783 -7.4275513z" fill-rule="evenodd"/><path fill="#000000" fill-opacity="0.0" d="m93.86679 329.61017l64.70262 6.8000793" fill-rule="evenodd"/><path stroke="#000000" stroke-width="2.0" stroke-linejoin="round" stroke-linecap="butt" d="m93.86679 329.61017l52.768356 5.545807" fill-rule="evenodd"/><path fill="#000000" stroke="#000000" stroke-width="2.0" stroke-linecap="butt" d="m146.28986 338.44135l9.371765 -2.3367004l-8.681198 -4.2340393z" fill-rule="evenodd"/><path fill="#000000" fill-opacity="0.0" d="m93.86679 329.61017l-5.7935257 -55.242065" fill-rule="evenodd"/><path stroke="#000000" stroke-width="2.0" stroke-linejoin="round" stroke-linecap="butt" d="m93.86679 329.61017l-4.5418854 -43.307526" fill-rule="evenodd"/><path fill="#000000" stroke="#000000" stroke-width="2.0" stroke-linecap="butt" d="m92.61035 285.95807l-4.2321243 -8.682129l-2.338768 9.371246z" fill-rule="evenodd"/><path fill="#000000" d="m91.907234 331.38306l0 0c-1.0275726 -1.4144592 -0.7139511 -3.394104 0.70049286 -4.421692l0 0c0.679245 -0.49346924 1.5266953 -0.6968689 2.355919 -0.56552124c0.82923126 0.13137817 1.5723114 0.5867615 2.0657654 1.2660217l0 0c1.0275803 1.4144287 0.71395874 3.394104 -0.70049286 4.421692l0 0c-1.414444 1.0275574 -3.394104 0.7139282 -4.4216843 -0.7005005z" fill-rule="evenodd"/><path fill="#000000" fill-opacity="0.0" d="m50.342064 293.14178l76.661415 0l0 45.259827l-76.661415 0z" fill-rule="evenodd"/><path fill="#000000" d="m74.217064 308.403l-0.125 0.515625q-0.390625 0.078125 -0.5625 0.1875q-0.171875 0.109375 -0.3125 0.3125q-0.140625 0.203125 -0.28125 0.65625q-0.140625 0.4375 -0.359375 1.4375l-2.453125 11.109375l-1.40625 0l-3.046875 -8.9375q-0.546875 -1.609375 -0.96875 -3.1875l-0.125 0q-0.0625 0.53125 -0.34375 2.03125q-0.28125 1.484375 -0.59375 2.90625l-0.921875 4.15625q-0.09375 0.4375 -0.15625 0.84375q-0.0625 0.40625 -0.0625 0.78125q0 0.46875 0.234375 0.671875q0.234375 0.1875 0.78125 0.21875l-0.109375 0.515625l-3.640625 0l0.109375 -0.515625q0.390625 -0.0625 0.59375 -0.203125q0.203125 -0.140625 0.328125 -0.390625q0.140625 -0.25 0.25 -0.609375q0.125 -0.359375 0.34375 -1.390625l1.78125 -8.015625q0.09375 -0.4375 0.15625 -0.84375q0.0625 -0.40625 0.0625 -0.828125q0 -0.484375 -0.25 -0.671875q-0.25 -0.203125 -0.765625 -0.234375l0.109375 -0.515625l3.328125 0l2.75 8.109375q0.59375 1.75 0.921875 2.96875l0.109375 0q0.078125 -0.640625 0.375 -2.109375q0.296875 -1.484375 0.546875 -2.59375l0.734375 -3.28125q0.0625 -0.34375 0.140625 -0.8125q0.078125 -0.46875 0.078125 -0.859375q0 -0.484375 -0.25 -0.671875q-0.25 -0.203125 -0.765625 -0.234375l0.109375 -0.515625l3.65625 0z" fill-rule="nonzero"/><path fill="#000000" d="m79.46357 321.028q0.859375 0 1.484375 0.34375q0.625 0.328125 0.96875 1.015625q0.34375 0.671875 0.34375 1.671875q0 1.078125 -0.375 2.421875q-0.375 1.34375 -1.078125 2.328125q-0.6875 0.984375 -1.59375 1.46875q-0.890625 0.46875 -1.859375 0.46875q-0.96875 0 -1.609375 -0.375q-0.640625 -0.375 -0.9375 -1.046875q-0.296875 -0.671875 -0.296875 -1.578125q0 -0.890625 0.25 -1.984375q0.265625 -1.09375 0.703125 -1.96875q0.4375 -0.890625 1.046875 -1.5q0.609375 -0.625 1.359375 -0.9375q0.75 -0.328125 1.59375 -0.328125zm1.46875 2.734375q0 -2.125 -1.546875 -2.125q-0.375 0 -0.703125 0.125q-0.390625 0.15625 -0.75 0.453125q-0.390625 0.34375 -0.734375 0.875q-0.40625 0.625 -0.703125 1.421875q-0.3125 0.828125 -0.5 1.796875q-0.171875 0.921875 -0.171875 1.671875q0 1.078125 0.390625 1.609375q0.390625 0.53125 1.171875 0.53125q0.625 0 1.1875 -0.375q0.6875 -0.46875 1.25 -1.484375q0.59375 -1.078125 0.921875 -2.65625q0.1875 -0.921875 0.1875 -1.84375z" fill-rule="nonzero"/><path fill="#000000" fill-opacity="0.0" d="m85.60983 251.44754l37.889763 0l0 51.716522l-37.889763 0z" fill-rule="evenodd"/><path fill="#000000" d="m101.50046 273.24753l-2.6875 0l0.8125 -3.546875q0.171875 -0.75 0.203125 -1.03125q0.046875 -0.296875 0.046875 -0.453125q0 -0.296875 -0.125 -0.4375q-0.125 -0.140625 -0.359375 -0.140625q-0.203125 0 -0.453125 0.15625q-0.25 0.15625 -0.5625 0.484375q-0.296875 0.328125 -0.484375 0.703125q-0.171875 0.375 -0.28125 0.921875l-0.71875 3.34375l-1.875 0l1.03125 -4.59375q0.03125 -0.15625 0.078125 -0.4375q0.0625 -0.296875 0.0625 -0.5q0 -0.265625 -0.15625 -0.359375q-0.15625 -0.109375 -0.484375 -0.140625l0.109375 -0.421875l1.78125 -0.078125l0.6875 0l-0.375 1.40625l0.078125 0.03125q0.453125 -0.5625 0.828125 -0.875q0.390625 -0.3125 0.765625 -0.453125q0.390625 -0.140625 0.84375 -0.140625q0.671875 0 1.046875 0.375q0.390625 0.375 0.390625 1.03125q0 0.421875 -0.125 1.015625l-0.53125 2.40625q-0.0625 0.296875 -0.09375 0.46875q-0.015625 0.15625 -0.015625 0.265625q0 0.296875 0.140625 0.421875q0.15625 0.109375 0.5 0.15625l-0.078125 0.421875z" fill-rule="nonzero"/><path fill="#000000" d="m105.865906 277.02878l-0.265625 1.21875l-3.140625 0l-0.078125 -0.21875l2.375 -2.71875q0.5 -0.578125 0.734375 -0.828125l-0.03125 -0.03125l-1.015625 0q-0.21875 0 -0.328125 0.03125q-0.09375 0.03125 -0.203125 0.109375q-0.109375 0.078125 -0.234375 0.234375q-0.109375 0.140625 -0.25 0.421875l-0.390625 0l0.25 -1.140625l3.078125 0l0.09375 0.21875l-3.109375 3.546875l0.015625 0.03125l0.984375 0q0.265625 0 0.390625 -0.03125q0.140625 -0.03125 0.25 -0.109375q0.109375 -0.078125 0.21875 -0.234375q0.109375 -0.15625 0.265625 -0.5l0.390625 0z" fill-rule="nonzero"/><path fill="#000000" fill-opacity="0.0" d="m72.60983 366.94754l37.889763 0l0 51.716522l-37.889763 0z" fill-rule="evenodd"/><path fill="#000000" d="m88.50046 388.74753l-2.6875 0l0.8125 -3.546875q0.171875 -0.75 0.203125 -1.03125q0.046875 -0.296875 0.046875 -0.453125q0 -0.296875 -0.125 -0.4375q-0.125 -0.140625 -0.359375 -0.140625q-0.203125 0 -0.453125 0.15625q-0.25 0.15625 -0.5625 0.484375q-0.296875 0.328125 -0.484375 0.703125q-0.171875 0.375 -0.28125 0.921875l-0.71875 3.34375l-1.875 0l1.03125 -4.59375q0.03125 -0.15625 0.078125 -0.4375q0.0625 -0.296875 0.0625 -0.5q0 -0.265625 -0.15625 -0.359375q-0.15625 -0.109375 -0.484375 -0.140625l0.109375 -0.421875l1.78125 -0.078125l0.6875 0l-0.375 1.40625l0.078125 0.03125q0.453125 -0.5625 0.828125 -0.875q0.390625 -0.3125 0.765625 -0.453125q0.390625 -0.140625 0.84375 -0.140625q0.671875 0 1.046875 0.375q0.390625 0.375 0.390625 1.03125q0 0.421875 -0.125 1.015625l-0.53125 2.40625q-0.0625 0.296875 -0.09375 0.46875q-0.015625 0.15625 -0.015625 0.265625q0 0.296875 0.140625 0.421875q0.15625 0.109375 0.5 0.15625l-0.078125 0.421875z" fill-rule="nonzero"/><path fill="#000000" d="m93.50653 389.81003q-0.828125 0.90625 -1.75 1.78125l0.40625 0.953125q0.15625 0.375 0.25 0.5625q0.09375 0.171875 0.171875 0.25q0.078125 0.078125 0.15625 0.125q0.078125 0.03125 0.25 0.046875l-0.046875 0.21875l-1.078125 0l-0.609375 -1.734375q-0.109375 0.078125 -0.28125 0.25q-0.15625 0.15625 -0.328125 0.34375q-0.15625 0.1875 -0.21875 0.296875q-0.0625 0.109375 -0.09375 0.203125q-0.015625 0.078125 -0.015625 0.15625q0 0.109375 0.0625 0.1875q0.0625 0.0625 0.21875 0.078125l-0.046875 0.21875l-1.234375 0l-0.078125 -0.21875q0.9375 -1.015625 1.859375 -1.875l-0.40625 -0.96875q-0.125 -0.28125 -0.203125 -0.4375q-0.078125 -0.15625 -0.15625 -0.234375q-0.0625 -0.09375 -0.15625 -0.140625q-0.09375 -0.046875 -0.265625 -0.0625l0.046875 -0.203125l1.078125 0l0.578125 1.625q0.203125 -0.1875 0.390625 -0.390625q0.203125 -0.21875 0.28125 -0.328125q0.078125 -0.125 0.09375 -0.21875q0.03125 -0.09375 0.03125 -0.203125q0 -0.234375 -0.265625 -0.28125l0.046875 -0.203125l1.234375 0l0.078125 0.203125z" fill-rule="nonzero"/><path fill="#000000" fill-opacity="0.0" d="m141.60983 331.44754l37.88977 0l0 51.716522l-37.88977 0z" fill-rule="evenodd"/><path fill="#000000" d="m157.50046 353.24753l-2.6875 0l0.8125 -3.546875q0.171875 -0.75 0.203125 -1.03125q0.046875 -0.296875 0.046875 -0.453125q0 -0.296875 -0.125 -0.4375q-0.125 -0.140625 -0.359375 -0.140625q-0.203125 0 -0.453125 0.15625q-0.25 0.15625 -0.5625 0.484375q-0.296875 0.328125 -0.484375 0.703125q-0.171875 0.375 -0.28125 0.921875l-0.71875 3.34375l-1.875 0l1.03125 -4.59375q0.03125 -0.15625 0.078125 -0.4375q0.0625 -0.296875 0.0625 -0.5q0 -0.265625 -0.15625 -0.359375q-0.15625 -0.109375 -0.484375 -0.140625l0.109375 -0.421875l1.78125 -0.078125l0.6875 0l-0.375 1.40625l0.078125 0.03125q0.453125 -0.5625 0.828125 -0.875q0.390625 -0.3125 0.765625 -0.453125q0.390625 -0.140625 0.84375 -0.140625q0.671875 0 1.046875 0.375q0.390625 0.375 0.390625 1.03125q0 0.421875 -0.125 1.015625l-0.53125 2.40625q-0.0625 0.296875 -0.09375 0.46875q-0.015625 0.15625 -0.015625 0.265625q0 0.296875 0.140625 0.421875q0.15625 0.109375 0.5 0.15625l-0.078125 0.421875z" fill-rule="nonzero"/><path fill="#000000" d="m159.20966 355.0444q-0.03125 -0.328125 -0.078125 -0.453125q-0.03125 -0.125 -0.125 -0.1875q-0.09375 -0.078125 -0.28125 -0.09375l0.046875 -0.203125l1.109375 0l0.328125 3.4375q1.46875 -2.0 1.46875 -2.859375q0 -0.203125 -0.09375 -0.28125q-0.078125 -0.078125 -0.28125 -0.09375l0.03125 -0.203125l1.125 0l0.125 0.21875q-0.234375 0.59375 -0.59375 1.25q-0.359375 0.640625 -0.875 1.40625q-0.515625 0.765625 -1.15625 1.59375q-0.484375 0.640625 -0.8125 0.96875q-0.25 0.234375 -0.46875 0.359375q-0.21875 0.140625 -0.40625 0.1875q-0.203125 0.0625 -0.4375 0.0625q-0.109375 0 -0.25 -0.03125q-0.15625 -0.015625 -0.265625 -0.0625l0.1875 -0.8125l0.34375 0q0 0.15625 0.0625 0.234375q0.0625 0.09375 0.1875 0.09375q0.140625 0 0.25 -0.03125q0.09375 -0.03125 0.203125 -0.09375q0.109375 -0.0625 0.265625 -0.203125q0.15625 -0.140625 0.359375 -0.390625q0.203125 -0.234375 0.453125 -0.5625l-0.421875 -3.25z" fill-rule="nonzero"/></g></svg>