<svg version="1.1" viewBox="0.0 0.0 672.0 432.0" fill="none" stroke="none" stroke-linecap="square" stroke-miterlimit="10" xmlns:xlink="http://www.w3.org/1999/xlink" xmlns="http://www.w3.org/2000/svg"><clipPath id="g2a566ab5395_0_292.0"><path d="m0 0l672.0 0l0 432.0l-672.0 0l0 -432.0z" clip-rule="nonzero"/></clipPath><g clip-path="url(#g2a566ab5395_0_292.0)"><path fill="#ffffff" d="m0 0l672.0 0l0 432.0l-672.0 0z" fill-rule="evenodd"/><path fill="#000000" fill-opacity="0.0" d="m275.2867 328.3725l46.80316 0l0 35.55905l-46.80316 0z" fill-rule="evenodd"/><path fill="#000000" d="m291.98984 341.51624l-0.390625 1.765625l-0.625 0q-0.046875 -0.796875 -0.34375 -1.15625q-0.296875 -0.359375 -0.953125 -0.359375q-0.546875 0 -1.03125 0.328125q-0.484375 0.328125 -0.921875 0.9375q-0.421875 0.59375 -0.75 1.421875q-0.3125 0.8125 -0.484375 1.671875q-0.15625 0.84375 -0.15625 1.515625q0 1.0625 0.34375 1.5625q0.34375 0.5 1.09375 0.5q0.484375 0 0.84375 -0.140625q0.375 -0.15625 0.6875 -0.5q0.328125 -0.34375 0.640625 -0.96875l0.625 0l-0.40625 1.84375q-0.65625 0.1875 -1.28125 0.265625q-0.625 0.078125 -1.265625 0.078125q-0.8125 0 -1.375 -0.328125q-0.5625 -0.34375 -0.859375 -0.96875q-0.28125 -0.640625 -0.28125 -1.546875q0 -0.46875 0.0625 -0.90625q0.078125 -0.546875 0.25 -1.1875q0.21875 -0.796875 0.546875 -1.453125q0.34375 -0.703125 0.796875 -1.234375q0.421875 -0.5 0.921875 -0.828125q0.453125 -0.3125 0.96875 -0.46875q0.53125 -0.171875 1.125 -0.171875q0.59375 0 1.09375 0.078125q0.515625 0.0625 1.125 0.25z" fill-rule="nonzero"/><path fill="#000000" d="m295.10294 349.1881q0.546875 0 0.9375 0.21875q0.390625 0.203125 0.59375 0.625q0.21875 0.421875 0.21875 1.046875q0 0.671875 -0.234375 1.515625q-0.234375 0.828125 -0.671875 1.453125q-0.4375 0.609375 -1.0 0.90625q-0.546875 0.296875 -1.15625 0.296875q-0.609375 0 -1.015625 -0.234375q-0.390625 -0.234375 -0.578125 -0.65625q-0.1875 -0.421875 -0.1875 -0.984375q0 -0.546875 0.15625 -1.234375q0.171875 -0.6875 0.4375 -1.234375q0.28125 -0.546875 0.65625 -0.921875q0.375 -0.390625 0.84375 -0.59375q0.46875 -0.203125 1.0 -0.203125zm0.921875 1.703125q0 -1.328125 -0.96875 -1.328125q-0.234375 0 -0.4375 0.078125q-0.25 0.09375 -0.46875 0.28125q-0.25 0.21875 -0.453125 0.546875q-0.25 0.390625 -0.4375 0.890625q-0.203125 0.515625 -0.3125 1.125q-0.109375 0.578125 -0.109375 1.046875q0 0.671875 0.234375 1.0q0.25 0.328125 0.734375 0.328125q0.390625 0 0.734375 -0.234375q0.4375 -0.296875 0.78125 -0.921875q0.375 -0.6875 0.578125 -1.65625q0.125 -0.578125 0.125 -1.15625z" fill-rule="nonzero"/><path fill="#000000" fill-opacity="0.0" d="m372.58646 72.78362l17.070862 0l0 38.771652l-17.070862 0z" fill-rule="evenodd"/><path fill="#000000" d="m389.18857 94.86237q-0.109375 0.46875 -0.140625 0.734375q-0.03125 0.265625 -0.03125 0.484375q0 0.359375 0.171875 0.5q0.1875 0.140625 0.59375 0.171875l-0.078125 0.390625l-3.125 0l0.078125 -0.390625q0.296875 -0.046875 0.4375 -0.140625q0.15625 -0.109375 0.25 -0.296875q0.109375 -0.1875 0.1875 -0.453125q0.09375 -0.28125 0.265625 -1.046875l0.640625 -2.90625l-4.1875 0l-0.65625 2.953125q-0.0625 0.296875 -0.09375 0.484375q-0.03125 0.171875 -0.046875 0.359375q-0.015625 0.171875 -0.015625 0.375q0 0.34375 0.15625 0.5q0.15625 0.140625 0.609375 0.171875l-0.09375 0.390625l-3.125 0l0.09375 -0.390625q0.296875 -0.046875 0.4375 -0.140625q0.15625 -0.109375 0.25 -0.296875q0.109375 -0.1875 0.1875 -0.453125q0.09375 -0.28125 0.265625 -1.046875l1.328125 -6.015625q0.0625 -0.328125 0.109375 -0.6875q0.0625 -0.359375 0.0625 -0.578125q0 -0.359375 -0.1875 -0.5q-0.1875 -0.15625 -0.578125 -0.171875l0.078125 -0.390625l3.125 0l-0.078125 0.390625q-0.296875 0.0625 -0.4375 0.140625q-0.125 0.078125 -0.234375 0.234375q-0.09375 0.15625 -0.203125 0.484375q-0.109375 0.328125 -0.265625 1.078125l-0.53125 2.390625l4.1875 0l0.53125 -2.390625q0.078125 -0.328125 0.125 -0.6875q0.046875 -0.359375 0.046875 -0.578125q0 -0.359375 -0.1875 -0.5q-0.1875 -0.15625 -0.578125 -0.171875l0.09375 -0.390625l3.125 0l-0.09375 0.390625q-0.265625 0.0625 -0.375 0.125q-0.109375 0.046875 -0.203125 0.140625q-0.078125 0.09375 -0.171875 0.265625q-0.078125 0.171875 -0.171875 0.515625q-0.09375 0.34375 -0.21875 0.890625l-1.328125 6.0625z" fill-rule="nonzero"/><path fill="#980000" fill-opacity="0.2905" d="m222.79805 223.14542l28.81903 32.91739l-15.749283 79.83359l-28.81903 -32.91739z" fill-rule="evenodd"/><path stroke="#666666" stroke-width="1.0" stroke-linejoin="round" stroke-linecap="butt" d="m222.79805 223.14542l28.81903 32.91739l-15.749283 79.83359l-28.81903 -32.91739z" fill-rule="evenodd"/><path fill="#000000" fill-opacity="0.0" d="m206.70471 303.17328l16.190887 -80.0571l48.57263 0l-16.190872 80.0571z" fill-rule="evenodd"/><path stroke="#666666" stroke-width="1.0" stroke-linejoin="round" stroke-linecap="butt" d="m206.70471 303.17328l16.190887 -80.0571l48.57263 0l-16.190872 80.0571z" fill-rule="evenodd"/><path fill="#980000" fill-opacity="0.2905" d="m236.09673 335.99146l16.190872 -80.0571l48.572662 0l-16.190887 80.0571z" fill-rule="evenodd"/><path stroke="#666666" stroke-width="1.0" stroke-linejoin="round" stroke-linecap="butt" d="m236.09673 335.99146l16.190872 -80.0571l48.572662 0l-16.190887 80.0571z" fill-rule="evenodd"/><path fill="#980000" fill-opacity="0.2905" d="m223.24623 222.71347l28.210953 33.22235l49.388245 -0.09931946l-28.210968 -33.222366z" fill-rule="evenodd"/><path stroke="#666666" stroke-width="1.0" stroke-linejoin="round" stroke-linecap="butt" d="m223.24623 222.71347l28.210953 33.22235l49.388245 -0.09931946l-28.210968 -33.222366z" fill-rule="evenodd"/><path fill="#000000" fill-opacity="0.0" d="m206.70471 303.4041l29.279785 32.147675l47.92926 0l-29.279785 -32.147675z" fill-rule="evenodd"/><path stroke="#666666" stroke-width="1.0" stroke-linejoin="round" stroke-linecap="butt" d="m206.70471 303.4041l29.279785 32.147675l47.92926 0l-29.279785 -32.147675z" fill-rule="evenodd"/><path fill="#003fff" fill-opacity="0.3966" d="m480.9229 110.7129l-29.79773 32.690407l-81.97946 -6.7534943l29.797699 -32.690407z" fill-rule="evenodd"/><path stroke="#666666" stroke-width="1.0" stroke-linejoin="round" stroke-linecap="butt" d="m480.9229 110.7129l-29.79773 32.690407l-81.97946 -6.7534943l29.797699 -32.690407z" fill-rule="evenodd"/><path fill="#000000" fill-opacity="0.0" d="m398.70657 103.635605l82.256775 7.171959l5.513275 48.79615l-82.256775 -7.1719513z" fill-rule="evenodd"/><path stroke="#666666" stroke-width="1.0" stroke-linejoin="round" stroke-linecap="butt" d="m398.70657 103.635605l82.256775 7.171959l5.513275 48.79615l-82.256775 -7.1719513z" fill-rule="evenodd"/><path fill="#003fff" fill-opacity="0.3966" d="m369.0762 136.89058l82.256775 7.1719666l5.5133057 48.796143l-82.256775 -7.1719513z" fill-rule="evenodd"/><path stroke="#666666" stroke-width="1.0" stroke-linejoin="round" stroke-linecap="butt" d="m369.0762 136.89058l82.256775 7.1719666l5.5133057 48.796143l-82.256775 -7.1719513z" fill-rule="evenodd"/><path fill="#003fff" fill-opacity="0.3966" d="m481.40768 111.11407l-30.170654 32.112404l5.7058716 49.6062l30.170654 -32.11241z" fill-rule="evenodd"/><path stroke="#666666" stroke-width="1.0" stroke-linejoin="round" stroke-linecap="butt" d="m481.40768 111.11407l-30.170654 32.112404l5.7058716 49.6062l30.170654 -32.11241z" fill-rule="evenodd"/><path fill="#000000" fill-opacity="0.0" d="m398.4747 103.66183l-28.969818 33.064003l5.4404907 48.151886l28.969818 -33.063995z" fill-rule="evenodd"/><path stroke="#666666" stroke-width="1.0" stroke-linejoin="round" stroke-linecap="butt" d="m398.4747 103.66183l-28.969818 33.064003l5.4404907 48.151886l28.969818 -33.063995z" fill-rule="evenodd"/><path fill="#000000" fill-opacity="0.0" d="m283.91837 335.90323l-23.275604 -26.11023" fill-rule="evenodd"/><path stroke="#980000" stroke-width="2.0" stroke-linejoin="round" stroke-linecap="butt" d="m283.91833 335.90323l-15.290497 -17.15268" fill-rule="evenodd"/><path fill="#980000" stroke="#980000" stroke-width="2.0" stroke-linecap="butt" d="m271.09378 316.55234l-8.505463 -4.5768433l3.5736084 8.973267z" fill-rule="evenodd"/><path fill="#000000" fill-opacity="0.0" d="m283.9234 335.89822l-38.614166 -0.34643555" fill-rule="evenodd"/><path stroke="#980000" stroke-width="2.0" stroke-linejoin="round" stroke-linecap="butt" d="m283.9234 335.89822l-26.614655 -0.23876953" fill-rule="evenodd"/><path fill="#980000" stroke="#980000" stroke-width="2.0" stroke-linecap="butt" d="m257.3384 332.3561l-9.105484 3.2218933l9.046188 3.3847656z" fill-rule="evenodd"/><path fill="#000000" fill-opacity="0.0" d="m283.91837 335.90323l7.716522 -34.33072" fill-rule="evenodd"/><path stroke="#980000" stroke-width="2.0" stroke-linejoin="round" stroke-linecap="butt" d="m283.91833 335.90323l5.084961 -22.622833" fill-rule="evenodd"/><path fill="#980000" stroke="#980000" stroke-width="2.0" stroke-linecap="butt" d="m292.22635 314.00485l-1.232666 -9.579712l-5.21344 8.130798z" fill-rule="evenodd"/><path fill="#000000" fill-opacity="0.0" d="m457.0191 193.37852l-3.6220703 -33.417328" fill-rule="evenodd"/><path stroke="#0b5394" stroke-width="2.0" stroke-linejoin="round" stroke-linecap="butt" d="m457.01907 193.37852l-2.328949 -21.487198" fill-rule="evenodd"/><path fill="#0b5394" stroke="#0b5394" stroke-width="2.0" stroke-linecap="butt" d="m457.97433 171.53535l-4.2622375 -8.667374l-2.3062134 9.379318z" fill-rule="evenodd"/><path fill="#000000" fill-opacity="0.0" d="m457.0046 193.02844l21.700775 -23.181107" fill-rule="evenodd"/><path stroke="#0b5394" stroke-width="2.0" stroke-linejoin="round" stroke-linecap="butt" d="m457.0046 193.02844l13.499817 -14.420731" fill-rule="evenodd"/><path fill="#0b5394" stroke="#0b5394" stroke-width="2.0" stroke-linecap="butt" d="m472.91605 180.86536l3.7911682 -8.883545l-8.61441 4.368286z" fill-rule="evenodd"/><path fill="#0b5394" d="m400.67017 100.32434l0 0c-1.6524963 -0.90452576 -3.7677002 -0.22061157 -4.7243958 1.527565l0 0c-0.45944214 0.8395004 -0.58480835 1.8171768 -0.34854126 2.7179413c0.23626709 0.90076447 0.81481934 1.6508331 1.6083679 2.085205l0 0c1.6524963 0.9045334 3.7677002 0.2206192 4.7244263 -1.5275574l0 0c0.95669556 -1.7481766 0.39263916 -3.8986206 -1.2598572 -4.803154z" fill-rule="evenodd"/><path fill="#000000" fill-opacity="0.0" d="m186.74088 291.1885l36.53543 -67.49608" fill-rule="evenodd"/><path stroke="#000000" stroke-width="2.0" stroke-linejoin="round" stroke-linecap="butt" d="m192.45326 280.63538l30.823044 -56.942932" fill-rule="evenodd"/><path fill="#000000" stroke="#000000" stroke-width="2.0" stroke-linecap="butt" d="m189.5481 279.0628l-1.41539 9.554413l7.225708 -6.4093018z" fill-rule="evenodd"/><path fill="#000000" fill-opacity="0.0" d="m213.89201 257.97977l27.370071 0l0 45.259857l-27.370071 0z" fill-rule="evenodd"/><path fill="#000000" d="m235.22014 273.61603l-0.625 2.8125l-1.0 0q-0.078125 -1.28125 -0.5625 -1.84375q-0.46875 -0.5625 -1.515625 -0.5625q-0.875 0 -1.65625 0.515625q-0.765625 0.515625 -1.453125 1.484375q-0.6875 0.96875 -1.203125 2.28125q-0.5 1.296875 -0.78125 2.65625q-0.265625 1.359375 -0.265625 2.453125q0 1.703125 0.5625 2.5q0.5625 0.796875 1.75 0.796875q0.78125 0 1.359375 -0.234375q0.578125 -0.234375 1.09375 -0.78125q0.515625 -0.5625 1.015625 -1.5625l1.0 0l-0.640625 2.953125q-1.0625 0.296875 -2.0625 0.421875q-0.984375 0.125 -2.015625 0.125q-1.296875 0 -2.203125 -0.53125q-0.90625 -0.546875 -1.375 -1.5625q-0.453125 -1.015625 -0.453125 -2.4375q0 -0.75 0.109375 -1.46875q0.125 -0.875 0.390625 -1.90625q0.34375 -1.28125 0.875 -2.328125q0.5625 -1.109375 1.28125 -1.96875q0.671875 -0.78125 1.46875 -1.3125q0.71875 -0.5 1.5625 -0.765625q0.84375 -0.265625 1.796875 -0.265625q0.953125 0 1.75 0.109375q0.8125 0.109375 1.796875 0.421875z" fill-rule="nonzero"/><path fill="#000000" fill-opacity="0.0" d="m210.40198 188.23512l27.370087 0l0 38.771652l-27.370087 0z" fill-rule="evenodd"/><path fill="#000000" d="m225.77698 210.09512q0.171875 -0.734375 0.171875 -1.265625q0 -0.359375 -0.1875 -0.5q-0.1875 -0.15625 -0.578125 -0.171875l0.09375 -0.390625l3.125 0l-0.09375 0.390625q-0.265625 0.0625 -0.375 0.125q-0.109375 0.046875 -0.203125 0.140625q-0.078125 0.09375 -0.171875 0.265625q-0.078125 0.171875 -0.171875 0.5q-0.09375 0.328125 -0.21875 0.90625l-0.53125 2.453125l-0.625 0.1875l-0.40625 -0.625q-0.5625 0.265625 -0.875 0.375q-0.3125 0.109375 -0.65625 0.171875q-0.328125 0.0625 -0.703125 0.0625q-0.953125 0 -1.640625 -0.40625q-0.671875 -0.40625 -1.015625 -1.15625q-0.328125 -0.765625 -0.328125 -1.796875q0 -0.828125 0.171875 -1.703125q0.1875 -1.0 0.515625 -1.859375q0.3125 -0.828125 0.71875 -1.46875q0.421875 -0.65625 0.921875 -1.171875q0.453125 -0.4375 0.984375 -0.734375q0.53125 -0.3125 1.109375 -0.46875q0.59375 -0.15625 1.234375 -0.15625q0.75 0 1.359375 0.09375q0.625 0.09375 1.359375 0.328125l-0.484375 2.09375l-0.75 0q-0.046875 -0.671875 -0.234375 -1.0625q-0.171875 -0.40625 -0.5 -0.578125q-0.328125 -0.1875 -0.859375 -0.1875q-0.65625 0 -1.21875 0.359375q-0.546875 0.34375 -1.0625 1.015625q-0.515625 0.671875 -0.9375 1.703125q-0.40625 1.015625 -0.640625 2.078125q-0.21875 1.0625 -0.21875 1.921875q0 1.265625 0.421875 1.875q0.421875 0.59375 1.28125 0.59375q0.328125 0 0.65625 -0.0625q0.34375 -0.078125 0.625 -0.25q0.296875 -0.1875 0.515625 -0.484375q0.234375 -0.3125 0.34375 -0.78125l0.078125 -0.359375z" fill-rule="nonzero"/><path fill="#000000" fill-opacity="0.0" d="m282.2365 333.29453l-56.346466 -107.1181" fill-rule="evenodd"/><path stroke="#000000" stroke-width="1.0" stroke-linejoin="round" stroke-linecap="butt" d="m282.2365 333.29453l-53.553207 -101.80794" fill-rule="evenodd"/><path fill="#000000" stroke="#000000" stroke-width="1.0" stroke-linecap="butt" d="m230.14513 230.71762l-3.5744934 -3.2473755l0.6508484 4.7852936z" fill-rule="evenodd"/><path fill="#000000" fill-opacity="0.0" d="m456.68576 193.12419l-56.188995 -86.77165" fill-rule="evenodd"/><path stroke="#000000" stroke-width="1.0" stroke-linejoin="round" stroke-linecap="butt" d="m456.68573 193.1242l-52.927734 -81.735374" fill-rule="evenodd"/><path fill="#000000" stroke="#000000" stroke-width="1.0" stroke-linecap="butt" d="m405.14444 110.49104l-3.8530884 -2.911415l1.0802307 4.7069855z" fill-rule="evenodd"/><path fill="#000000" fill-opacity="0.0" d="m394.2136 131.71213l47.46457 0l0 64.62991l-47.46457 0z" fill-rule="evenodd"/><path fill="#000000" d="m406.66672 167.93712l0.515625 0l-0.609375 2.140625l0.109375 0.03125q0.828125 -1.140625 1.609375 -1.6875q0.78125 -0.546875 1.625 -0.546875q0.625 0 1.046875 0.09375l-0.40625 1.953125l-0.90625 0q-0.0625 -0.453125 -0.21875 -0.6875q-0.140625 -0.234375 -0.453125 -0.234375q-0.328125 0 -0.78125 0.34375q-0.4375 0.34375 -0.90625 0.953125q-0.453125 0.609375 -0.6875 1.125q-0.21875 0.515625 -0.34375 1.140625l-0.796875 3.75l-1.5 0l1.328125 -5.921875q0.171875 -0.8125 0.171875 -1.25q0 -0.234375 -0.078125 -0.359375q-0.078125 -0.140625 -0.25 -0.203125q-0.171875 -0.078125 -0.59375 -0.09375l0.109375 -0.46875l2.015625 -0.078125z" fill-rule="nonzero"/><path fill="#000000" d="m416.12 164.7965q-0.0625 0.3125 -0.09375 0.5q-0.015625 0.171875 -0.015625 0.3125q0 0.234375 0.109375 0.328125q0.125 0.09375 0.40625 0.125l-0.0625 0.25l-2.078125 0l0.0625 -0.25q0.1875 -0.03125 0.28125 -0.09375q0.109375 -0.078125 0.171875 -0.203125q0.078125 -0.125 0.125 -0.296875q0.0625 -0.1875 0.171875 -0.703125l0.4375 -1.9375l-2.796875 0l-0.4375 1.96875q-0.03125 0.1875 -0.0625 0.3125q-0.015625 0.125 -0.03125 0.25q-0.015625 0.109375 -0.015625 0.25q0 0.21875 0.109375 0.328125q0.109375 0.09375 0.40625 0.125l-0.0625 0.25l-2.078125 0l0.0625 -0.25q0.1875 -0.03125 0.28125 -0.09375q0.109375 -0.078125 0.171875 -0.203125q0.078125 -0.125 0.125 -0.296875q0.0625 -0.1875 0.171875 -0.703125l0.890625 -4.015625q0.046875 -0.203125 0.078125 -0.4375q0.03125 -0.25 0.03125 -0.390625q0 -0.25 -0.125 -0.34375q-0.125 -0.09375 -0.375 -0.109375l0.046875 -0.265625l2.078125 0l-0.046875 0.265625q-0.203125 0.03125 -0.296875 0.09375q-0.078125 0.046875 -0.15625 0.15625q-0.0625 0.09375 -0.140625 0.328125q-0.0625 0.21875 -0.171875 0.71875l-0.34375 1.59375l2.78125 0l0.359375 -1.609375q0.046875 -0.203125 0.078125 -0.4375q0.03125 -0.25 0.03125 -0.390625q0 -0.25 -0.125 -0.34375q-0.125 -0.09375 -0.375 -0.109375l0.046875 -0.265625l2.09375 0l-0.0625 0.265625q-0.171875 0.03125 -0.25 0.078125q-0.078125 0.03125 -0.140625 0.09375q-0.046875 0.0625 -0.109375 0.1875q-0.046875 0.109375 -0.109375 0.34375q-0.0625 0.21875 -0.15625 0.59375l-0.890625 4.03125z" fill-rule="nonzero"/><path fill="#000000" d="m422.4672 158.859l-3.75 9.6875l-0.8125 0l3.765625 -9.6875l0.796875 0z" fill-rule="nonzero"/><path fill="#000000" d="m426.67563 159.20274q0.625 0 1.015625 0.109375q0.40625 0.09375 0.65625 0.296875q0.265625 0.1875 0.390625 0.5q0.125 0.3125 0.125 0.71875q0 0.78125 -0.375 1.359375q-0.359375 0.5625 -1.0 0.84375q-0.625 0.265625 -1.515625 0.265625q-0.53125 0 -0.875 -0.03125l-0.34375 1.53125q-0.046875 0.21875 -0.0625 0.328125q-0.015625 0.109375 -0.03125 0.25q-0.015625 0.125 -0.015625 0.234375q0 0.15625 0.046875 0.25q0.0625 0.09375 0.15625 0.140625q0.109375 0.03125 0.375 0.0625l-0.0625 0.25l-2.140625 0l0.0625 -0.25q0.1875 -0.03125 0.28125 -0.09375q0.109375 -0.078125 0.171875 -0.203125q0.078125 -0.125 0.125 -0.296875q0.0625 -0.1875 0.171875 -0.703125l0.890625 -4.015625q0.109375 -0.515625 0.109375 -0.8125q0 -0.265625 -0.125 -0.359375q-0.109375 -0.09375 -0.375 -0.109375l0.046875 -0.265625l2.296875 0zm-0.953125 3.640625q0.625 0 1.015625 -0.125q0.390625 -0.140625 0.625 -0.40625q0.25 -0.28125 0.390625 -0.65625q0.140625 -0.375 0.140625 -0.828125q0 -0.4375 -0.15625 -0.6875q-0.15625 -0.265625 -0.453125 -0.359375q-0.28125 -0.109375 -0.71875 -0.109375q-0.328125 0 -0.6875 0.015625l-0.703125 3.15625l0.546875 0z" fill-rule="nonzero"/><path fill="#000000" d="m430.18546 170.37462q-0.328125 0 -0.5625 -0.125q-0.21875 -0.125 -0.359375 -0.40625q-0.125 -0.28125 -0.125 -0.734375q0 -0.40625 0.078125 -0.875q0.09375 -0.46875 0.234375 -0.890625q0.140625 -0.421875 0.34375 -0.765625q0.203125 -0.34375 0.4375 -0.578125q0.25 -0.234375 0.515625 -0.359375q0.28125 -0.125 0.578125 -0.125q0.28125 0 0.46875 0.09375q0.203125 0.09375 0.328125 0.25q0.125 0.15625 0.171875 0.390625q0.0625 0.21875 0.0625 0.484375q0 0.75 -0.21875 1.515625q-0.21875 0.765625 -0.5625 1.265625q-0.296875 0.4375 -0.671875 0.65625q-0.34375 0.203125 -0.71875 0.203125zm-0.4375 -1.046875q0 0.28125 0.046875 0.453125q0.046875 0.15625 0.140625 0.234375q0.109375 0.0625 0.28125 0.0625q0.265625 0 0.5 -0.25q0.25 -0.25 0.46875 -0.734375q0.21875 -0.5 0.390625 -1.25q0.1875 -0.765625 0.1875 -1.328125q0 -0.359375 -0.109375 -0.53125q-0.109375 -0.171875 -0.359375 -0.171875q-0.140625 0 -0.296875 0.078125q-0.171875 0.09375 -0.34375 0.3125q-0.203125 0.25 -0.375 0.6875q-0.15625 0.375 -0.28125 0.859375q-0.09375 0.359375 -0.15625 0.6875q-0.09375 0.5 -0.09375 0.890625z" fill-rule="nonzero"/><path fill="#000000" fill-opacity="0.0" d="m255.75703 243.04921l47.464554 0l0 64.62993l-47.464554 0z" fill-rule="evenodd"/><path fill="#000000" d="m268.21017 279.2742l0.515625 0l-0.609375 2.140625l0.109375 0.03125q0.828125 -1.140625 1.609375 -1.6875q0.78125 -0.546875 1.625 -0.546875q0.625 0 1.046875 0.09375l-0.40625 1.953125l-0.90625 0q-0.0625 -0.453125 -0.21875 -0.6875q-0.140625 -0.234375 -0.453125 -0.234375q-0.328125 0 -0.78125 0.34375q-0.4375 0.34375 -0.90625 0.953125q-0.453125 0.609375 -0.6875 1.125q-0.21875 0.515625 -0.34375 1.140625l-0.796875 3.75l-1.5 0l1.328125 -5.921875q0.171875 -0.8125 0.171875 -1.25q0 -0.234375 -0.078125 -0.359375q-0.078125 -0.140625 -0.25 -0.203125q-0.171875 -0.078125 -0.59375 -0.09375l0.109375 -0.46875l2.015625 -0.078125z" fill-rule="nonzero"/><path fill="#000000" d="m276.24155 275.97733q0.109375 -0.484375 0.109375 -0.828125q0 -0.25 -0.125 -0.34375q-0.125 -0.09375 -0.390625 -0.109375l0.0625 -0.25l2.078125 0l-0.046875 0.25q-0.1875 0.046875 -0.265625 0.078125q-0.0625 0.03125 -0.125 0.109375q-0.0625 0.0625 -0.125 0.171875q-0.046875 0.109375 -0.109375 0.328125q-0.0625 0.21875 -0.140625 0.609375l-0.359375 1.625l-0.40625 0.125l-0.28125 -0.421875q-0.375 0.1875 -0.578125 0.265625q-0.203125 0.0625 -0.4375 0.09375q-0.21875 0.046875 -0.46875 0.046875q-0.640625 0 -1.09375 -0.265625q-0.4375 -0.265625 -0.671875 -0.765625q-0.21875 -0.515625 -0.21875 -1.203125q0 -0.546875 0.109375 -1.125q0.125 -0.671875 0.34375 -1.234375q0.21875 -0.5625 0.484375 -0.984375q0.28125 -0.4375 0.609375 -0.78125q0.296875 -0.296875 0.640625 -0.5q0.359375 -0.203125 0.75 -0.296875q0.390625 -0.109375 0.828125 -0.109375q0.5 0 0.90625 0.0625q0.40625 0.0625 0.90625 0.21875l-0.328125 1.390625l-0.5 0q-0.03125 -0.453125 -0.15625 -0.703125q-0.109375 -0.265625 -0.328125 -0.390625q-0.21875 -0.125 -0.578125 -0.125q-0.4375 0 -0.8125 0.234375q-0.359375 0.234375 -0.703125 0.6875q-0.34375 0.4375 -0.625 1.125q-0.265625 0.6875 -0.421875 1.390625q-0.140625 0.703125 -0.140625 1.28125q0 0.84375 0.265625 1.25q0.28125 0.390625 0.859375 0.390625q0.21875 0 0.4375 -0.046875q0.21875 -0.046875 0.40625 -0.15625q0.203125 -0.125 0.359375 -0.328125q0.15625 -0.203125 0.21875 -0.515625l0.0625 -0.25z" fill-rule="nonzero"/><path fill="#000000" d="m283.11566 270.19608l-3.75 9.6875l-0.8125 0l3.765625 -9.6875l0.796875 0z" fill-rule="nonzero"/><path fill="#000000" d="m289.60535 270.72733l-0.3125 1.40625l-0.5 0q-0.03125 -0.640625 -0.28125 -0.921875q-0.234375 -0.28125 -0.75 -0.28125q-0.4375 0 -0.828125 0.265625q-0.390625 0.25 -0.734375 0.734375q-0.328125 0.484375 -0.59375 1.140625q-0.25 0.65625 -0.390625 1.34375q-0.125 0.671875 -0.125 1.21875q0 0.84375 0.265625 1.25q0.28125 0.390625 0.875 0.390625q0.390625 0 0.671875 -0.109375q0.296875 -0.125 0.546875 -0.40625q0.265625 -0.28125 0.515625 -0.78125l0.5 0l-0.3125 1.484375q-0.53125 0.140625 -1.03125 0.203125q-0.5 0.0625 -1.015625 0.0625q-0.640625 0 -1.09375 -0.265625q-0.453125 -0.265625 -0.6875 -0.765625q-0.21875 -0.515625 -0.21875 -1.234375q0 -0.375 0.046875 -0.71875q0.0625 -0.4375 0.203125 -0.953125q0.171875 -0.640625 0.421875 -1.171875q0.28125 -0.546875 0.640625 -0.984375q0.34375 -0.390625 0.734375 -0.65625q0.359375 -0.25 0.78125 -0.375q0.421875 -0.140625 0.90625 -0.140625q0.46875 0 0.875 0.0625q0.40625 0.046875 0.890625 0.203125z" fill-rule="nonzero"/><path fill="#000000" d="m290.66745 281.7117q-0.328125 0 -0.5625 -0.125q-0.21875 -0.125 -0.359375 -0.40625q-0.125 -0.28125 -0.125 -0.734375q0 -0.40625 0.078125 -0.875q0.09375 -0.46875 0.234375 -0.890625q0.140625 -0.421875 0.34375 -0.765625q0.203125 -0.34375 0.4375 -0.578125q0.25 -0.234375 0.515625 -0.359375q0.28125 -0.125 0.578125 -0.125q0.28125 0 0.46875 0.09375q0.203125 0.09375 0.328125 0.25q0.125 0.15625 0.171875 0.390625q0.0625 0.21875 0.0625 0.484375q0 0.75 -0.21875 1.515625q-0.21875 0.765625 -0.5625 1.265625q-0.296875 0.4375 -0.671875 0.65625q-0.34375 0.203125 -0.71875 0.203125zm-0.4375 -1.046875q0 0.28125 0.046875 0.453125q0.046875 0.15625 0.140625 0.234375q0.109375 0.0625 0.28125 0.0625q0.265625 0 0.5 -0.25q0.25 -0.25 0.46875 -0.734375q0.21875 -0.5 0.390625 -1.25q0.1875 -0.765625 0.1875 -1.328125q0 -0.359375 -0.109375 -0.53125q-0.109375 -0.171875 -0.359375 -0.171875q-0.140625 0 -0.296875 0.078125q-0.171875 0.09375 -0.34375 0.3125q-0.203125 0.25 -0.375 0.6875q-0.15625 0.375 -0.28125 0.859375q-0.09375 0.359375 -0.15625 0.6875q-0.09375 0.5 -0.09375 0.890625z" fill-rule="nonzero"/><path fill="#000000" fill-opacity="0.0" d="m426.63748 102.07451l27.370087 0l0 45.259842l-27.370087 0z" fill-rule="evenodd"/><path fill="#000000" d="m443.4031 117.335754q1.234375 0 2.03125 0.203125q0.796875 0.1875 1.3125 0.59375q0.515625 0.390625 0.765625 1.015625q0.25 0.609375 0.25 1.421875q0 1.5625 -0.734375 2.703125q-0.734375 1.140625 -2.0 1.6875q-1.265625 0.546875 -3.03125 0.546875q-1.0625 0 -1.78125 -0.046875l-0.65625 3.0625q-0.09375 0.421875 -0.140625 0.65625q-0.03125 0.234375 -0.0625 0.5q-0.015625 0.265625 -0.015625 0.46875q0 0.328125 0.09375 0.515625q0.109375 0.171875 0.3125 0.265625q0.21875 0.078125 0.71875 0.109375l-0.109375 0.515625l-4.28125 0l0.109375 -0.515625q0.40625 -0.0625 0.59375 -0.203125q0.203125 -0.140625 0.328125 -0.390625q0.140625 -0.25 0.25 -0.609375q0.125 -0.359375 0.359375 -1.390625l1.765625 -8.015625q0.234375 -1.03125 0.234375 -1.640625q0 -0.515625 -0.25 -0.703125q-0.234375 -0.203125 -0.78125 -0.234375l0.125 -0.515625l4.59375 0zm-1.921875 7.265625q1.265625 0 2.03125 -0.265625q0.78125 -0.265625 1.265625 -0.8125q0.5 -0.546875 0.765625 -1.296875q0.28125 -0.75 0.28125 -1.640625q0 -0.875 -0.3125 -1.390625q-0.3125 -0.515625 -0.890625 -0.71875q-0.5625 -0.21875 -1.453125 -0.21875q-0.640625 0 -1.359375 0.03125l-1.40625 6.3125l1.078125 0z" fill-rule="nonzero"/><path fill="#a61c00" d="m220.11008 223.78227l0 0c0 -1.8699341 1.5158844 -3.3858185 3.3858185 -3.3858185l0 0c0.89797974 0 1.7591858 0.35671997 2.3941498 0.99168396c0.634964 0.634964 0.99168396 1.4961548 0.99168396 2.3941345l0 0c0 1.8699493 -1.5158844 3.3858337 -3.3858337 3.3858337l0 0c-1.8699341 0 -3.3858185 -1.5158844 -3.3858185 -3.3858337z" fill-rule="evenodd"/><path fill="#a61c00" d="m280.2508 335.53476l0 0c0 -1.8699646 1.5158997 -3.3858337 3.3858337 -3.3858337l0 0c0.89797974 0 1.7591858 0.35671997 2.3941345 0.9916687c0.63497925 0.63497925 0.9916992 1.4961853 0.9916992 2.394165l0 0c0 1.8699341 -1.5158997 3.3858032 -3.3858337 3.3858032l0 0c-1.8699341 0 -3.3858337 -1.5158691 -3.3858337 -3.3858032z" fill-rule="evenodd"/><path fill="#000000" fill-opacity="0.0" d="m450.5261 183.01976l46.80316 0l0 35.55905l-46.80316 0z" fill-rule="evenodd"/><path fill="#000000" d="m464.36984 195.92912q0.78125 0 1.28125 0.125q0.5 0.125 0.8125 0.375q0.328125 0.25 0.484375 0.640625q0.15625 0.375 0.15625 0.890625q0 0.96875 -0.46875 1.6875q-0.453125 0.71875 -1.25 1.0625q-0.78125 0.328125 -1.890625 0.328125q-0.65625 0 -1.109375 -0.03125l-0.40625 1.921875q-0.0625 0.265625 -0.09375 0.40625q-0.015625 0.140625 -0.03125 0.3125q-0.015625 0.15625 -0.015625 0.296875q0 0.203125 0.0625 0.3125q0.0625 0.109375 0.1875 0.171875q0.140625 0.046875 0.453125 0.078125l-0.0625 0.3125l-2.6875 0l0.078125 -0.3125q0.25 -0.046875 0.375 -0.125q0.125 -0.09375 0.203125 -0.25q0.09375 -0.15625 0.15625 -0.375q0.078125 -0.234375 0.21875 -0.875l1.109375 -5.015625q0.140625 -0.640625 0.140625 -1.03125q0 -0.3125 -0.15625 -0.4375q-0.140625 -0.125 -0.484375 -0.140625l0.078125 -0.328125l2.859375 0zm-1.1875 4.546875q0.78125 0 1.265625 -0.15625q0.484375 -0.171875 0.796875 -0.515625q0.3125 -0.34375 0.46875 -0.8125q0.171875 -0.46875 0.171875 -1.03125q0 -0.546875 -0.203125 -0.859375q-0.1875 -0.328125 -0.546875 -0.453125q-0.34375 -0.140625 -0.90625 -0.140625q-0.40625 0 -0.84375 0.015625l-0.890625 3.953125l0.6875 0z" fill-rule="nonzero"/><path fill="#000000" d="m470.55057 203.83537q0.546875 0 0.9375 0.21875q0.390625 0.203125 0.59375 0.625q0.21875 0.421875 0.21875 1.046875q0 0.671875 -0.234375 1.515625q-0.234375 0.828125 -0.671875 1.453125q-0.4375 0.609375 -1.0 0.90625q-0.546875 0.296875 -1.15625 0.296875q-0.609375 0 -1.015625 -0.234375q-0.390625 -0.234375 -0.578125 -0.65625q-0.1875 -0.421875 -0.1875 -0.984375q0 -0.546875 0.15625 -1.234375q0.171875 -0.6875 0.4375 -1.234375q0.28125 -0.546875 0.65625 -0.921875q0.375 -0.390625 0.84375 -0.59375q0.46875 -0.203125 1.0 -0.203125zm0.921875 1.703125q0 -1.328125 -0.96875 -1.328125q-0.234375 0 -0.4375 0.078125q-0.25 0.09375 -0.46875 0.28125q-0.25 0.21875 -0.453125 0.546875q-0.25 0.390625 -0.4375 0.890625q-0.203125 0.515625 -0.3125 1.125q-0.109375 0.578125 -0.109375 1.046875q0 0.671875 0.234375 1.0q0.25 0.328125 0.734375 0.328125q0.390625 0 0.734375 -0.234375q0.4375 -0.296875 0.78125 -0.921875q0.375 -0.6875 0.578125 -1.65625q0.125 -0.578125 0.125 -1.15625z" fill-rule="nonzero"/><path fill="#000000" fill-opacity="0.0" d="m457.5554 193.17505l-34.519684 -3.3385773" fill-rule="evenodd"/><path stroke="#0b5394" stroke-width="2.0" stroke-linejoin="round" stroke-linecap="butt" d="m457.55542 193.17505l-22.57544 -2.1833954" fill-rule="evenodd"/><path fill="#0b5394" stroke="#0b5394" stroke-width="2.0" stroke-linecap="butt" d="m435.298 187.70354l-9.352051 2.4143982l8.716034 4.16185z" fill-rule="evenodd"/><path fill="#1c4587" d="m458.4415 190.09567l0 0c-1.6525269 -0.904541 -3.7677002 -0.22062683 -4.7244263 1.5275574l0 0c-0.45941162 0.8394928 -0.58480835 1.8171692 -0.34854126 2.7179413c0.23626709 0.90075684 0.81481934 1.6508331 1.6083984 2.085205l0 0c1.6524963 0.90452576 3.7677002 0.22061157 4.7243958 -1.5275574l0 0c0.9567261 -1.7481842 0.39266968 -3.8986206 -1.2598267 -4.8031464z" fill-rule="evenodd"/><path fill="#000000" fill-opacity="0.0" d="m228.38391 222.55962l170.61417 -119.71653" fill-rule="evenodd"/><path stroke="#999999" stroke-width="1.0" stroke-linejoin="round" stroke-linecap="butt" stroke-dasharray="1.0,3.0" d="m228.38391 222.55962l170.61417 -119.71653" fill-rule="evenodd"/><path fill="#000000" fill-opacity="0.0" d="m313.33063 303.42056c1.3409729 -9.350952 10.24942 -18.67746 21.188934 -22.18335c10.939514 -3.5058594 20.797852 -0.19369507 23.448334 7.8780823c2.6504517 8.071777 -2.6610413 18.606781 -12.633484 25.05777l-9.433075 -14.551178z" fill-rule="evenodd"/><path fill="#000000" fill-opacity="0.0" d="m313.33063 303.42056c1.3409729 -9.350952 10.24942 -18.67746 21.188934 -22.18335c10.939514 -3.5058594 20.797852 -0.19369507 23.448334 7.8780823c2.6504517 8.071777 -2.6610413 18.606781 -12.633484 25.05777" fill-rule="evenodd"/><path stroke="#000000" stroke-width="2.0" stroke-linejoin="round" stroke-linecap="butt" d="m313.33063 303.42056c1.3409729 -9.350983 10.24939 -18.67746 21.188934 -22.18335c10.939514 -3.5058594 20.797852 -0.19369507 23.448334 7.8780823c1.3252563 4.035919 0.65997314 8.687592 -1.5831299 13.136688c-0.560791 1.1122742 -1.2201843 2.2118835 -1.9717407 3.2860413c-0.37579346 0.53707886 -0.7746277 1.06781 -1.1956787 1.5905762c-0.21054077 0.26135254 -0.42663574 0.52075195 -0.64816284 0.7779236c-0.110809326 0.12863159 -0.22293091 0.25668335 -0.33639526 0.38415527l-0.04458618 0.049224854" fill-rule="evenodd"/><path fill="#000000" stroke="#000000" stroke-width="2.0" stroke-linecap="butt" d="m350.75482 306.65576l-3.1938477 5.6223145l6.0605774 -2.2539673z" fill-rule="evenodd"/><path fill="#000000" fill-opacity="0.0" d="m177.96822 228.31111l40.881897 0l0 38.771652l-40.881897 0z" fill-rule="evenodd"/><path fill="#000000" d="m189.90572 250.38986q-0.046875 0.234375 -0.078125 0.40625q-0.03125 0.15625 -0.0625 0.40625q-0.015625 0.234375 -0.015625 0.40625q0 0.25 0.078125 0.390625q0.078125 0.125 0.234375 0.1875q0.15625 0.0625 0.53125 0.09375l-0.078125 0.390625l-3.21875 0l0.09375 -0.390625q0.296875 -0.046875 0.4375 -0.140625q0.15625 -0.109375 0.25 -0.296875q0.109375 -0.1875 0.1875 -0.453125q0.09375 -0.28125 0.265625 -1.046875l1.328125 -6.015625q0.171875 -0.78125 0.171875 -1.234375q0 -0.390625 -0.1875 -0.53125q-0.171875 -0.15625 -0.578125 -0.171875l0.078125 -0.390625l7.046875 0l-0.53125 2.40625l-0.75 0q-0.03125 -0.5625 -0.09375 -0.875q-0.046875 -0.3125 -0.140625 -0.46875q-0.078125 -0.15625 -0.1875 -0.234375q-0.09375 -0.078125 -0.25 -0.109375q-0.140625 -0.03125 -0.421875 -0.03125l-2.40625 0l-0.9375 4.25l1.46875 0q0.34375 0 0.5625 -0.09375q0.234375 -0.09375 0.421875 -0.328125q0.203125 -0.25 0.484375 -0.84375l0.71875 0l-0.765625 3.296875l-0.6875 0q0 -0.484375 -0.015625 -0.75q-0.015625 -0.28125 -0.09375 -0.390625q-0.078125 -0.109375 -0.21875 -0.15625q-0.125 -0.046875 -0.484375 -0.046875l-1.53125 0l-0.625 2.765625z" fill-rule="nonzero"/><path fill="#000000" d="m202.7275 239.74924l-0.3125 1.40625l-0.5 0q-0.03125 -0.640625 -0.28125 -0.921875q-0.234375 -0.28125 -0.75 -0.28125q-0.4375 0 -0.828125 0.265625q-0.390625 0.25 -0.734375 0.734375q-0.328125 0.484375 -0.59375 1.140625q-0.25 0.65625 -0.390625 1.34375q-0.125 0.671875 -0.125 1.21875q0 0.84375 0.265625 1.25q0.28125 0.390625 0.875 0.390625q0.390625 0 0.671875 -0.109375q0.296875 -0.125 0.546875 -0.40625q0.265625 -0.28125 0.515625 -0.78125l0.5 0l-0.3125 1.484375q-0.53125 0.140625 -1.03125 0.203125q-0.5 0.0625 -1.015625 0.0625q-0.640625 0 -1.09375 -0.265625q-0.453125 -0.265625 -0.6875 -0.765625q-0.21875 -0.515625 -0.21875 -1.234375q0 -0.375 0.046875 -0.71875q0.0625 -0.4375 0.203125 -0.953125q0.171875 -0.640625 0.421875 -1.171875q0.28125 -0.546875 0.640625 -0.984375q0.34375 -0.390625 0.734375 -0.65625q0.359375 -0.25 0.78125 -0.375q0.421875 -0.140625 0.90625 -0.140625q0.46875 0 0.875 0.0625q0.40625 0.046875 0.890625 0.203125z" fill-rule="nonzero"/><path fill="#000000" fill-opacity="0.0" d="m318.20914 281.44376l48.125977 0l0 38.771637l-48.125977 0z" fill-rule="evenodd"/><path fill="#000000" d="m332.77164 305.80374l-3.28125 0l0.078125 -0.390625q0.3125 -0.03125 0.453125 -0.109375q0.15625 -0.09375 0.265625 -0.25q0.109375 -0.171875 0.21875 -0.515625q0.125 -0.34375 0.28125 -1.0625l1.671875 -7.65625l-0.984375 0q-0.484375 0 -0.78125 0.140625q-0.28125 0.140625 -0.578125 0.53125q-0.28125 0.375 -0.703125 1.28125l-0.75 0l0.59375 -2.640625l8.15625 0l-0.609375 2.75l-0.75 0q0 -0.75 -0.046875 -1.125q-0.03125 -0.390625 -0.140625 -0.578125q-0.109375 -0.203125 -0.28125 -0.28125q-0.15625 -0.078125 -0.5625 -0.078125l-1.15625 0l-1.6875 7.703125q-0.078125 0.3125 -0.109375 0.5q-0.015625 0.171875 -0.046875 0.375q-0.015625 0.1875 -0.015625 0.34375q0 0.25 0.078125 0.390625q0.078125 0.125 0.234375 0.1875q0.15625 0.0625 0.546875 0.09375l-0.09375 0.390625z" fill-rule="nonzero"/><path fill="#000000" d="m343.7184 292.88187l-0.3125 1.40625l-0.5 0q-0.03125 -0.640625 -0.28125 -0.921875q-0.234375 -0.28125 -0.75 -0.28125q-0.4375 0 -0.828125 0.265625q-0.390625 0.25 -0.734375 0.734375q-0.328125 0.484375 -0.59375 1.140625q-0.25 0.65625 -0.390625 1.34375q-0.125 0.671875 -0.125 1.21875q0 0.84375 0.265625 1.25q0.28125 0.390625 0.875 0.390625q0.390625 0 0.671875 -0.109375q0.296875 -0.125 0.546875 -0.40625q0.265625 -0.28125 0.515625 -0.78125l0.5 0l-0.3125 1.484375q-0.53125 0.140625 -1.03125 0.203125q-0.5 0.0625 -1.015625 0.0625q-0.640625 0 -1.09375 -0.265625q-0.453125 -0.265625 -0.6875 -0.765625q-0.21875 -0.515625 -0.21875 -1.234375q0 -0.375 0.046875 -0.71875q0.0625 -0.4375 0.203125 -0.953125q0.171875 -0.640625 0.421875 -1.171875q0.28125 -0.546875 0.640625 -0.984375q0.34375 -0.390625 0.734375 -0.65625q0.359375 -0.25 0.78125 -0.375q0.421875 -0.140625 0.90625 -0.140625q0.46875 0 0.875 0.0625q0.40625 0.046875 0.890625 0.203125z" fill-rule="nonzero"/><path fill="#000000" fill-opacity="0.0" d="m422.07422 45.227867l-22.803162 58.4252" fill-rule="evenodd"/><path stroke="#000000" stroke-width="2.0" stroke-linejoin="round" stroke-linecap="butt" d="m417.71115 56.406605l-18.440125 47.246456" fill-rule="evenodd"/><path fill="#000000" stroke="#000000" stroke-width="2.0" stroke-linecap="butt" d="m420.78854 57.607693l0.22259521 -9.65612l-6.37735 7.253937z" fill-rule="evenodd"/><path fill="#000000" fill-opacity="0.0" d="m405.78235 60.24005l40.881897 0l0 38.771652l-40.881897 0z" fill-rule="evenodd"/><path fill="#000000" d="m417.71985 82.3188q-0.046875 0.234375 -0.078125 0.40625q-0.03125 0.15625 -0.0625 0.40625q-0.015625 0.234375 -0.015625 0.40625q0 0.25 0.078125 0.390625q0.078125 0.125 0.234375 0.1875q0.15625 0.0625 0.53125 0.09375l-0.078125 0.390625l-3.21875 0l0.09375 -0.390625q0.296875 -0.046875 0.4375 -0.140625q0.15625 -0.109375 0.25 -0.296875q0.109375 -0.1875 0.1875 -0.453125q0.09375 -0.28125 0.265625 -1.046875l1.328125 -6.015625q0.171875 -0.78125 0.171875 -1.234375q0 -0.390625 -0.1875 -0.53125q-0.171875 -0.15625 -0.578125 -0.171875l0.078125 -0.390625l7.046875 0l-0.53125 2.40625l-0.75 0q-0.03125 -0.5625 -0.09375 -0.875q-0.046875 -0.3125 -0.140625 -0.46875q-0.078125 -0.15625 -0.1875 -0.234375q-0.09375 -0.078125 -0.25 -0.109375q-0.140625 -0.03125 -0.421875 -0.03125l-2.40625 0l-0.9375 4.25l1.46875 0q0.34375 0 0.5625 -0.09375q0.234375 -0.09375 0.421875 -0.328125q0.203125 -0.25 0.484375 -0.84375l0.71875 0l-0.765625 3.296875l-0.6875 0q0 -0.484375 -0.015625 -0.75q-0.015625 -0.28125 -0.09375 -0.390625q-0.078125 -0.109375 -0.21875 -0.15625q-0.125 -0.046875 -0.484375 -0.046875l-1.53125 0l-0.625 2.765625z" fill-rule="nonzero"/><path fill="#000000" d="m428.26038 71.49068q0.625 0 1.015625 0.109375q0.40625 0.09375 0.65625 0.296875q0.265625 0.1875 0.390625 0.5q0.125 0.3125 0.125 0.71875q0 0.78125 -0.375 1.359375q-0.359375 0.5625 -1.0 0.84375q-0.625 0.265625 -1.515625 0.265625q-0.53125 0 -0.875 -0.03125l-0.34375 1.53125q-0.046875 0.21875 -0.0625 0.328125q-0.015625 0.109375 -0.03125 0.25q-0.015625 0.125 -0.015625 0.234375q0 0.15625 0.046875 0.25q0.0625 0.09375 0.15625 0.140625q0.109375 0.03125 0.375 0.0625l-0.0625 0.25l-2.140625 0l0.0625 -0.25q0.1875 -0.03125 0.28125 -0.09375q0.109375 -0.078125 0.171875 -0.203125q0.078125 -0.125 0.125 -0.296875q0.0625 -0.1875 0.171875 -0.703125l0.890625 -4.015625q0.109375 -0.515625 0.109375 -0.8125q0 -0.265625 -0.125 -0.359375q-0.109375 -0.09375 -0.375 -0.109375l0.046875 -0.265625l2.296875 0zm-0.953125 3.640625q0.625 0 1.015625 -0.125q0.390625 -0.140625 0.625 -0.40625q0.25 -0.28125 0.390625 -0.65625q0.140625 -0.375 0.140625 -0.828125q0 -0.4375 -0.15625 -0.6875q-0.15625 -0.265625 -0.453125 -0.359375q-0.28125 -0.109375 -0.71875 -0.109375q-0.328125 0 -0.6875 0.015625l-0.703125 3.15625l0.546875 0z" fill-rule="nonzero"/><path fill="#000000" fill-opacity="0.0" d="m423.8525 215.78079c-1.2841797 8.903503 -9.774933 17.780533 -20.195892 21.114655c-10.420959 3.334137 -19.807648 0.17687988 -22.326843 -7.5097504c-2.519226 -7.6866302 2.5456543 -17.715988 12.04715 -23.85553l8.976379 13.858261z" fill-rule="evenodd"/><path fill="#000000" fill-opacity="0.0" d="m423.8525 215.78079c-1.2841797 8.903503 -9.774933 17.780533 -20.195892 21.114655c-10.420959 3.334137 -19.807648 0.17687988 -22.326843 -7.5097504c-2.519226 -7.6866302 2.5456543 -17.715988 12.04715 -23.85553" fill-rule="evenodd"/><path stroke="#000000" stroke-width="2.0" stroke-linejoin="round" stroke-linecap="butt" d="m420.5649 224.15883l-0.11782837 0.1829071c-0.08508301 0.12957764 -0.17147827 0.25868225 -0.25924683 0.3873291c-0.17544556 0.2572937 -0.3562317 0.5127106 -0.5420532 0.766098c-0.7433777 1.0134888 -1.5684814 1.9942322 -2.4649353 2.9314728c-3.5858154 3.7489777 -8.313751 6.801758 -13.524231 8.468811c-10.420959 3.334137 -19.807617 0.17687988 -22.326843 -7.5097504c-2.5192566 -7.6866302 2.5456238 -17.715973 12.04715 -23.85553" fill-rule="evenodd"/><path fill="#000000" stroke="#000000" stroke-width="2.0" stroke-linecap="butt" d="m422.62363 224.9667l0.16085815 -6.464157l-4.2783203 4.848419z" fill-rule="evenodd"/><path fill="#000000" fill-opacity="0.0" d="m384.73883 201.0827l40.881897 0l0 38.771667l-40.881897 0z" fill-rule="evenodd"/><path fill="#000000" d="m399.30133 225.4427l-3.28125 0l0.078125 -0.390625q0.3125 -0.03125 0.453125 -0.109375q0.15625 -0.09375 0.265625 -0.25q0.109375 -0.171875 0.21875 -0.515625q0.125 -0.34375 0.28125 -1.0625l1.671875 -7.65625l-0.984375 0q-0.484375 0 -0.78125 0.140625q-0.28125 0.140625 -0.578125 0.53125q-0.28125 0.375 -0.703125 1.28125l-0.75 0l0.59375 -2.640625l8.15625 0l-0.609375 2.75l-0.75 0q0 -0.75 -0.046875 -1.125q-0.03125 -0.390625 -0.140625 -0.578125q-0.109375 -0.203125 -0.28125 -0.28125q-0.15625 -0.078125 -0.5625 -0.078125l-1.15625 0l-1.6875 7.703125q-0.078125 0.3125 -0.109375 0.5q-0.015625 0.171875 -0.046875 0.375q-0.015625 0.1875 -0.015625 0.34375q0 0.25 0.078125 0.390625q0.078125 0.125 0.234375 0.1875q0.15625 0.0625 0.546875 0.09375l-0.09375 0.390625z" fill-rule="nonzero"/><path fill="#000000" d="m407.96686 212.33333q0.625 0 1.015625 0.109375q0.40625 0.09375 0.65625 0.296875q0.265625 0.1875 0.390625 0.5q0.125 0.3125 0.125 0.71875q0 0.78125 -0.375 1.359375q-0.359375 0.5625 -1.0 0.84375q-0.625 0.265625 -1.515625 0.265625q-0.53125 0 -0.875 -0.03125l-0.34375 1.53125q-0.046875 0.21875 -0.0625 0.328125q-0.015625 0.109375 -0.03125 0.25q-0.015625 0.125 -0.015625 0.234375q0 0.15625 0.046875 0.25q0.0625 0.09375 0.15625 0.140625q0.109375 0.03125 0.375 0.0625l-0.0625 0.25l-2.140625 0l0.0625 -0.25q0.1875 -0.03125 0.28125 -0.09375q0.109375 -0.078125 0.171875 -0.203125q0.078125 -0.125 0.125 -0.296875q0.0625 -0.1875 0.171875 -0.703125l0.890625 -4.015625q0.109375 -0.515625 0.109375 -0.8125q0 -0.265625 -0.125 -0.359375q-0.109375 -0.09375 -0.375 -0.109375l0.046875 -0.265625l2.296875 0zm-0.953125 3.640625q0.625 0 1.015625 -0.125q0.390625 -0.140625 0.625 -0.40625q0.25 -0.28125 0.390625 -0.65625q0.140625 -0.375 0.140625 -0.828125q0 -0.4375 -0.15625 -0.6875q-0.15625 -0.265625 -0.453125 -0.359375q-0.28125 -0.109375 -0.71875 -0.109375q-0.328125 0 -0.6875 0.015625l-0.703125 3.15625l0.546875 0z" fill-rule="nonzero"/><path fill="#000000" fill-opacity="0.0" d="m357.9561 276.92078l27.590576 -36.440933" fill-rule="evenodd"/><path stroke="#999999" stroke-width="1.0" stroke-linejoin="round" stroke-linecap="butt" stroke-dasharray="1.0,3.0" d="m357.9561 276.92078l27.590576 -36.440933" fill-rule="evenodd"/></g></svg>