<svg version="1.1" viewBox="0.0 0.0 672.0 432.0" fill="none" stroke="none" stroke-linecap="square" stroke-miterlimit="10" xmlns:xlink="http://www.w3.org/1999/xlink" xmlns="http://www.w3.org/2000/svg"><clipPath id="g2a566ab5395_0_423.0"><path d="m0 0l672.0 0l0 432.0l-672.0 0l0 -432.0z" clip-rule="nonzero"/></clipPath><g clip-path="url(#g2a566ab5395_0_423.0)"><path fill="#ffffff" d="m0 0l672.0 0l0 432.0l-672.0 0z" fill-rule="evenodd"/><path fill="#eeeeee" d="m468.2843 123.703415l65.030396 49.528976l-49.46454 64.93701l-65.030426 -49.528976z" fill-rule="evenodd"/><path fill="#bebebe" d="m533.3147 173.23239l38.13495 -5.158905l-49.46454 64.93701l-38.13495 5.158905z" fill-rule="evenodd"/><path fill="#f1f1f1" d="m468.2843 123.703415l38.13495 -5.1588974l65.030396 49.52897l-38.13495 5.158905z" fill-rule="evenodd"/><path fill="#000000" fill-opacity="0.0" d="m468.2843 123.703415l38.13495 -5.1588974l65.030396 49.52897l-49.46454 64.93701l-38.13495 5.158905l-65.030426 -49.528976zm0 0l65.030396 49.528976l38.13495 -5.158905m-38.13495 5.158905l-49.46454 64.93701" fill-rule="evenodd"/><path stroke="#595959" stroke-width="1.0" stroke-linejoin="round" stroke-linecap="butt" d="m468.2843 123.703415l38.13495 -5.1588974l65.030396 49.52897l-49.46454 64.93701l-38.13495 5.158905l-65.030426 -49.528976zm0 0l65.030396 49.528976l38.13495 -5.158905m-38.13495 5.158905l-49.46454 64.93701" fill-rule="evenodd"/><path fill="#000000" fill-opacity="0.0" d="m453.0351 223.05016l-142.04724 32.440933" fill-rule="evenodd"/><path stroke="#999999" stroke-width="1.0" stroke-linejoin="round" stroke-linecap="butt" stroke-dasharray="4.0,3.0" d="m453.0351 223.05016l-142.04724 32.440933" fill-rule="evenodd"/><path fill="#000000" fill-opacity="0.0" d="m137.68932 233.86093l296.5039 -67.2126l25.763794 113.44881l-296.50394 67.212616z" fill-rule="evenodd"/><path fill="#000000" d="m239.4888 225.7839l-0.01776123 -1.2776947q0.65045166 -0.45184326 1.2170715 -0.7084656q0.5631561 -0.2718506 1.2031708 -0.41693115q0.42666626 -0.096710205 0.8131561 -0.0881958q0.3864746 0.008514404 0.7057495 0.14442444q0.3192749 0.13589478 0.5443268 0.42134094q0.23683167 0.2667389 0.33026123 0.67814636q0.13494873 0.5942383 0.010177612 1.1031647q-0.1282196 0.49368286 -0.5598297 0.9920502q-0.41635132 0.49491882 -1.2205963 1.0457306l0.013839722 0.060943604q0.83392334 0.0032196045 1.3560791 0.39753723q0.53741455 0.39086914 0.696579 1.0917664q0.11766052 0.5180664 0.010192871 1.1031799q-0.10746765 0.58509827 -0.4476471 1.0627441q-0.3283844 0.45896912 -0.8929291 0.7952118q-0.5493164 0.33280945 -1.3569489 0.5158844q-0.5942993 0.13471985 -1.2924805 0.16481018q-0.6863861 0.011398315 -1.1580505 -0.08996582l-0.014968872 -1.4064941l0.7314453 -0.165802q0.17581177 0.6330414 0.5954895 0.8583374q0.419693 0.22529602 1.0901794 0.07330322q0.64001465 -0.14508057 1.0196381 -0.519516q0.39486694 -0.37789917 0.5175781 -0.9664612q0.13447571 -0.607254 -0.021224976 -1.292923q-0.15571594 -0.68566895 -0.67375183 -0.92071533q-0.52149963 -0.25027466 -1.4053345 -0.049926758l-0.6247711 0.14163208l-0.002670288 -0.5761719q0.74809265 -0.23365784 1.275238 -0.59347534q0.5423889 -0.36328125 0.828537 -0.79663086q0.30136108 -0.43681335 0.36724854 -0.85227966q0.062408447 -0.43070984 -0.027557373 -0.8268738q-0.12110901 -0.5332947 -0.5068512 -0.7502594q-0.37051392 -0.22041321 -0.9038696 -0.09951782q-0.6095276 0.1381836 -0.93652344 0.5327301q-0.33044434 0.37931824 -0.4697876 1.0357361l-0.7924042 0.17962646zm13.657318 3.024292q-0.37277222 0.7574005 -0.8182068 1.1948242q-0.4302063 0.43397522 -0.9940338 0.56178284q-0.67048645 0.15197754 -1.0818481 -0.10723877q-0.4148407 -0.27445984 -0.56362915 -0.9296417q-0.08996582 -0.39616394 -0.08224487 -0.9266205l0.04496765 -3.4708252l-0.9600067 0.21762085l0.0035247803 -0.33724976q0.37057495 -0.13206482 0.55622864 -0.3023224q0.18565369 -0.17025757 0.29652405 -0.38764954q0.10739136 -0.23262024 0.16009521 -0.56500244q0.06448364 -0.35105896 0.11239624 -0.9867554l0.8838196 -0.2003479l0.00592041 1.6488647l2.0114746 -0.4559784l0.008178711 0.671051l-2.026703 0.45942688l-0.0524292 2.5913239q-0.023757935 1.0948486 0.09043884 1.5976715q0.08996582 0.39616394 0.30256653 0.5562439q0.22784424 0.15663147 0.54785156 0.08409119q0.28953552 -0.06562805 0.55763245 -0.36672974q0.26809692 -0.30110168 0.54525757 -0.8445587l0.45222473 0.2980194zm1.6102295 -5.5719757l0.38095093 -0.08634949l-0.085494995 1.6695862l0.07965088 -0.0020446777q0.4074402 -0.9575043 0.89653015 -1.4849396q0.48562622 -0.5426636 1.0951538 -0.6808319q0.45715332 -0.10362244 0.77923584 -0.0965271l0.017028809 1.4861298l-0.6552429 0.14852905q-0.12185669 -0.32484436 -0.26657104 -0.46827698q-0.14474487 -0.14343262 -0.37332153 -0.09161377q-0.24380493 0.055267334 -0.52023315 0.3902893q-0.26463318 0.3163452 -0.49606323 0.8494415q-0.2348938 0.51786804 -0.31600952 0.9367981q-0.08457947 0.40368652 -0.07220459 0.8815155l0.043792725 2.873932l-1.097168 0.248703l-0.007461548 -4.5483856q-0.016494751 -0.6371155 -0.08570862 -0.941864q-0.041519165 -0.18283081 -0.12322998 -0.260437q-0.06994629 -0.09629822 -0.21746826 -0.1109314q-0.1322937 -0.018066406 -0.44052124 0.03578186l7.6293945E-5 -0.3524933l1.4642792 -0.39601135zm8.007477 -1.4306488l0.500885 -0.54611206l0.41696167 0.0016021729l0.019226074 4.529709q-0.00491333 0.40164185 0.013031006 0.62187195q0.014526367 0.20498657 0.045654297 0.3421173q0.05883789 0.2590332 0.22366333 0.34983826q0.18005371 0.08735657 0.5984192 0.02456665l0.008239746 0.31855774l-1.8133545 0.41105652l0.03286743 -1.6896973l-0.07965088 0.002029419q-0.408844 1.0219269 -0.86398315 1.5576782q-0.45516968 0.53575134 -1.0646973 0.67393494q-0.70095825 0.15888977 -1.199585 -0.2728119q-0.5020752 -0.44692993 -0.71661377 -1.3916321q-0.13839722 -0.6094818 -0.13967896 -1.2500458q-0.004699707 -0.6558075 0.14501953 -1.2665253q0.16494751 -0.61416626 0.4677124 -1.1153717q0.2993164 -0.516449 0.76205444 -0.87768555q0.46273804 -0.36123657 1.0722961 -0.49942017q0.3961792 -0.08981323 0.76742554 -0.07783508q0.37124634 0.011978149 0.80410767 0.1541748zm-0.119506836 2.0137482q-0.013092041 -0.26939392 -0.039398193 -0.45568848q-0.01449585 -0.20500183 -0.06295776 -0.4183197q-0.11416626 -0.5028229 -0.37594604 -0.6677704q-0.2652588 -0.1802063 -0.75286865 -0.06965637q-0.25906372 0.05871582 -0.4821167 0.20541382q-0.22650146 0.13145447 -0.425354 0.38479614q-0.19882202 0.25335693 -0.35125732 0.64038086q-0.1559143 0.37179565 -0.23498535 0.8703613q-0.07904053 0.49855042 -0.06460571 1.0560303q0.029693604 0.5540161 0.14385986 1.056839q0.14880371 0.65519714 0.3925476 0.9524231q0.25552368 0.27851868 0.68222046 0.18179321q0.1980896 -0.044906616 0.39065552 -0.18467712q0.19256592 -0.13978577 0.39971924 -0.427063q0.20370483 -0.30252075 0.43511963 -0.83561707q0.20788574 -0.49572754 0.2821045 -0.9451294q0.07070923 -0.46463013 0.06460571 -1.0560303l-0.0013427734 -0.28808594zm8.96402 2.037445l-1.9962158 0.4524994l0.058807373 -3.4098663q0.0069885254 -0.32200623 1.5258789E-4 -0.7049713q-0.010314941 -0.39819336 -0.07952881 -0.7029419q-0.1003418 -0.44187927 -0.2977295 -0.6054077q-0.19735718 -0.1635437 -0.5325928 -0.08753967q-0.274292 0.062164307 -0.53060913 0.34457397q-0.25979614 0.26716614 -0.50161743 0.7545624q-0.24182129 0.48739624 -0.37350464 0.96585083q-0.13516235 0.46321106 -0.13388062 1.103775l0.043792725 2.873932l-1.097168 0.24871826l-0.0074768066 -4.548401q-0.004119873 -0.15927124 -0.024139404 -0.45913696q-0.0047912598 -0.30332947 -0.046325684 -0.48617554q-0.041534424 -0.18284607 -0.12322998 -0.26045227q-0.06994629 -0.09628296 -0.21746826 -0.11091614q-0.1322937 -0.018066406 -0.4557495 0.039230347l6.1035156E-5 -0.3524933l1.4338074 -0.38909912l0.35049438 -0.079452515l-0.037719727 1.7388611l0.083099365 0.013214111q0.41229248 -1.0066833 0.8944702 -1.5645905q0.48217773 -0.55789185 1.0612183 -0.6891632q0.6095581 -0.13816833 1.0091553 0.13973999q0.39611816 0.26268005 0.5449219 0.9178772q0.051879883 0.22854614 0.06845093 0.5131836q0.031829834 0.2811737 0.019317627 0.5083008l-0.021240234 2.3759918q-0.0028686523 0.48127747 0.05596924 0.74031067q0.04498291 0.1980896 0.13015747 0.29092407q0.10040283 0.08938599 0.23617554 0.12271118q0.15097046 0.029846191 0.462677 -0.008758545l0.023468018 0.31510925zm4.1164856 -5.7555847q-0.20767212 -0.56173706 -0.5220947 -0.7468109q-0.30264282 -0.20376587 -0.8512268 -0.07940674q-0.28952026 0.06562805 -0.50912476 0.22755432q-0.21957397 0.16192627 -0.30828857 0.40634155q-0.0887146 0.24440002 -0.022949219 0.533905q0.051879883 0.2285614 0.18829346 0.4059143q0.13644409 0.1773529 0.41345215 0.3388672q0.27355957 0.1462555 0.73202515 0.330719q0.7182007 0.2697754 1.052002 0.610672q0.33032227 0.32565308 0.44451904 0.82847595q0.13494873 0.5942383 -0.05770874 1.0865021q-0.18084717 0.47358704 -0.6352844 0.80088806q-0.44265747 0.30862427 -1.0674133 0.45025635q-0.56381226 0.12780762 -1.0722046 0.14691162q-0.48971558 0.030899048 -0.97454834 0.012634277l-0.021881104 -1.436966l0.50286865 -0.113983154q0.17721558 0.56863403 0.51724243 0.7959595q0.35525513 0.22387695 0.9190979 0.096069336q0.56381226 -0.12780762 0.80630493 -0.4711609q0.25424194 -0.3620453 0.14697266 -0.83439636q-0.062286377 -0.27426147 -0.20214844 -0.4668579q-0.13986206 -0.19259644 -0.39819336 -0.34231567q-0.24307251 -0.15316772 -0.6641846 -0.3140564q-0.47369385 -0.18099976 -0.7728882 -0.3695221q-0.29916382 -0.18852234 -0.5020752 -0.4469452q-0.20288086 -0.2584076 -0.2824707 -0.60887146q-0.11764526 -0.51805115 0.054901123 -0.95770264q0.1690979 -0.45487976 0.5964966 -0.76005554q0.43917847 -0.32385254 1.0791931 -0.4689331q1.0514526 -0.23834229 1.9061279 -0.14370728l0.008056641 1.3760223l-0.50286865 0.11399841zm2.9519348 -5.3954773l0.38098145 -0.086364746l0.05670166 7.86969q-0.0069885254 0.32200623 0.012359619 0.47782898q0.019378662 0.15582275 0.04360962 0.2624817q0.04498291 0.1980896 0.13015747 0.29092407q0.08517456 0.09284973 0.22091675 0.12615967q0.15097046 0.02986145 0.462677 -0.008758545l0.023498535 0.31510925l-1.9810181 0.44906616l-0.008239746 -7.656372q-0.0013427734 -0.28808594 -0.017242432 -0.42866516q-0.004119873 -0.1592865 -0.016571045 -0.28463745q-0.012451172 -0.12535095 -0.03668213 -0.23200989q-0.041503906 -0.18284607 -0.13845825 -0.25698853q-0.08517456 -0.09284973 -0.23269653 -0.10746765q-0.14752197 -0.01461792 -0.48623657 0.04612732l6.1035156E-5 -0.35247803l1.5861816 -0.42364502zm6.3074036 2.0628815l0.5008545 -0.54611206l0.41696167 0.0016021729l0.019256592 4.529709q-0.0049438477 0.40164185 0.013031006 0.62187195q0.014526367 0.20498657 0.045654297 0.3421173q0.05883789 0.2590332 0.22366333 0.34983826q0.18005371 0.08735657 0.5984192 0.02456665l0.008239746 0.31855774l-1.8133545 0.41105652l0.03286743 -1.6896973l-0.07965088 0.0020446777q-0.408844 1.0219116 -0.8640137 1.557663q-0.45513916 0.53575134 -1.0646667 0.67393494q-0.70098877 0.15888977 -1.199585 -0.2728119q-0.5020752 -0.44692993 -0.71661377 -1.3916321q-0.13839722 -0.6094818 -0.13967896 -1.2500458q-0.0047302246 -0.6558075 0.14501953 -1.2665253q0.16494751 -0.61416626 0.4677124 -1.1153717q0.2993164 -0.516449 0.76205444 -0.87768555q0.46273804 -0.36123657 1.0722656 -0.49942017q0.39620972 -0.08981323 0.76745605 -0.07783508q0.37124634 0.011978149 0.80410767 0.1541748zm-0.119506836 2.0137482q-0.013122559 -0.26939392 -0.039398193 -0.45568848q-0.01449585 -0.20500183 -0.06295776 -0.4183197q-0.11416626 -0.5028229 -0.37597656 -0.6677704q-0.26522827 -0.1802063 -0.75286865 -0.06965637q-0.2590332 0.05871582 -0.48208618 0.20541382q-0.22653198 0.13145447 -0.425354 0.38479614q-0.19882202 0.25335693 -0.35128784 0.64038086q-0.15588379 0.37179565 -0.23495483 0.8703613q-0.07904053 0.49855042 -0.06460571 1.0560303q0.029663086 0.5540314 0.14385986 1.0568542q0.14880371 0.6551819 0.3925476 0.95240784q0.25552368 0.27851868 0.68218994 0.18180847q0.19812012 -0.044906616 0.39068604 -0.18469238q0.19256592 -0.13978577 0.39971924 -0.427063q0.20370483 -0.30252075 0.43511963 -0.83561707q0.20788574 -0.49572754 0.28207397 -0.9451294q0.070739746 -0.46463013 0.06463623 -1.0560303l-0.0013427734 -0.28808594zm6.9908752 1.2510681q-0.37280273 0.7574005 -0.8182373 1.1948242q-0.4302063 0.43397522 -0.99401855 0.56178284q-0.6704712 0.1519928 -1.0818481 -0.10722351q-0.41482544 -0.27445984 -0.56362915 -0.929657q-0.08996582 -0.39616394 -0.08224487 -0.9266205l0.04498291 -3.4708252l-0.960022 0.21762085l0.0035095215 -0.33724976q0.37060547 -0.13206482 0.5562439 -0.3023224q0.18566895 -0.17025757 0.2965088 -0.38763428q0.107421875 -0.2326355 0.16012573 -0.56500244q0.064453125 -0.35107422 0.11236572 -0.98677063l0.8838501 -0.2003479l0.00592041 1.6488647l2.011444 -0.45596313l0.0082092285 0.671051l-2.026703 0.45941162l-0.0524292 2.591339q-0.023773193 1.0948334 0.090423584 1.5976562q0.08996582 0.39616394 0.3025818 0.5562439q0.22784424 0.15663147 0.54785156 0.08409119q0.28952026 -0.06562805 0.5576172 -0.36671448q0.26809692 -0.30110168 0.54525757 -0.844574l0.45224 0.2980194zm2.0809937 -8.2260895l-0.0126953125 1.2845917l-1.127655 0.25561523l0.027954102 -1.2880402l1.1123962 -0.25216675zm0.011810303 7.319107q0.011688232 0.33380127 0.015838623 0.4930725q0.019348145 0.15583801 0.040100098 0.24725342q0.04498291 0.1980896 0.13015747 0.29092407q0.10043335 0.08938599 0.23617554 0.12269592q0.15100098 0.02986145 0.462677 -0.008743286l0.008239746 0.31855774l-1.9657288 0.44560242l-0.012329102 -4.499222q0.008392334 -0.38642883 -0.0095825195 -0.6066437q-0.02142334 -0.23547363 -0.052581787 -0.37260437q-0.041503906 -0.18284607 -0.12667847 -0.27568054q-0.06994629 -0.09629822 -0.21746826 -0.11091614q-0.1322937 -0.018081665 -0.44052124 0.0357666l-0.015167236 -0.34902954l1.5404663 -0.4132843l0.36572266 -0.082901l0.04067993 4.765152zm4.5161133 0.75465393q-0.97525024 0.22106934 -1.648407 -0.20310974q-0.65789795 -0.42762756 -0.893219 -1.4637451q-0.08648682 -0.38093567 -0.112701416 -0.91970825q-0.03036499 -0.69807434 0.06878662 -1.2492523q0.14074707 -0.7208252 0.47885132 -1.2781067q0.34988403 -0.5759735 0.8735657 -0.95103455q0.52371216 -0.37506104 1.1941833 -0.5270386q0.7314453 -0.16581726 1.254364 0.020065308q0.53466797 0.1671753 0.84347534 0.6098633q0.32061768 0.4239807 0.4624939 1.048706q0.12802124 0.5637665 0.12097168 1.238266q-0.014038086 0.99650574 -0.30715942 1.7518768q-0.29312134 0.7553711 -0.8722534 1.2391205q-0.5791321 0.4837494 -1.4629517 0.6840973zm-1.3821716 -1.6412964q0.1557312 0.6856537 0.5213623 0.955246q0.36566162 0.26957703 0.95996094 0.13485718q0.6095276 -0.13816833 0.9725952 -0.7972412q0.35958862 -0.67430115 0.40551758 -1.7421265q0.045898438 -1.0678253 -0.12710571 -1.8296661q-0.15570068 -0.68566895 -0.5095825 -0.973938q-0.33865356 -0.2917328 -0.9024658 -0.16392517q-0.6552429 0.14852905 -1.0148315 0.82284546q-0.36306763 0.6590729 -0.41729736 1.7608185q-0.05770874 1.0865173 0.111846924 1.8331299zm11.344147 -0.7290802l-1.9962158 0.45251465l0.058807373 -3.4098663q0.0069885254 -0.32202148 1.5258789E-4 -0.7049713q-0.010314941 -0.39820862 -0.07952881 -0.7029419q-0.1003418 -0.44187927 -0.2977295 -0.605423q-0.19735718 -0.16352844 -0.5325928 -0.08753967q-0.274292 0.062179565 -0.53060913 0.34458923q-0.25979614 0.26716614 -0.50161743 0.7545624q-0.24182129 0.48739624 -0.37350464 0.9658356q-0.13513184 0.46322632 -0.13388062 1.1037903l0.043792725 2.873932l-1.097168 0.248703l-0.007446289 -4.5483856q-0.0041503906 -0.1592865 -0.024169922 -0.45915222q-0.0047912598 -0.3033142 -0.046325684 -0.48616028q-0.041503906 -0.18284607 -0.12322998 -0.26045227q-0.06991577 -0.09629822 -0.21746826 -0.11091614q-0.13226318 -0.018081665 -0.4557495 0.039230347l6.1035156E-5 -0.3524933l1.4338074 -0.38909912l0.35049438 -0.079452515l-0.037719727 1.7388611l0.083099365 0.013198853q0.41229248 -1.0066833 0.8944702 -1.5645752q0.48217773 -0.5579071 1.0612488 -0.6891632q0.6095276 -0.13816833 1.0091248 0.13973999q0.39611816 0.2626648 0.5449219 0.91786194q0.0519104 0.2285614 0.06845093 0.5131836q0.031829834 0.2811737 0.019317627 0.50831604l-0.021240234 2.3759766q-0.0028381348 0.48129272 0.05596924 0.7403259q0.04498291 0.19807434 0.13015747 0.29092407q0.10043335 0.08938599 0.23617554 0.12269592q0.15097046 0.02986145 0.462677 -0.008743286l0.023468018 0.315094zm5.454468 -10.224457l-0.0126953125 1.2846069l-1.1123962 0.2521515l0.0126953125 -1.2845917l1.1123962 -0.25216675zm0.060638428 9.086426q0.019897461 1.004837 -0.19909668 1.6632996q-0.21551514 0.6736908 -0.7135925 1.0910034q-0.47937012 0.4290924 -1.2565308 0.6052704q-0.32000732 0.07254028 -0.56243896 0.06340027l0.024353027 -0.5983124q0.113586426 0.006286621 0.23895264 -0.0061035156q0.12536621 -0.0124053955 0.2625122 -0.04348755q0.30477905 -0.0690918 0.49734497 -0.2088623q0.19259644 -0.13978577 0.32699585 -0.39456177q0.13442993 -0.25476074 0.20031738 -0.6702423q0.06585693 -0.4154663 0.06460571 -1.0560303l-0.017120361 -4.8025513q0.01184082 -0.37117004 -0.006134033 -0.59140015q-0.02142334 -0.23547363 -0.056030273 -0.38783264q-0.041503906 -0.18284607 -0.12667847 -0.2756958q-0.06994629 -0.09629822 -0.21746826 -0.11091614q-0.1322937 -0.018081665 -0.44052124 0.03578186l-0.015167236 -0.3490448l1.5404663 -0.4132843l0.36572266 -0.082901l0.08950806 6.5324707zm4.293335 -0.9732208q-0.97525024 0.22106934 -1.648407 -0.20310974q-0.65792847 -0.42762756 -0.893219 -1.4637451q-0.08648682 -0.38093567 -0.11273193 -0.91970825q-0.030334473 -0.69807434 0.06881714 -1.2492523q0.14074707 -0.7208252 0.47885132 -1.2781067q0.34988403 -0.5759735 0.8735657 -0.95103455q0.52371216 -0.37506104 1.1941833 -0.52705383q0.7314453 -0.165802 1.2543335 0.020080566q0.5346985 0.1671753 0.84350586 0.6098633q0.32061768 0.4239807 0.4624939 1.048706q0.12802124 0.5637665 0.12097168 1.238266q-0.014038086 0.99650574 -0.30715942 1.7518768q-0.29312134 0.7553711 -0.8722534 1.2391205q-0.5791321 0.4837494 -1.4629517 0.6840973zm-1.3821716 -1.6412964q0.15570068 0.6856537 0.5213623 0.955246q0.36566162 0.26957703 0.95996094 0.13485718q0.6095276 -0.13816833 0.9725952 -0.7972412q0.35958862 -0.67430115 0.40551758 -1.7421265q0.045898438 -1.0678253 -0.12710571 -1.8296661q-0.15570068 -0.68566895 -0.5095825 -0.973938q-0.33865356 -0.2917328 -0.9024658 -0.16392517q-0.6552429 0.14852905 -1.0148621 0.82284546q-0.3630371 0.6590576 -0.41726685 1.7608185q-0.05770874 1.0865021 0.111846924 1.8331299zm6.964813 -8.724365l-0.01272583 1.2845917l-1.1276245 0.25561523l0.027923584 -1.2880402l1.1124268 -0.25216675zm0.011779785 7.3191223q0.01171875 0.333786 0.015838623 0.4930725q0.019348145 0.15582275 0.040130615 0.24723816q0.04498291 0.1980896 0.13015747 0.29092407q0.10040283 0.08938599 0.23614502 0.12271118q0.15100098 0.029846191 0.462677 -0.008758545l0.008270264 0.31855774l-1.9657593 0.44560242l-0.012329102 -4.499222q0.008392334 -0.38641357 -0.0095825195 -0.6066437q-0.02142334 -0.23545837 -0.05255127 -0.37260437q-0.041534424 -0.18284607 -0.12670898 -0.27568054q-0.06994629 -0.09629822 -0.21746826 -0.11091614q-0.1322937 -0.018081665 -0.44052124 0.0357666l-0.015167236 -0.34902954l1.5404663 -0.4132843l0.36572266 -0.082901l0.04067993 4.765167zm7.8900757 -0.12232971l-1.9962463 0.45251465l0.05883789 -3.4098816q0.0069885254 -0.32200623 1.2207031E-4 -0.7049713q-0.010314941 -0.39819336 -0.07952881 -0.70292664q-0.1003418 -0.44187927 -0.29769897 -0.605423q-0.19735718 -0.16352844 -0.5326233 -0.08753967q-0.274292 0.062179565 -0.53060913 0.34457397q-0.25979614 0.2671814 -0.5015869 0.7545624q-0.24182129 0.48739624 -0.37350464 0.96585083q-0.13516235 0.46321106 -0.13391113 1.1037903l0.043792725 2.873932l-1.097168 0.248703l-0.007446289 -4.548401q-0.004119873 -0.15927124 -0.024169922 -0.45913696q-0.0047912598 -0.30332947 -0.046295166 -0.48616028q-0.041534424 -0.18284607 -0.12322998 -0.26045227q-0.06994629 -0.09629822 -0.21746826 -0.11091614q-0.1322937 -0.018081665 -0.4557495 0.039215088l6.1035156E-5 -0.35247803l1.4338074 -0.38911438l0.35046387 -0.079437256l-0.037719727 1.7388611l0.083099365 0.013198853q0.412323 -1.0066833 0.89450073 -1.5645752q0.48214722 -0.5579071 1.0612183 -0.6891632q0.6095276 -0.1381836 1.0091248 0.13973999q0.39611816 0.2626648 0.5449219 0.91786194q0.0519104 0.2285614 0.068481445 0.5131836q0.031799316 0.2811737 0.01928711 0.50831604l-0.021209717 2.3759766q-0.0028686523 0.48129272 0.05596924 0.7403259q0.04498291 0.19807434 0.13015747 0.29092407q0.10040283 0.08938599 0.23614502 0.12269592q0.15100098 0.02986145 0.462677 -0.008758545l0.023498535 0.31510925zm4.9830017 -2.3632202q-0.37277222 0.7574005 -0.8182068 1.1948242q-0.4302063 0.43397522 -0.99401855 0.56178284q-0.6705017 0.1519928 -1.0818787 -0.10722351q-0.41482544 -0.27445984 -0.56362915 -0.929657q-0.08996582 -0.39616394 -0.08224487 -0.9266205l0.04498291 -3.4708252l-0.960022 0.21762085l0.003540039 -0.33724976q0.37057495 -0.13206482 0.5562439 -0.3023224q0.18563843 -0.17025757 0.2965088 -0.38763428q0.10739136 -0.2326355 0.16009521 -0.56500244q0.06448364 -0.35107422 0.11239624 -0.98677063l0.8838196 -0.2003479l0.00592041 1.6488647l2.0114746 -0.45596313l0.008178711 0.67103577l-2.026703 0.45942688l-0.0524292 2.591339q-0.023742676 1.0948334 0.090423584 1.5976562q0.08996582 0.39616394 0.3025818 0.5562439q0.22784424 0.15663147 0.54785156 0.08409119q0.28952026 -0.06562805 0.5576172 -0.36671448q0.26812744 -0.30110168 0.54525757 -0.844574l0.45224 0.2980194zm3.620697 -4.409546q-0.20767212 -0.56173706 -0.5220947 -0.7468109q-0.30264282 -0.20375061 -0.8512268 -0.07940674q-0.28952026 0.06564331 -0.50912476 0.22756958q-0.21957397 0.16192627 -0.30828857 0.4063263q-0.0887146 0.24441528 -0.022949219 0.5339203q0.0519104 0.22854614 0.18832397 0.40589905q0.13641357 0.17736816 0.41342163 0.3388672q0.27355957 0.14627075 0.73202515 0.330719q0.7182007 0.2697754 1.052002 0.610672q0.33032227 0.32565308 0.44451904 0.82847595q0.13494873 0.59425354 -0.05770874 1.0865173q-0.18084717 0.47357178 -0.6352844 0.80088806q-0.44265747 0.308609 -1.0674133 0.4502411q-0.56381226 0.12780762 -1.0722046 0.14692688q-0.48971558 0.030899048 -0.97454834 0.012634277l-0.021881104 -1.436966l0.50286865 -0.11399841q0.17721558 0.5686493 0.51724243 0.79597473q0.35528564 0.22387695 0.9190979 0.096069336q0.56381226 -0.12782288 0.80630493 -0.47117615q0.25424194 -0.36203003 0.14697266 -0.8343811q-0.062286377 -0.27427673 -0.20214844 -0.4668579q-0.13986206 -0.19259644 -0.39819336 -0.34231567q-0.24307251 -0.15318298 -0.66415405 -0.31407166q-0.47372437 -0.18099976 -0.7729187 -0.3695221q-0.29916382 -0.18852234 -0.5020752 -0.4469452q-0.20288086 -0.2584076 -0.2824707 -0.6088562q-0.11764526 -0.5180664 0.054901123 -0.9577179q0.1690979 -0.45487976 0.5964966 -0.7600403q0.43917847 -0.32385254 1.0791931 -0.4689331q1.0514526 -0.23835754 1.9061279 -0.14370728l0.008056641 1.3760071l-0.50286865 0.11399841z" fill-rule="nonzero"/><path fill="#000000" d="m275.22153 232.45563l-0.0126953125 1.2845917l-1.127655 0.25561523l0.027954102 -1.2880402l1.1123962 -0.25216675zm0.011810303 7.3191223q0.011688232 0.333786 0.015808105 0.4930725q0.019378662 0.15582275 0.040130615 0.24723816q0.04498291 0.1980896 0.13015747 0.29092407q0.10043335 0.08938599 0.23617554 0.12271118q0.15097046 0.029846191 0.462677 -0.008758545l0.008239746 0.31855774l-1.9657288 0.44560242l-0.012329102 -4.499222q0.008392334 -0.38641357 -0.0095825195 -0.6066437q-0.02142334 -0.23545837 -0.052581787 -0.37260437q-0.041503906 -0.18284607 -0.12667847 -0.27568054q-0.06994629 -0.09629822 -0.21746826 -0.11091614q-0.1322937 -0.018081665 -0.44052124 0.0357666l-0.015167236 -0.34902954l1.5404663 -0.4132843l0.36572266 -0.082901l0.04067993 4.765167zm7.890045 -0.12232971l-1.9962158 0.45251465l0.058807373 -3.4098816q0.0069885254 -0.32200623 1.5258789E-4 -0.7049713q-0.010314941 -0.39819336 -0.07952881 -0.70292664q-0.1003418 -0.44187927 -0.2977295 -0.605423q-0.19735718 -0.16352844 -0.5325928 -0.08753967q-0.274292 0.062179565 -0.53060913 0.34457397q-0.25979614 0.2671814 -0.50161743 0.7545624q-0.24182129 0.48739624 -0.37350464 0.96585083q-0.13513184 0.46321106 -0.13388062 1.1037903l0.043792725 2.873932l-1.097168 0.248703l-0.007446289 -4.548401q-0.0041503906 -0.15927124 -0.024169922 -0.45913696q-0.0047912598 -0.3033142 -0.046325684 -0.48616028q-0.041503906 -0.18284607 -0.12322998 -0.26045227q-0.06994629 -0.09629822 -0.21746826 -0.11091614q-0.1322937 -0.018081665 -0.4557495 0.039215088l6.1035156E-5 -0.35247803l1.4338074 -0.38911438l0.35049438 -0.079437256l-0.037719727 1.7388611l0.083099365 0.013198853q0.41229248 -1.0066833 0.8944702 -1.5645752q0.48217773 -0.5579071 1.0612183 -0.6891632q0.6095581 -0.1381836 1.0091553 0.13973999q0.39611816 0.2626648 0.5449219 0.91786194q0.051879883 0.2285614 0.06845093 0.5131836q0.031829834 0.2811737 0.019317627 0.50831604l-0.021240234 2.3759766q-0.0028381348 0.48129272 0.05596924 0.7403259q0.04498291 0.19807434 0.13015747 0.29092407q0.10043335 0.08938599 0.23617554 0.12269592q0.15097046 0.02986145 0.462677 -0.008758545l0.023468018 0.31510925zm8.525848 -7.9887695q-0.93673706 1.5901947 -1.9835815 3.1893158l0.9091797 1.2518463q0.3531494 0.49671936 0.5525818 0.7398987q0.19595337 0.22793579 0.33032227 0.32565308q0.14611816 0.07902527 0.26663208 0.11579895q0.13574219 0.033309937 0.4017334 0.005065918l-0.0069885254 0.32200623l-1.5848083 0.35925293l-1.4616699 -2.3442383q-0.12472534 0.15644836 -0.3131714 0.45550537q-0.18844604 0.299057 -0.3699646 0.6285858q-0.16976929 0.31085205 -0.2383728 0.5026398q-0.053344727 0.18833923 -0.056152344 0.31713867q-0.0062561035 0.11357117 0.024871826 0.2507019q0.038085938 0.16760254 0.15026855 0.23829651q0.1274414 0.06724548 0.35113525 0.064590454l0.008270264 0.318573l-1.813385 0.41105652l-0.19110107 -0.27711487q1.0475769 -1.8075714 2.1013489 -3.3762207l-0.91607666 -1.2823181q-0.27975464 -0.38519287 -0.45358276 -0.58610535q-0.15856934 -0.20437622 -0.2929077 -0.3020935q-0.1343689 -0.097717285 -0.28533936 -0.12757874q-0.15444946 -0.04508972 -0.41696167 -0.0016174316l0.0069885254 -0.32200623l1.5847778 -0.35925293l1.3813782 2.20224q0.25427246 -0.3620453 0.4593506 -0.7289734q0.20507812 -0.36691284 0.27368164 -0.55870056q0.08041382 -0.21047974 0.0949707 -0.3579712q0.011108398 -0.16273499 -0.023498535 -0.31510925q-0.07611084 -0.33520508 -0.5014038 -0.30288696l0.0069885254 -0.32202148l1.813385 -0.41105652l0.19110107 0.2770996zm2.453247 3.9459076q0.0519104 0.2285614 0.07885742 0.5588989q0.026947021 0.33033752 0.0012817383 0.64056396q-0.0256958 0.3102417 -0.09915161 0.55119324q-0.070007324 0.2561798 -0.21621704 0.5296478q-0.12747192 0.2852478 -0.40045166 0.63549805q-0.25424194 0.3620453 -0.68444824 0.7960205l-0.39474487 -0.32707214q0.24942017 -0.31288147 0.3755188 -0.5337219q0.12609863 -0.22084045 0.19122314 -0.4278717q0.0803833 -0.21047974 0.10122681 -0.47154236q0.036071777 -0.2645111 0.02368164 -0.74235535q0.0028686523 -0.48129272 -0.058685303 -0.9640045l1.0819092 -0.24525452zm4.2529297 -4.3285522q-0.1716919 -0.47377014 -0.27416992 -0.642807q-0.10592651 -0.18426514 -0.24859619 -0.24804688q-0.14614868 -0.07902527 -0.43911743 -0.028625488l0.006958008 -0.32202148l1.6305237 -0.3695984l1.6177368 4.936371q1.4842529 -3.4125671 1.193573 -4.6924744q-0.06573486 -0.289505 -0.22711182 -0.3650818q-0.14959717 -0.09425354 -0.4578247 -0.040405273l0.0069885254 -0.32202148l1.6305237 -0.3695984l0.24029541 0.28196716q-0.134552 0.9597473 -0.45336914 2.0253448q-0.30355835 1.062149 -0.8094177 2.3623962q-0.4940796 1.2815704 -1.1468201 2.7112427q-0.50512695 1.0918121 -0.87023926 1.6712341q-0.2979126 0.45205688 -0.5763855 0.70744324q-0.26324463 0.2519226 -0.53549194 0.3937378q-0.28399658 0.1605072 -0.6040039 0.23304749q-0.18286133 0.04145813 -0.4065857 0.0440979q-0.22024536 0.01789856 -0.38302612 0.006729126l0.0043945312 -1.2506714l0.48764038 -0.11053467q0.063690186 0.20985413 0.1828003 0.31103516q0.11911011 0.10116577 0.30197144 0.0597229q0.21331787 -0.04837036 0.35531616 -0.12861633q0.13024902 -0.061569214 0.26187134 -0.18753052q0.14685059 -0.12942505 0.32699585 -0.39456177q0.19534302 -0.2685852 0.40530396 -0.68466187q0.21340942 -0.4008484 0.4683838 -0.97132874l-1.6891174 -4.6157837zm6.6698303 1.8525543q0.0519104 0.22854614 0.07885742 0.55888367q0.026947021 0.33035278 0.0012512207 0.6405792q-0.0256958 0.31022644 -0.09915161 0.551178q-0.070007324 0.25619507 -0.21618652 0.5296478q-0.12750244 0.2852478 -0.40045166 0.6355133q-0.25427246 0.3620453 -0.68447876 0.79600525l-0.39471436 -0.32707214q0.24938965 -0.31288147 0.37548828 -0.5337219q0.12609863 -0.22084045 0.19125366 -0.42785645q0.0803833 -0.21047974 0.10119629 -0.47155762q0.036071777 -0.2645111 0.02368164 -0.7423401q0.0028686523 -0.48129272 -0.058685303 -0.9640045l1.0819397 -0.24525452zm8.796143 -2.3143768l0.023895264 1.8690948l-4.6019897 1.0431976l-0.19113159 -0.27711487l2.5643005 -4.794922q0.5411377 -1.00383 0.80856323 -1.4489746l-0.052642822 -0.020111084l-1.4781189 0.33506775q-0.3352356 0.07598877 -0.4772339 0.15625q-0.1454773 0.0650177 -0.27017212 0.2214508q-0.12817383 0.14120483 -0.25912476 0.4112091q-0.11917114 0.25131226 -0.24255371 0.69584656l-0.56381226 0.12780762l0.0037841797 -1.7471924l4.5105896 -1.0224762l0.19454956 0.29234314l-3.3797913 6.2134247l0.040863037 0.0388031l1.4324036 -0.32470703q0.38098145 -0.08634949 0.57214355 -0.1617279q0.20297241 -0.094070435 0.33111572 -0.23527527q0.12472534 -0.15644836 0.22518921 -0.4195404q0.11227417 -0.28178406 0.24536133 -0.824646l0.56381226 -0.12780762z" fill-rule="nonzero"/><path fill="#000000" d="m300.63318 258.70923l0.03918457 5.1820374l-2.6514893 0.6010742l-0.05441284 -5.1786194l-4.541046 1.0293884l-2.1362305E-4 -2.6114502l4.525818 -1.0259094l-0.023986816 -5.1855164l2.6667175 -0.60450745l0.023986816 5.185501l4.5257874 -1.0259094l0.0154418945 2.6079712l-4.5257874 1.02594z" fill-rule="nonzero"/><path fill="#000000" d="m261.52267 286.41293l-0.017791748 -1.2776794q0.6504822 -0.45187378 1.2170715 -0.7084656q0.5631714 -0.2718506 1.203186 -0.41693115q0.42666626 -0.09674072 0.81314087 -0.08822632q0.38650513 0.008544922 0.70578 0.1444397q0.3192749 0.13589478 0.5443115 0.42132568q0.2368164 0.26675415 0.33026123 0.6781616q0.13494873 0.5942383 0.0101623535 1.1031494q-0.12820435 0.49371338 -0.55981445 0.9920654q-0.41635132 0.49493408 -1.2206116 1.0457153l0.0138549805 0.060943604q0.83392334 0.0032348633 1.3560791 0.3975525q0.53741455 0.39086914 0.69659424 1.0917664q0.11764526 0.5180664 0.0101623535 1.1031799q-0.10745239 0.5851135 -0.44763184 1.0627441q-0.32839966 0.45895386 -0.89294434 0.79522705q-0.5493164 0.3327942 -1.3569336 0.51586914q-0.5942993 0.13470459 -1.2924805 0.16479492q-0.68640137 0.011413574 -1.1580505 -0.08996582l-0.014984131 -1.4064636l0.7314453 -0.16583252q0.17581177 0.63305664 0.59552 0.8583374q0.41967773 0.22531128 1.0901794 0.07330322q0.63998413 -0.14508057 1.0196228 -0.51950073q0.39486694 -0.37789917 0.5175781 -0.9664612q0.13449097 -0.6072693 -0.021240234 -1.2929382q-0.15570068 -0.68566895 -0.6737366 -0.9206848q-0.5215149 -0.25027466 -1.4053345 -0.049926758l-0.6247864 0.14160156l-0.0026550293 -0.57614136q0.7480774 -0.2336731 1.275238 -0.59350586q0.5423889 -0.36325073 0.8285217 -0.79663086q0.3013916 -0.4367981 0.36724854 -0.8522644q0.062438965 -0.43069458 -0.027526855 -0.8268738q-0.12112427 -0.5332947 -0.50686646 -0.75024414q-0.37051392 -0.22042847 -0.9038696 -0.09951782q-0.6095276 0.13815308 -0.93652344 0.53271484q-0.33044434 0.37930298 -0.4697876 1.0357361l-0.7923889 0.17962646zm10.780304 -1.5305176l0.38095093 -0.08633423l-0.085510254 1.6695862l0.07965088 -0.0020446777q0.4074402 -0.95751953 0.8965454 -1.4849243q0.48562622 -0.5426636 1.0951538 -0.68084717q0.45715332 -0.103637695 0.77923584 -0.0965271l0.017028809 1.4861145l-0.6552429 0.14855957q-0.12185669 -0.32485962 -0.26657104 -0.46829224q-0.14474487 -0.14343262 -0.37332153 -0.09161377q-0.24380493 0.055267334 -0.52023315 0.3902893q-0.26464844 0.3163452 -0.49606323 0.84942627q-0.2348938 0.5178833 -0.31600952 0.9367981q-0.08459473 0.40368652 -0.07220459 0.88153076l0.043792725 2.873932l-1.097168 0.24871826l-0.007446289 -4.548401q-0.01651001 -0.6371155 -0.08572388 -0.941864q-0.041534424 -0.18283081 -0.12322998 -0.260437q-0.06994629 -0.09631348 -0.21746826 -0.1109314q-0.1322937 -0.018066406 -0.44052124 0.0357666l6.1035156E-5 -0.35247803l1.4642944 -0.3960266zm6.6424866 5.0470276q-0.97525024 0.22106934 -1.648407 -0.20309448q-0.65789795 -0.42764282 -0.893219 -1.4637451q-0.08648682 -0.38095093 -0.11273193 -0.91973877q-0.030334473 -0.6980591 0.06881714 -1.2492371q0.14074707 -0.7208252 0.47885132 -1.2781067q0.34988403 -0.57595825 0.8735657 -0.9510193q0.52371216 -0.37506104 1.1941833 -0.5270691q0.7314453 -0.165802 1.2543335 0.020080566q0.5346985 0.1671753 0.84350586 0.6098633q0.32061768 0.4239807 0.4624939 1.048706q0.12802124 0.56378174 0.12097168 1.2382812q-0.014038086 0.9964905 -0.30715942 1.7518616q-0.29312134 0.7553711 -0.8722534 1.2391357q-0.5791321 0.48373413 -1.4629517 0.68408203zm-1.3821716 -1.6412964q0.15570068 0.68566895 0.5213623 0.95526123q0.36566162 0.26956177 0.95996094 0.13485718q0.6095276 -0.1381836 0.9725952 -0.7972412q0.35958862 -0.6743164 0.40551758 -1.7421265q0.045898438 -1.0678406 -0.12710571 -1.8296814q-0.15570068 -0.68566895 -0.5095825 -0.973938q-0.33865356 -0.29171753 -0.9024658 -0.16390991q-0.6552429 0.14852905 -1.0148621 0.82284546q-0.3630371 0.6590576 -0.41726685 1.7608032q-0.05770874 1.0865173 0.111846924 1.8331299zm9.371002 -1.5154419q-0.37277222 0.7574158 -0.8182068 1.1948242q-0.4302063 0.43399048 -0.99401855 0.5617981q-0.6705017 0.15197754 -1.0818787 -0.10723877q-0.41482544 -0.2744751 -0.56362915 -0.929657q-0.08996582 -0.39614868 -0.08224487 -0.9266052l0.04498291 -3.4708252l-0.960022 0.21762085l0.003540039 -0.33724976q0.37057495 -0.13208008 0.5562439 -0.30233765q0.18563843 -0.17025757 0.2965088 -0.38763428q0.10739136 -0.2326355 0.16009521 -0.56500244q0.06448364 -0.35107422 0.11239624 -0.9867554l0.8838196 -0.2003479l0.00592041 1.6488647l2.0114746 -0.45599365l0.008178711 0.671051l-2.026703 0.45944214l-0.0524292 2.5913086q-0.023742676 1.0948486 0.090423584 1.5976868q0.08996582 0.39614868 0.3025818 0.5562439q0.22784424 0.15661621 0.54785156 0.08407593q0.28952026 -0.06561279 0.5576172 -0.36672974q0.26812744 -0.30108643 0.54525757 -0.84454346l0.45224 0.29800415zm4.362549 -5.811371l0.5008545 -0.54611206l0.41696167 0.0016174316l0.019226074 4.5296936q-0.00491333 0.40167236 0.013061523 0.6218872q0.01449585 0.20498657 0.045654297 0.34213257q0.058807373 0.2590332 0.22363281 0.349823q0.18008423 0.087371826 0.5984192 0.02456665l0.008270264 0.31854248l-1.813385 0.41107178l0.03286743 -1.6896973l-0.07965088 0.0020446777q-0.408844 1.0219116 -0.86398315 1.5576782q-0.45516968 0.5357361 -1.0646973 0.6739197q-0.70095825 0.15890503 -1.1995544 -0.27279663q-0.5020752 -0.44696045 -0.71661377 -1.3916626q-0.13842773 -0.60946655 -0.13967896 -1.2500305q-0.0047302246 -0.65582275 0.14498901 -1.26651q0.16494751 -0.61416626 0.46774292 -1.115387q0.2992859 -0.516449 0.76205444 -0.87768555q0.46273804 -0.36123657 1.0722656 -0.49942017q0.39620972 -0.08981323 0.76742554 -0.077819824q0.37124634 0.011962891 0.8041382 0.15414429zm-0.11953735 2.0137634q-0.013092041 -0.26940918 -0.039367676 -0.45568848q-0.014526367 -0.20498657 -0.06295776 -0.41830444q-0.11419678 -0.50283813 -0.37597656 -0.66778564q-0.26522827 -0.1802063 -0.75286865 -0.06967163q-0.25906372 0.058746338 -0.4821167 0.20541382q-0.22650146 0.13146973 -0.4253235 0.38482666q-0.19885254 0.25332642 -0.35128784 0.64035034q-0.1559143 0.37179565 -0.23495483 0.8703613q-0.079071045 0.49856567 -0.06463623 1.0560608q0.029693604 0.5540161 0.14389038 1.0568237q0.1487732 0.6552124 0.3925476 0.9524231q0.25552368 0.27853394 0.68218994 0.18179321q0.1980896 -0.044891357 0.39068604 -0.18469238q0.19256592 -0.13977051 0.39971924 -0.427063q0.20367432 -0.30249023 0.43511963 -0.8356018q0.20788574 -0.49572754 0.28207397 -0.9451294q0.070739746 -0.46463013 0.06460571 -1.0560303l-0.0013427734 -0.28808594zm6.990906 1.2510681q-0.37277222 0.7574158 -0.8182373 1.1948242q-0.43017578 0.43395996 -0.99401855 0.5617676q-0.6704712 0.15200806 -1.0818481 -0.10720825q-0.41482544 -0.2744751 -0.56362915 -0.929657q-0.08996582 -0.3961792 -0.08224487 -0.92663574l0.04498291 -3.4707947l-0.960022 0.21762085l0.0035095215 -0.33724976q0.37060547 -0.13208008 0.5562439 -0.30233765q0.18566895 -0.17025757 0.2965088 -0.38763428q0.107421875 -0.2326355 0.16012573 -0.56500244q0.06448364 -0.35107422 0.11236572 -0.9867554l0.8838501 -0.20037842l0.00592041 1.6488647l2.0114746 -0.45596313l0.008178711 0.671051l-2.026703 0.45941162l-0.0524292 2.591339q-0.023773193 1.0948486 0.090423584 1.5976562q0.08996582 0.3961792 0.3025818 0.5562744q0.22784424 0.15661621 0.54785156 0.08407593q0.28952026 -0.06564331 0.5576172 -0.36672974q0.26809692 -0.30108643 0.54525757 -0.844574l0.45224 0.29803467zm2.0809937 -8.226105l-0.0126953125 1.2846069l-1.127655 0.25561523l0.027954102 -1.2880554l1.1123962 -0.25216675zm0.011810303 7.3191223q0.011688232 0.33380127 0.015838623 0.4930725q0.019348145 0.15582275 0.040100098 0.24725342q0.04498291 0.1980896 0.13018799 0.29092407q0.10040283 0.08938599 0.23614502 0.12271118q0.15100098 0.029846191 0.462677 -0.008758545l0.008239746 0.31854248l-1.9657288 0.44561768l-0.012329102 -4.499237q0.008392334 -0.38641357 -0.0095825195 -0.6066284q-0.02142334 -0.23547363 -0.052581787 -0.37261963q-0.041503906 -0.18283081 -0.12667847 -0.27566528q-0.06994629 -0.09631348 -0.21746826 -0.1109314q-0.1322937 -0.018066406 -0.44052124 0.0357666l-0.015167236 -0.34902954l1.5404663 -0.41326904l0.36572266 -0.08291626l0.04067993 4.765167zm4.5161133 0.7546387q-0.97525024 0.22106934 -1.648407 -0.20309448q-0.65789795 -0.42764282 -0.893219 -1.4637451q-0.08648682 -0.3809204 -0.112701416 -0.91970825q-0.03036499 -0.6980896 0.06878662 -1.2492676q0.14074707 -0.7208252 0.47885132 -1.2781067q0.34988403 -0.57595825 0.8735657 -0.9510193q0.52371216 -0.37506104 1.1941833 -0.5270386q0.7314453 -0.16583252 1.254364 0.020050049q0.53466797 0.1671753 0.84347534 0.6098633q0.32061768 0.4239807 0.4624939 1.048706q0.12802124 0.56378174 0.12097168 1.2382812q-0.014038086 0.9964905 -0.30715942 1.7518616q-0.29312134 0.7553711 -0.8722534 1.2391357q-0.57910156 0.48373413 -1.4629517 0.68408203zm-1.3821716 -1.6412964q0.1557312 0.68566895 0.5213623 0.95526123q0.36566162 0.26956177 0.95996094 0.13485718q0.6095276 -0.1381836 0.9725952 -0.7972412q0.35958862 -0.6743164 0.40551758 -1.7421265q0.045898438 -1.06781 -0.12710571 -1.8296814q-0.15570068 -0.68566895 -0.5095825 -0.973938q-0.33865356 -0.29171753 -0.9024658 -0.16390991q-0.6552429 0.14852905 -1.0148315 0.82284546q-0.36306763 0.6590576 -0.41729736 1.7608032q-0.05770874 1.0865173 0.111846924 1.8331299zm11.344147 -0.72906494l-1.9962158 0.45251465l0.058807373 -3.4098816q0.0069885254 -0.32199097 1.2207031E-4 -0.70495605q-0.010314941 -0.39819336 -0.07949829 -0.7029419q-0.100372314 -0.44189453 -0.2977295 -0.6054077q-0.19735718 -0.1635437 -0.5326233 -0.08755493q-0.274292 0.062164307 -0.53060913 0.34457397q-0.25976562 0.2671814 -0.5015869 0.75457764q-0.24182129 0.48739624 -0.37350464 0.96585083q-0.13516235 0.4631958 -0.13388062 1.1037598l0.043792725 2.873932l-1.097168 0.24871826l-0.0074768066 -4.548401q-0.004119873 -0.15927124 -0.024139404 -0.45913696q-0.0047912598 -0.3033142 -0.046325684 -0.48617554q-0.041534424 -0.18283081 -0.12322998 -0.260437q-0.06994629 -0.09631348 -0.21746826 -0.1109314q-0.1322937 -0.018066406 -0.4557495 0.039245605l6.1035156E-5 -0.35250854l1.4338074 -0.38909912l0.35049438 -0.079437256l-0.037750244 1.7388611l0.08312988 0.013214111q0.41229248 -1.0066833 0.8944702 -1.5646057q0.48217773 -0.55789185 1.0612183 -0.68914795q0.6095276 -0.1381836 1.0091248 0.13973999q0.39614868 0.2626648 0.5449219 0.9178772q0.0519104 0.22854614 0.068481445 0.5131836q0.031799316 0.28115845 0.01928711 0.5083008l-0.021209717 2.3759766q-0.0028686523 0.48129272 0.05596924 0.7403259q0.04498291 0.1980896 0.13015747 0.29092407q0.10040283 0.08938599 0.23614502 0.12271118q0.15100098 0.029846191 0.462677 -0.008758545l0.023498535 0.315094zm5.454468 -10.224457l-0.0126953125 1.2846069l-1.1124268 0.25216675l0.01272583 -1.2846069l1.1123962 -0.25216675zm0.060638428 9.086426q0.019897461 1.0048523 -0.19909668 1.6632996q-0.21554565 0.67367554 -0.71362305 1.0910034q-0.47937012 0.42907715 -1.2565308 0.6052551q-0.32000732 0.07254028 -0.56240845 0.06341553l0.024353027 -0.59832764q0.113586426 0.0063171387 0.23895264 -0.0061035156q0.12536621 -0.012390137 0.2625122 -0.04348755q0.30477905 -0.06906128 0.49734497 -0.2088623q0.19256592 -0.13977051 0.32699585 -0.39453125q0.13439941 -0.25479126 0.20028687 -0.67025757q0.06588745 -0.4154663 0.06460571 -1.0560303l-0.017089844 -4.8025513q0.01184082 -0.3711853 -0.006134033 -0.59140015q-0.02142334 -0.23547363 -0.056030273 -0.3878479q-0.041534424 -0.18283081 -0.12670898 -0.27566528q-0.06991577 -0.09631348 -0.21743774 -0.1109314q-0.1322937 -0.018066406 -0.44052124 0.0357666l-0.015167236 -0.34902954l1.5404663 -0.41326904l0.36572266 -0.08291626l0.08950806 6.5324707zm4.293335 -0.9732361q-0.97525024 0.22106934 -1.648407 -0.20309448q-0.65789795 -0.42764282 -0.893219 -1.4637451q-0.08648682 -0.38095093 -0.112701416 -0.91970825q-0.03036499 -0.6980896 0.06878662 -1.2492676q0.14074707 -0.7208252 0.47885132 -1.2781067q0.34988403 -0.57595825 0.8735657 -0.9510193q0.52371216 -0.37506104 1.1941833 -0.5270386q0.7314453 -0.16583252 1.2543335 0.020050049q0.5346985 0.1671753 0.84350586 0.6098633q0.32061768 0.4239807 0.4624939 1.048706q0.12802124 0.56378174 0.12097168 1.2382812q-0.014038086 0.9964905 -0.30715942 1.7518616q-0.29312134 0.7553711 -0.8722534 1.2391357q-0.5791321 0.48373413 -1.4629517 0.68408203zm-1.3821716 -1.6412964q0.15570068 0.68566895 0.5213623 0.95526123q0.36566162 0.26956177 0.95996094 0.13485718q0.6095276 -0.1381836 0.9725952 -0.7972412q0.35958862 -0.6743164 0.40551758 -1.7421265q0.045898438 -1.06781 -0.12710571 -1.8296814q-0.15570068 -0.68566895 -0.5095825 -0.973938q-0.33865356 -0.29171753 -0.9024658 -0.16390991q-0.6552429 0.14852905 -1.0148621 0.82284546q-0.3630371 0.6590576 -0.41726685 1.7608032q-0.05770874 1.0865173 0.111846924 1.8331299zm6.9647827 -8.724365l-0.0126953125 1.2846069l-1.127655 0.25561523l0.027954102 -1.2880554l1.1123962 -0.25216675zm0.011810303 7.3191223q0.011688232 0.33380127 0.015808105 0.4930725q0.019378662 0.15582275 0.040130615 0.24725342q0.04498291 0.1980896 0.13015747 0.29092407q0.10043335 0.08938599 0.23617554 0.12271118q0.15097046 0.029846191 0.462677 -0.008758545l0.008239746 0.31854248l-1.9657593 0.44561768l-0.012298584 -4.499237q0.008392334 -0.38641357 -0.0095825195 -0.6066284q-0.02142334 -0.23547363 -0.052581787 -0.3725891q-0.041503906 -0.18286133 -0.12667847 -0.2756958q-0.06994629 -0.09631348 -0.21746826 -0.1109314q-0.1322937 -0.018066406 -0.44052124 0.03579712l-0.015167236 -0.34906006l1.5404663 -0.41326904l0.36572266 -0.08291626l0.04067993 4.765167zm7.890045 -0.12231445l-1.9962158 0.45251465l0.058807373 -3.4098816q0.0069885254 -0.32202148 1.5258789E-4 -0.70495605q-0.010314941 -0.39822388 -0.07952881 -0.7029419q-0.1003418 -0.44189453 -0.2977295 -0.6054077q-0.19735718 -0.1635437 -0.5325928 -0.08755493q-0.274292 0.062164307 -0.53060913 0.34457397q-0.25979614 0.2671814 -0.50161743 0.75457764q-0.24182129 0.48739624 -0.37350464 0.9658203q-0.13513184 0.46322632 -0.13388062 1.1037903l0.043792725 2.873932l-1.097168 0.24871826l-0.007446289 -4.548401q-0.0041503906 -0.15927124 -0.024169922 -0.45913696q-0.0047912598 -0.3033142 -0.046325684 -0.48617554q-0.041503906 -0.18283081 -0.12322998 -0.260437q-0.06994629 -0.09631348 -0.21746826 -0.1109314q-0.1322937 -0.018066406 -0.4557495 0.039245605l6.1035156E-5 -0.35250854l1.4338074 -0.38909912l0.35049438 -0.079437256l-0.037719727 1.7388611l0.083099365 0.013214111q0.41229248 -1.0066833 0.8944702 -1.5646057q0.48217773 -0.55789185 1.0612183 -0.68914795q0.6095581 -0.1381836 1.0091553 0.13973999q0.39611816 0.2626648 0.5449219 0.9178467q0.051879883 0.22857666 0.06845093 0.5131836q0.031829834 0.28118896 0.019317627 0.5083313l-0.021240234 2.3759766q-0.0028381348 0.48129272 0.05596924 0.7403259q0.04498291 0.1980896 0.13015747 0.29092407q0.10043335 0.08938599 0.23617554 0.122680664q0.15097046 0.029876709 0.462677 -0.008728027l0.023468018 0.315094zm4.983032 -2.3632202q-0.37280273 0.7574158 -0.8182373 1.1948242q-0.4302063 0.43395996 -0.99401855 0.5617981q-0.6704712 0.15197754 -1.0818481 -0.10723877q-0.41482544 -0.2744751 -0.56362915 -0.929657q-0.08996582 -0.39614868 -0.08224487 -0.9266052l0.04498291 -3.4708252l-0.960022 0.21762085l0.0035095215 -0.33724976q0.37060547 -0.13208008 0.5562439 -0.30233765q0.18566895 -0.17025757 0.2965088 -0.38763428q0.107421875 -0.2326355 0.16012573 -0.56500244q0.064453125 -0.35107422 0.11236572 -0.9867554l0.8838501 -0.2003479l0.00592041 1.6488647l2.011444 -0.45599365l0.0082092285 0.671051l-2.026703 0.45941162l-0.0524292 2.591339q-0.023773193 1.0948486 0.090423584 1.5976868q0.08996582 0.39614868 0.3025818 0.5562439q0.22784424 0.15661621 0.54785156 0.08407593q0.28952026 -0.06564331 0.5576172 -0.36672974q0.26809692 -0.30108643 0.54525757 -0.84454346l0.45224 0.29800415zm3.620697 -4.409546q-0.20770264 -0.56173706 -0.52212524 -0.74679565q-0.3026123 -0.20376587 -0.8511963 -0.07940674q-0.28955078 0.06561279 -0.50912476 0.22753906q-0.21960449 0.16192627 -0.30828857 0.40634155q-0.0887146 0.24441528 -0.022979736 0.533905q0.0519104 0.22857666 0.18832397 0.4059143q0.13641357 0.17736816 0.41342163 0.3388672q0.27355957 0.14627075 0.73205566 0.330719q0.7182007 0.2697754 1.0519714 0.61065674q0.33032227 0.3256836 0.44451904 0.8284912q0.13494873 0.5942383 -0.057678223 1.0865173q-0.18087769 0.47357178 -0.6352844 0.8008728q-0.44265747 0.30862427 -1.0674438 0.45025635q-0.56381226 0.12780762 -1.0722046 0.14691162q-0.48968506 0.030914307 -0.9745178 0.012634277l-0.021881104 -1.4369507l0.50283813 -0.113983154q0.17721558 0.56863403 0.51724243 0.7959595q0.35528564 0.22387695 0.9190979 0.096069336q0.5638428 -0.12780762 0.80630493 -0.4711609q0.25427246 -0.36206055 0.14700317 -0.8344116q-0.062286377 -0.27426147 -0.20214844 -0.4668579q-0.13989258 -0.19259644 -0.39819336 -0.34231567q-0.24310303 -0.15316772 -0.6641846 -0.3140564q-0.47372437 -0.18099976 -0.7728882 -0.36953735q-0.29919434 -0.18850708 -0.5020752 -0.44692993q-0.20288086 -0.25842285 -0.2824707 -0.6088562q-0.11764526 -0.5180664 0.054901123 -0.95770264q0.16906738 -0.45489502 0.59646606 -0.7600708q0.43920898 -0.32385254 1.0792236 -0.4689331q1.0514221 -0.23834229 1.9061279 -0.14370728l0.008056641 1.3760376l-0.50286865 0.113983154z" fill-rule="nonzero"/><path fill="#000000" d="m277.34836 300.52917l0.500885 -0.54611206l0.41696167 0.0015869141l0.019226074 4.529724q-0.00491333 0.40164185 0.013061523 0.6218567q0.01449585 0.20501709 0.04562378 0.34213257q0.05883789 0.2590332 0.22366333 0.34985352q0.18005371 0.08734131 0.5984192 0.024536133l0.008270264 0.318573l-1.813385 0.41107178l0.03286743 -1.6897278l-0.07965088 0.0020446777q-0.408844 1.0219116 -0.86398315 1.5576782q-0.45516968 0.5357666 -1.0646973 0.6739197q-0.70095825 0.15890503 -1.199585 -0.27279663q-0.5020752 -0.44692993 -0.71658325 -1.3916321q-0.13842773 -0.6094971 -0.13967896 -1.250061q-0.0047302246 -0.65579224 0.14498901 -1.26651q0.16494751 -0.61416626 0.4677124 -1.115387q0.2993164 -0.516449 0.76205444 -0.87768555q0.46273804 -0.36123657 1.0722961 -0.49938965q0.3961792 -0.08981323 0.76742554 -0.07785034q0.37124634 0.011962891 0.80410767 0.1541748zm-0.119506836 2.013733q-0.013092041 -0.26937866 -0.039398193 -0.45568848q-0.01449585 -0.20498657 -0.062927246 -0.41830444q-0.11419678 -0.5028076 -0.37597656 -0.66778564q-0.2652588 -0.18017578 -0.75286865 -0.06964111q-0.25906372 0.05871582 -0.4821167 0.20541382q-0.22650146 0.13143921 -0.425354 0.38479614q-0.19882202 0.25335693 -0.35125732 0.64038086q-0.1559143 0.37179565 -0.23498535 0.8703613q-0.07904053 0.49856567 -0.06460571 1.0560303q0.029693604 0.5540161 0.14389038 1.0568542q0.1487732 0.6551819 0.3925171 0.9523926q0.25552368 0.27853394 0.68222046 0.18182373q0.1980896 -0.044921875 0.39065552 -0.18469238q0.19259644 -0.13980103 0.39971924 -0.427063q0.20370483 -0.30252075 0.43515015 -0.8356323q0.20785522 -0.49572754 0.28207397 -0.9450989q0.07070923 -0.46466064 0.06460571 -1.0560608l-0.0013427734 -0.28808594zm4.1138916 -3.303711l0.38095093 -0.086364746l-0.085510254 1.6695862l0.07965088 -0.0020141602q0.4074402 -0.95751953 0.8965454 -1.4849548q0.48562622 -0.5426636 1.0951538 -0.68084717q0.45715332 -0.10360718 0.77923584 -0.0965271l0.017028809 1.486145l-0.6552429 0.14852905q-0.12185669 -0.32485962 -0.26657104 -0.46826172q-0.14474487 -0.14343262 -0.37332153 -0.09161377q-0.24380493 0.055267334 -0.52023315 0.3902893q-0.26464844 0.3163147 -0.49606323 0.84942627q-0.2348938 0.5178833 -0.31600952 0.9367981q-0.08459473 0.40368652 -0.07220459 0.88153076l0.043792725 2.8739014l-1.097168 0.24871826l-0.0074768066 -4.548401q-0.016479492 -0.6371155 -0.08569336 -0.9418335q-0.041534424 -0.18286133 -0.12322998 -0.26046753q-0.06994629 -0.09628296 -0.21746826 -0.11090088q-0.1322937 -0.018096924 -0.44052124 0.0357666l6.1035156E-5 -0.35247803l1.4642944 -0.3960266zm6.6424866 5.0470276q-0.97525024 0.22106934 -1.648407 -0.203125q-0.65792847 -0.4276123 -0.893219 -1.4637451q-0.08648682 -0.3809204 -0.11273193 -0.91970825q-0.030334473 -0.6980591 0.06881714 -1.2492371q0.14074707 -0.7208252 0.47885132 -1.2781067q0.34988403 -0.57598877 0.8735657 -0.9510498q0.52368164 -0.37506104 1.1941833 -0.5270386q0.7314453 -0.165802 1.2543335 0.020080566q0.53466797 0.1671753 0.84350586 0.6098633q0.32061768 0.4239807 0.4624939 1.048706q0.12802124 0.5637512 0.12097168 1.2382507q-0.014038086 0.996521 -0.30715942 1.7518921q-0.29312134 0.7553711 -0.8722534 1.2391052q-0.5791321 0.48376465 -1.4629517 0.68411255zm-1.3821716 -1.6412964q0.15570068 0.68566895 0.5213623 0.9552307q0.36566162 0.2695923 0.95996094 0.1348877q0.6095276 -0.1381836 0.9725952 -0.7972717q0.35958862 -0.6742859 0.40551758 -1.7421265q0.045898438 -1.06781 -0.12710571 -1.8296509q-0.1557312 -0.68566895 -0.5095825 -0.973938q-0.33865356 -0.29174805 -0.9024658 -0.16394043q-0.6552429 0.14852905 -1.0148621 0.82284546q-0.3630371 0.65908813 -0.41729736 1.7608337q-0.057678223 1.0865173 0.11187744 1.8331299zm4.9535217 -5.656952l1.9962158 -0.45251465l-0.074035645 3.41333q-0.01184082 0.3711853 -0.008453369 0.7388916q0.018615723 0.36428833 0.08782959 0.66900635q0.1003418 0.44189453 0.2977295 0.6054077q0.21258545 0.16009521 0.54785156 0.084106445q0.2590332 -0.05871582 0.53060913 -0.34457397q0.2715454 -0.28585815 0.521698 -0.80718994q0.26190186 -0.54000854 0.37002563 -0.9810791q0.12338257 -0.44451904 0.10546875 -1.0172424l-0.04724121 -2.8891602l1.097168 -0.24871826l0.022705078 4.5449524q-0.004211426 0.19320679 0.012359619 0.47781372q0.016571045 0.28463745 0.05810547 0.46749878q0.05883789 0.2590027 0.22366333 0.349823q0.17660522 0.07211304 0.5949402 0.009338379l-0.0069885254 0.32199097l-1.8133545 0.41107178l0.048095703 -1.6931458l-0.07965088 0.0020141602q-0.42752075 1.0101318 -0.9096985 1.5680542q-0.46694946 0.55444336 -1.0612183 0.68914795q-0.6095581 0.1381836 -1.0056763 -0.1244812q-0.39959717 -0.27792358 -0.55184937 -0.94836426q-0.041534424 -0.18283081 -0.069885254 -0.448761q-0.013092041 -0.26940918 -0.014434814 -0.5574951l0.021240234 -2.3759766q-0.0013427734 -0.28808594 -0.024169922 -0.45913696q-0.0075683594 -0.17453003 -0.035247803 -0.29641724q-0.062286377 -0.27426147 -0.2388916 -0.3463745q-0.18008423 -0.087371826 -0.5831909 -0.028015137l-0.01171875 -0.33380127zm13.346771 3.3510132l-1.9962463 0.45251465l0.05883789 -3.409851q0.0069885254 -0.32202148 1.2207031E-4 -0.7049866q-0.010314941 -0.39819336 -0.07952881 -0.7029419q-0.1003418 -0.441864 -0.29769897 -0.6054077q-0.1973877 -0.1635437 -0.5326233 -0.08755493q-0.274292 0.062194824 -0.53060913 0.3446045q-0.25979614 0.26715088 -0.50161743 0.7545471q-0.24179077 0.48739624 -0.37350464 0.96585083q-0.13513184 0.46322632 -0.13388062 1.1037903l0.043792725 2.873932l-1.097168 0.24868774l-0.007446289 -4.5483704q-0.004119873 -0.15930176 -0.024169922 -0.45916748q-0.0047912598 -0.3033142 -0.046295166 -0.48614502q-0.041534424 -0.18286133 -0.1232605 -0.26046753q-0.06991577 -0.09628296 -0.21743774 -0.11090088q-0.1322937 -0.018096924 -0.45578003 0.039215088l9.1552734E-5 -0.35247803l1.4338074 -0.38909912l0.35046387 -0.07946777l-0.037719727 1.7388611l0.083099365 0.013214111q0.412323 -1.0066833 0.8944702 -1.5645752q0.48217773 -0.55789185 1.0612488 -0.68917847q0.6095276 -0.13815308 1.0091248 0.13973999q0.39611816 0.2626953 0.5449219 0.9178772q0.0519104 0.22854614 0.068481445 0.5131836q0.031799316 0.28118896 0.01928711 0.5083008l-0.021209717 2.3759766q-0.0028686523 0.48129272 0.05593872 0.7403259q0.04498291 0.1980896 0.13015747 0.29092407q0.10043335 0.08938599 0.23617554 0.12271118q0.15100098 0.029846191 0.462677 -0.008758545l0.023498535 0.315094zm4.8297424 -8.753052q0.012512207 -0.22714233 -0.012390137 -0.47784424q-0.013092041 -0.26937866 -0.05807495 -0.46746826q-0.041534424 -0.18283081 -0.13848877 -0.25698853q-0.08517456 -0.09283447 -0.23269653 -0.10745239q-0.14752197 -0.0146484375 -0.48623657 0.04611206l6.1035156E-5 -0.35247803l1.5861816 -0.42364502l0.36572266 -0.08291626l0.030426025 7.6834106q-0.0014648438 0.41687012 0.013061523 0.6218567q0.01449585 0.20498657 0.045654297 0.34213257q0.058807373 0.2590332 0.22363281 0.349823q0.18008423 0.087371826 0.5984192 0.02456665l0.008270264 0.318573l-1.813385 0.41104126l0.03286743 -1.6896973l-0.07965088 0.0020446777q-0.408844 1.0219116 -0.86398315 1.5576782q-0.45516968 0.5357361 -1.0646973 0.6739197q-0.70095825 0.15890503 -1.199585 -0.27279663q-0.5020447 -0.44696045 -0.71658325 -1.3916321q-0.13842773 -0.6094971 -0.13967896 -1.250061q-0.0047302246 -0.65579224 0.14498901 -1.26651q0.16494751 -0.61416626 0.46774292 -1.115387q0.2992859 -0.516449 0.76205444 -0.87768555q0.46273804 -0.36123657 1.0722656 -0.49942017q0.38095093 -0.08633423 0.7182617 -0.08270264q0.35253906 1.8310547E-4 0.74801636 0.11883545l-0.012176514 -1.5353088zm-0.0020751953 3.589264q-0.012359619 -0.47784424 -0.10232544 -0.8739929q-0.11419678 -0.50283813 -0.37597656 -0.66778564q-0.26522827 -0.1802063 -0.75286865 -0.06964111q-0.25906372 0.05871582 -0.4821167 0.20541382q-0.22650146 0.13143921 -0.4253235 0.38479614q-0.19885254 0.25335693 -0.35128784 0.64038086q-0.1559143 0.37179565 -0.23495483 0.8703613q-0.079071045 0.49853516 -0.06463623 1.0560303q0.029693604 0.5540161 0.14389038 1.0568237q0.1487732 0.6552124 0.3925171 0.9524231q0.2555542 0.27853394 0.68222046 0.18179321q0.1980896 -0.044891357 0.39065552 -0.18466187q0.19259644 -0.13980103 0.39974976 -0.427063q0.20367432 -0.30252075 0.43511963 -0.8356323q0.20788574 -0.49572754 0.28207397 -0.9451294q0.070739746 -0.46463013 0.06460571 -1.0560303l-0.0013427734 -0.28808594zm10.508331 -4.3687134q-0.93670654 1.5901794 -1.9835815 3.1893005l0.9091797 1.2518616q0.3531494 0.4967041 0.5525818 0.7398987q0.19598389 0.22793579 0.33032227 0.32565308q0.14611816 0.07901001 0.26663208 0.11578369q0.13574219 0.033325195 0.4017334 0.005065918l-0.0069885254 0.32202148l-1.5848083 0.35925293l-1.4616699 -2.3442383q-0.124694824 0.1564331 -0.3131714 0.45550537q-0.18844604 0.29904175 -0.3699646 0.62857056q-0.16976929 0.31085205 -0.2383728 0.502655q-0.053344727 0.18832397 -0.056152344 0.31713867q-0.0062561035 0.11355591 0.024902344 0.2507019q0.03805542 0.16760254 0.15023804 0.23828125q0.1274414 0.06726074 0.35116577 0.06460571l0.008239746 0.31854248l-1.8133545 0.41107178l-0.19113159 -0.2770996q1.0476074 -1.8075867 2.1013794 -3.3762207l-0.9161072 -1.2823181q-0.27975464 -0.38519287 -0.45355225 -0.5861206q-0.15859985 -0.20437622 -0.29293823 -0.3020935q-0.13433838 -0.097717285 -0.28533936 -0.12756348q-0.15444946 -0.04510498 -0.41696167 -0.0016174316l0.0069885254 -0.32202148l1.5848083 -0.35925293l1.3813477 2.20224q0.25427246 -0.36203003 0.4593506 -0.7289734q0.20510864 -0.36691284 0.27371216 -0.5586853q0.0803833 -0.21047974 0.094940186 -0.3579712q0.011108398 -0.16275024 -0.023498535 -0.3151245q-0.07611084 -0.33520508 -0.5014038 -0.30288696l0.0069885254 -0.32202148l1.813385 -0.41104126l0.19110107 0.2770996zm2.4532776 3.9458923q0.051879883 0.22857666 0.078826904 0.5588989q0.026977539 0.33035278 0.0012817383 0.64056396q-0.0256958 0.3102417 -0.09915161 0.5512085q-0.070007324 0.25616455 -0.21618652 0.52963257q-0.12750244 0.2852478 -0.40048218 0.63549805q-0.25424194 0.36206055 -0.68444824 0.7960205l-0.39474487 -0.3270874q0.24942017 -0.3128662 0.3755188 -0.5336914q0.12609863 -0.22085571 0.19125366 -0.42788696q0.0803833 -0.21047974 0.10119629 -0.4715271q0.036071777 -0.26452637 0.02368164 -0.7423706q0.0028686523 -0.48129272 -0.058685303 -0.96398926l1.0819397 -0.24526978zm4.252899 -4.3285522q-0.1716919 -0.47375488 -0.27416992 -0.64279175q-0.10592651 -0.18426514 -0.24859619 -0.24804688q-0.14614868 -0.07904053 -0.43911743 -0.028625488l0.0069885254 -0.32202148l1.6304932 -0.3696289l1.6177368 4.9364014q1.4842529 -3.4125671 1.193573 -4.6924744q-0.06573486 -0.28952026 -0.22711182 -0.3650818q-0.14956665 -0.0942688 -0.4577942 -0.040405273l0.006958008 -0.32202148l1.6305237 -0.3696289l0.24029541 0.28198242q-0.134552 0.9597473 -0.45336914 2.02536q-0.30355835 1.0621338 -0.8094177 2.3623962q-0.4940796 1.2815552 -1.1468201 2.7112427q-0.50512695 1.0917969 -0.87023926 1.6712341q-0.2979126 0.45205688 -0.5763855 0.707428q-0.26324463 0.2519226 -0.53549194 0.3937378q-0.28399658 0.16052246 -0.6040039 0.23306274q-0.18286133 0.04144287 -0.4065857 0.0440979q-0.22024536 0.0178833 -0.38302612 0.006713867l0.0043945312 -1.2506714l0.48764038 -0.11053467q0.063690186 0.20986938 0.1828003 0.31103516q0.11911011 0.10116577 0.30197144 0.0597229q0.21331787 -0.04837036 0.35534668 -0.12860107q0.1302185 -0.061584473 0.26184082 -0.18753052q0.14685059 -0.12942505 0.32699585 -0.39456177q0.19537354 -0.2685852 0.40530396 -0.68466187q0.21340942 -0.4008484 0.4683838 -0.971344l-1.6891174 -4.6157837zm6.6698303 1.8525696q0.0519104 0.22854614 0.07885742 0.5588684q0.026947021 0.33035278 0.0012512207 0.6405945q-0.025665283 0.31021118 -0.09915161 0.551178q-0.070007324 0.25619507 -0.21618652 0.52963257q-0.12750244 0.2852478 -0.40045166 0.63552856q-0.25427246 0.36203003 -0.68447876 0.79599l-0.39471436 -0.32705688q0.24938965 -0.31289673 0.37548828 -0.5337219q0.12609863 -0.22085571 0.19125366 -0.42788696q0.0803833 -0.21047974 0.10119629 -0.4715271q0.036071777 -0.26452637 0.023712158 -0.7423706q0.0028381348 -0.48129272 -0.05871582 -0.96398926l1.0819397 -0.24523926zm8.796143 -2.314392l0.023895264 1.8691101l-4.6019897 1.0431824l-0.19113159 -0.2770996l2.5643005 -4.794922q0.5411377 -1.0038452 0.80856323 -1.4489746l-0.052612305 -0.020111084l-1.4781494 0.3350525q-0.3352356 0.07598877 -0.4772339 0.15625q-0.1454773 0.06503296 -0.27017212 0.22146606q-0.12814331 0.14120483 -0.25912476 0.41119385q-0.11917114 0.25131226 -0.2425232 0.6958618l-0.5638428 0.12780762l0.0038146973 -1.7471924l4.510559 -1.0224915l0.19454956 0.2923584l-3.3797607 6.2134094l0.04083252 0.03881836l1.4324341 -0.32470703q0.38095093 -0.086364746 0.57211304 -0.16174316q0.20297241 -0.094055176 0.33111572 -0.23526001q0.12472534 -0.15646362 0.22518921 -0.41955566q0.11227417 -0.28179932 0.24536133 -0.824646l0.56381226 -0.12780762z" fill-rule="nonzero"/><path fill="#000000" fill-opacity="0.0" d="m287.5013 261.5013l-123.49606 30.992126" fill-rule="evenodd"/><path stroke="#999999" stroke-width="1.0" stroke-linejoin="round" stroke-linecap="butt" stroke-dasharray="4.0,3.0" d="m287.5013 261.5013l-123.49606 30.992126" fill-rule="evenodd"/><path fill="#000000" fill-opacity="0.0" d="m164.23042 292.33743l-19.061005 53.131134" fill-rule="evenodd"/><path stroke="#000000" stroke-width="2.0" stroke-linejoin="round" stroke-linecap="butt" d="m164.23042 292.33743l-15.008835 41.83603" fill-rule="evenodd"/><path fill="#000000" stroke="#000000" stroke-width="2.0" stroke-linecap="butt" d="m146.11217 333.05795l0.044570923 9.658569l6.1742706 -7.4275513z" fill-rule="evenodd"/><path fill="#000000" fill-opacity="0.0" d="m164.23042 292.33743l64.70262 6.80011" fill-rule="evenodd"/><path stroke="#000000" stroke-width="2.0" stroke-linejoin="round" stroke-linecap="butt" d="m164.23042 292.33743l52.76834 5.5458374" fill-rule="evenodd"/><path fill="#000000" stroke="#000000" stroke-width="2.0" stroke-linecap="butt" d="m216.65349 301.16864l9.371765 -2.3367004l-8.681183 -4.2340393z" fill-rule="evenodd"/><path fill="#000000" fill-opacity="0.0" d="m164.23042 292.33743l-5.793518 -55.242065" fill-rule="evenodd"/><path stroke="#000000" stroke-width="2.0" stroke-linejoin="round" stroke-linecap="butt" d="m164.23042 292.33743l-4.54187 -43.30751" fill-rule="evenodd"/><path fill="#000000" stroke="#000000" stroke-width="2.0" stroke-linecap="butt" d="m162.97398 248.68535l-4.2321167 -8.682129l-2.3387756 9.371262z" fill-rule="evenodd"/><path fill="#000000" d="m162.27087 294.11032l0 0c-1.0275726 -1.4144592 -0.71395874 -3.394104 0.7004852 -4.421692l0 0c0.679245 -0.49343872 1.5267029 -0.6968689 2.3559265 -0.5654907c0.82922363 0.13134766 1.5722961 0.5867615 2.0657654 1.2659912l0 0c1.0275726 1.4144592 0.71395874 3.394104 -0.7005005 4.421692l0 0c-1.414444 1.0275574 -3.394104 0.71395874 -4.4216766 -0.7005005z" fill-rule="evenodd"/><path fill="#000000" fill-opacity="0.0" d="m120.705696 255.86905l76.661415 0l0 45.259857l-76.661415 0z" fill-rule="evenodd"/><path fill="#000000" d="m144.5807 271.1303l-0.125 0.515625q-0.390625 0.078125 -0.5625 0.1875q-0.171875 0.109375 -0.3125 0.3125q-0.140625 0.203125 -0.28125 0.65625q-0.140625 0.4375 -0.359375 1.4375l-2.453125 11.109375l-1.40625 0l-3.046875 -8.9375q-0.546875 -1.609375 -0.96875 -3.1875l-0.125 0q-0.0625 0.53125 -0.34375 2.03125q-0.28125 1.484375 -0.59375 2.90625l-0.921875 4.15625q-0.09375 0.4375 -0.15625 0.84375q-0.0625 0.40625 -0.0625 0.78125q0 0.46875 0.234375 0.671875q0.234375 0.1875 0.78125 0.21875l-0.109375 0.515625l-3.640625 0l0.109375 -0.515625q0.390625 -0.0625 0.59375 -0.203125q0.203125 -0.140625 0.328125 -0.390625q0.140625 -0.25 0.25 -0.609375q0.125 -0.359375 0.34375 -1.390625l1.78125 -8.015625q0.09375 -0.4375 0.15625 -0.84375q0.0625 -0.40625 0.0625 -0.828125q0 -0.484375 -0.25 -0.671875q-0.25 -0.203125 -0.765625 -0.234375l0.109375 -0.515625l3.328125 0l2.75 8.109375q0.59375 1.75 0.921875 2.96875l0.109375 0q0.078125 -0.640625 0.375 -2.109375q0.296875 -1.484375 0.546875 -2.59375l0.734375 -3.28125q0.0625 -0.34375 0.140625 -0.8125q0.078125 -0.46875 0.078125 -0.859375q0 -0.484375 -0.25 -0.671875q-0.25 -0.203125 -0.765625 -0.234375l0.109375 -0.515625l3.65625 0z" fill-rule="nonzero"/><path fill="#000000" d="m149.82721 283.7553q0.859375 0 1.484375 0.34375q0.625 0.328125 0.96875 1.015625q0.34375 0.671875 0.34375 1.671875q0 1.078125 -0.375 2.421875q-0.375 1.34375 -1.078125 2.328125q-0.6875 0.984375 -1.59375 1.46875q-0.890625 0.46875 -1.859375 0.46875q-0.96875 0 -1.609375 -0.375q-0.640625 -0.375 -0.9375 -1.046875q-0.296875 -0.671875 -0.296875 -1.578125q0 -0.890625 0.25 -1.984375q0.265625 -1.09375 0.703125 -1.96875q0.4375 -0.890625 1.046875 -1.5q0.609375 -0.625 1.359375 -0.9375q0.75 -0.328125 1.59375 -0.328125zm1.46875 2.734375q0 -2.125 -1.546875 -2.125q-0.375 0 -0.703125 0.125q-0.390625 0.15625 -0.75 0.453125q-0.390625 0.34375 -0.734375 0.875q-0.40625 0.625 -0.703125 1.421875q-0.3125 0.828125 -0.5 1.796875q-0.171875 0.921875 -0.171875 1.671875q0 1.078125 0.390625 1.609375q0.390625 0.53125 1.171875 0.53125q0.625 0 1.1875 -0.375q0.6875 -0.46875 1.25 -1.484375q0.59375 -1.078125 0.921875 -2.65625q0.1875 -0.921875 0.1875 -1.84375z" fill-rule="nonzero"/><path fill="#000000" fill-opacity="0.0" d="m155.97346 214.1748l37.88977 0l0 51.716522l-37.88977 0z" fill-rule="evenodd"/><path fill="#000000" d="m171.86409 235.97481l-2.6875 0l0.8125 -3.546875q0.171875 -0.75 0.203125 -1.03125q0.046875 -0.296875 0.046875 -0.453125q0 -0.296875 -0.125 -0.4375q-0.125 -0.140625 -0.359375 -0.140625q-0.203125 0 -0.453125 0.15625q-0.25 0.15625 -0.5625 0.484375q-0.296875 0.328125 -0.484375 0.703125q-0.171875 0.375 -0.28125 0.921875l-0.71875 3.34375l-1.875 0l1.03125 -4.59375q0.03125 -0.15625 0.078125 -0.4375q0.0625 -0.296875 0.0625 -0.5q0 -0.265625 -0.15625 -0.359375q-0.15625 -0.109375 -0.484375 -0.140625l0.109375 -0.421875l1.78125 -0.078125l0.6875 0l-0.375 1.40625l0.078125 0.03125q0.453125 -0.5625 0.828125 -0.875q0.390625 -0.3125 0.765625 -0.453125q0.390625 -0.140625 0.84375 -0.140625q0.671875 0 1.046875 0.375q0.390625 0.375 0.390625 1.03125q0 0.421875 -0.125 1.015625l-0.53125 2.40625q-0.0625 0.296875 -0.09375 0.46875q-0.015625 0.15625 -0.015625 0.265625q0 0.296875 0.140625 0.421875q0.15625 0.109375 0.5 0.15625l-0.078125 0.421875z" fill-rule="nonzero"/><path fill="#000000" d="m176.22954 239.75606l-0.265625 1.21875l-3.140625 0l-0.078125 -0.21875l2.375 -2.71875q0.5 -0.578125 0.734375 -0.828125l-0.03125 -0.03125l-1.015625 0q-0.21875 0 -0.328125 0.03125q-0.09375 0.03125 -0.203125 0.109375q-0.109375 0.078125 -0.234375 0.234375q-0.109375 0.140625 -0.25 0.421875l-0.390625 0l0.25 -1.140625l3.078125 0l0.09375 0.21875l-3.109375 3.546875l0.015625 0.03125l0.984375 0q0.265625 0 0.390625 -0.03125q0.140625 -0.03125 0.25 -0.109375q0.109375 -0.078125 0.21875 -0.234375q0.109375 -0.15625 0.265625 -0.5l0.390625 0z" fill-rule="nonzero"/><path fill="#000000" fill-opacity="0.0" d="m142.97346 329.6748l37.88977 0l0 51.716522l-37.88977 0z" fill-rule="evenodd"/><path fill="#000000" d="m158.86409 351.4748l-2.6875 0l0.8125 -3.546875q0.171875 -0.75 0.203125 -1.03125q0.046875 -0.296875 0.046875 -0.453125q0 -0.296875 -0.125 -0.4375q-0.125 -0.140625 -0.359375 -0.140625q-0.203125 0 -0.453125 0.15625q-0.25 0.15625 -0.5625 0.484375q-0.296875 0.328125 -0.484375 0.703125q-0.171875 0.375 -0.28125 0.921875l-0.71875 3.34375l-1.875 0l1.03125 -4.59375q0.03125 -0.15625 0.078125 -0.4375q0.0625 -0.296875 0.0625 -0.5q0 -0.265625 -0.15625 -0.359375q-0.15625 -0.109375 -0.484375 -0.140625l0.109375 -0.421875l1.78125 -0.078125l0.6875 0l-0.375 1.40625l0.078125 0.03125q0.453125 -0.5625 0.828125 -0.875q0.390625 -0.3125 0.765625 -0.453125q0.390625 -0.140625 0.84375 -0.140625q0.671875 0 1.046875 0.375q0.390625 0.375 0.390625 1.03125q0 0.421875 -0.125 1.015625l-0.53125 2.40625q-0.0625 0.296875 -0.09375 0.46875q-0.015625 0.15625 -0.015625 0.265625q0 0.296875 0.140625 0.421875q0.15625 0.109375 0.5 0.15625l-0.078125 0.421875z" fill-rule="nonzero"/><path fill="#000000" d="m163.87016 352.5373q-0.828125 0.90625 -1.75 1.78125l0.40625 0.953125q0.15625 0.375 0.25 0.5625q0.09375 0.171875 0.171875 0.25q0.078125 0.078125 0.15625 0.125q0.078125 0.03125 0.25 0.046875l-0.046875 0.21875l-1.078125 0l-0.609375 -1.734375q-0.109375 0.078125 -0.28125 0.25q-0.15625 0.15625 -0.328125 0.34375q-0.15625 0.1875 -0.21875 0.296875q-0.0625 0.109375 -0.09375 0.203125q-0.015625 0.078125 -0.015625 0.15625q0 0.109375 0.0625 0.1875q0.0625 0.0625 0.21875 0.078125l-0.046875 0.21875l-1.234375 0l-0.078125 -0.21875q0.9375 -1.015625 1.859375 -1.875l-0.40625 -0.96875q-0.125 -0.28125 -0.203125 -0.4375q-0.078125 -0.15625 -0.15625 -0.234375q-0.0625 -0.09375 -0.15625 -0.140625q-0.09375 -0.046875 -0.265625 -0.0625l0.046875 -0.203125l1.078125 0l0.578125 1.625q0.203125 -0.1875 0.390625 -0.390625q0.203125 -0.21875 0.28125 -0.328125q0.078125 -0.125 0.09375 -0.21875q0.03125 -0.09375 0.03125 -0.203125q0 -0.234375 -0.265625 -0.28125l0.046875 -0.203125l1.234375 0l0.078125 0.203125z" fill-rule="nonzero"/><path fill="#000000" fill-opacity="0.0" d="m211.97346 294.1748l37.88977 0l0 51.716522l-37.88977 0z" fill-rule="evenodd"/><path fill="#000000" d="m227.86409 315.9748l-2.6875 0l0.8125 -3.546875q0.171875 -0.75 0.203125 -1.03125q0.046875 -0.296875 0.046875 -0.453125q0 -0.296875 -0.125 -0.4375q-0.125 -0.140625 -0.359375 -0.140625q-0.203125 0 -0.453125 0.15625q-0.25 0.15625 -0.5625 0.484375q-0.296875 0.328125 -0.484375 0.703125q-0.171875 0.375 -0.28125 0.921875l-0.71875 3.34375l-1.875 0l1.03125 -4.59375q0.03125 -0.15625 0.078125 -0.4375q0.0625 -0.296875 0.0625 -0.5q0 -0.265625 -0.15625 -0.359375q-0.15625 -0.109375 -0.484375 -0.140625l0.109375 -0.421875l1.78125 -0.078125l0.6875 0l-0.375 1.40625l0.078125 0.03125q0.453125 -0.5625 0.828125 -0.875q0.390625 -0.3125 0.765625 -0.453125q0.390625 -0.140625 0.84375 -0.140625q0.671875 0 1.046875 0.375q0.390625 0.375 0.390625 1.03125q0 0.421875 -0.125 1.015625l-0.53125 2.40625q-0.0625 0.296875 -0.09375 0.46875q-0.015625 0.15625 -0.015625 0.265625q0 0.296875 0.140625 0.421875q0.15625 0.109375 0.5 0.15625l-0.078125 0.421875z" fill-rule="nonzero"/><path fill="#000000" d="m229.57329 317.77167q-0.03125 -0.328125 -0.078125 -0.453125q-0.03125 -0.125 -0.125 -0.1875q-0.09375 -0.078125 -0.28125 -0.09375l0.046875 -0.203125l1.109375 0l0.328125 3.4375q1.46875 -2.0 1.46875 -2.859375q0 -0.203125 -0.09375 -0.28125q-0.078125 -0.078125 -0.28125 -0.09375l0.03125 -0.203125l1.125 0l0.125 0.21875q-0.234375 0.59375 -0.59375 1.25q-0.359375 0.640625 -0.875 1.40625q-0.515625 0.765625 -1.15625 1.59375q-0.484375 0.640625 -0.8125 0.96875q-0.25 0.234375 -0.46875 0.359375q-0.21875 0.140625 -0.40625 0.1875q-0.203125 0.0625 -0.4375 0.0625q-0.109375 0 -0.25 -0.03125q-0.15625 -0.015625 -0.265625 -0.0625l0.1875 -0.8125l0.34375 0q0 0.15625 0.0625 0.234375q0.0625 0.09375 0.1875 0.09375q0.140625 0 0.25 -0.03125q0.09375 -0.03125 0.203125 -0.09375q0.109375 -0.0625 0.265625 -0.203125q0.15625 -0.140625 0.359375 -0.390625q0.203125 -0.234375 0.453125 -0.5625l-0.421875 -3.25z" fill-rule="nonzero"/><path fill="#000000" fill-opacity="0.0" d="m475.52106 182.19156l-45.499054 33.402374" fill-rule="evenodd"/><path stroke="#000000" stroke-width="2.0" stroke-linejoin="round" stroke-linecap="butt" d="m475.52103 182.19156l-35.825867 26.30098" fill-rule="evenodd"/><path fill="#000000" stroke="#000000" stroke-width="2.0" stroke-linecap="butt" d="m437.74026 205.82962l-5.3613586 8.034058l9.27121 -2.7082367z" fill-rule="evenodd"/><path fill="#000000" fill-opacity="0.0" d="m484.31747 184.22707l49.84964 41.799637" fill-rule="evenodd"/><path stroke="#000000" stroke-width="2.0" stroke-linejoin="round" stroke-linecap="butt" d="m484.31747 184.22705l40.65445 34.08937" fill-rule="evenodd"/><path fill="#000000" stroke="#000000" stroke-width="2.0" stroke-linecap="butt" d="m522.84937 220.84775l9.077332 3.300354l-4.8322144 -8.363007z" fill-rule="evenodd"/><path fill="#000000" fill-opacity="0.0" d="m483.97064 174.37996l32.859924 -46.855873" fill-rule="evenodd"/><path stroke="#000000" stroke-width="2.0" stroke-linejoin="round" stroke-linecap="butt" d="m483.97064 174.37996l25.969849 -37.031097" fill-rule="evenodd"/><path fill="#000000" stroke="#000000" stroke-width="2.0" stroke-linecap="butt" d="m512.64514 139.24564l2.5066528 -9.327744l-7.9159546 5.53421z" fill-rule="evenodd"/><path fill="#ffffff" d="m475.38126 178.18799l0 0c-0.09637451 -3.4617767 2.6180725 -6.3529816 6.079071 -6.474884l0.2218628 6.2994843z" fill-rule="evenodd"/><path stroke="#000000" stroke-width="1.0" stroke-linejoin="round" stroke-linecap="butt" d="m475.38126 178.18799l0 0c-0.09637451 -3.4617767 2.6180725 -6.3529816 6.079071 -6.474884l0.2218628 6.2994843z" fill-rule="evenodd"/><path fill="#000000" d="m481.50677 171.71164l0 0c3.461792 -0.09635925 6.352997 2.618103 6.474884 6.079071l-6.299469 0.22187805z" fill-rule="evenodd"/><path stroke="#000000" stroke-width="1.0" stroke-linejoin="round" stroke-linecap="butt" d="m481.50677 171.71164l0 0c3.461792 -0.09635925 6.352997 2.618103 6.474884 6.079071l-6.299469 0.22187805z" fill-rule="evenodd"/><path fill="#ffffff" d="m487.98312 177.83719l0 0c0.09637451 3.4617767 -2.618103 6.3529663 -6.079071 6.474869l-0.2218628 -6.299469z" fill-rule="evenodd"/><path stroke="#000000" stroke-width="1.0" stroke-linejoin="round" stroke-linecap="butt" d="m487.98312 177.83719l0 0c0.09637451 3.4617767 -2.618103 6.3529663 -6.079071 6.474869l-0.2218628 -6.299469z" fill-rule="evenodd"/><path fill="#000000" d="m479.65387 183.98071c-2.4789429 -0.8424835 -4.1789856 -3.1296692 -4.2711487 -5.7462616l6.299469 -0.2218628z" fill-rule="evenodd"/><path stroke="#000000" stroke-width="1.0" stroke-linejoin="round" stroke-linecap="butt" d="m479.65387 183.98071c-2.4789429 -0.8424835 -4.1789856 -3.1296692 -4.2711487 -5.7462616l6.299469 -0.2218628z" fill-rule="evenodd"/></g></svg>