<?xml version="1.0" encoding="utf-8"?>
<!-- Generator: Adobe Illustrator 26.5.0, SVG Export Plug-In . SVG Version: 6.00 Build 0)  -->
<svg version="1.1" xmlns="http://www.w3.org/2000/svg" xmlns:xlink="http://www.w3.org/1999/xlink" x="0px" y="0px"
	 viewBox="0 0 185 150" style="enable-background:new 0 0 185 150;" xml:space="preserve">
<style type="text/css">
	.st0{fill:#FFFFFF;}
	.st1{fill:#FF0000;}
	.st2{fill:none;stroke:#FF0000;stroke-width:0.797;stroke-miterlimit:10;}
	.st3{fill:none;stroke:#000000;stroke-width:0.797;stroke-miterlimit:10;}
	.st4{fill:none;stroke:#000000;stroke-width:0.3985;stroke-miterlimit:10;stroke-dasharray:0.3985,1.9926;}
	.st5{fill:none;stroke:#000000;stroke-width:0.3985;stroke-miterlimit:10;}
	.st6{fill:none;stroke:#000000;stroke-width:0.3188;stroke-linecap:round;stroke-linejoin:round;stroke-miterlimit:3.9999;}
	.st7{fill:none;stroke:#000000;stroke-width:0.3188;stroke-linecap:round;stroke-linejoin:round;stroke-miterlimit:3.9998;}
</style>
<g id="Layer_2">
	<rect class="st0" width="185" height="150"/>
</g>
<g id="Layer_1">
	<g>
		<path class="st1" d="M50,119.2l3.1,13.2l1.1-3.8l2.8,9.7l0.3-7.4l5.5,7.5l-3.9-11.8l2.9,1.8l-8.8-12.7L50,119.2z"/>
		<path class="st2" d="M50,119.2l3.1,13.2l1.1-3.8l2.8,9.7l0.3-7.4l5.5,7.5l-3.9-11.8l2.9,1.8l-8.8-12.7L50,119.2z"/>
		<path class="st0" d="M20.5,84.2L8.2,81.2l5,11.6L20.5,84.2z"/>
		<path class="st3" d="M20.5,84.2L8.2,81.2l5,11.6L20.5,84.2z"/>
		<path class="st3" d="M20.5,84.2l34.5,29l-7.2,8.6l-34.5-29"/>
		<path class="st4" d="M53.1,118.9l-19-15.9"/>
		<path d="M54.2,118.9c0-0.6-0.5-1.1-1.1-1.1c-0.6,0-1.1,0.5-1.1,1.1c0,0.6,0.5,1.1,1.1,1.1C53.7,120,54.2,119.5,54.2,118.9z"/>
		<path class="st0" d="M35.6,101.2c-1-0.8-2.4-0.7-3.2,0.3c-0.8,1-0.7,2.4,0.3,3.2c1,0.8,2.4,0.7,3.2-0.3
			C36.7,103.5,36.5,102,35.6,101.2z"/>
		<path class="st5" d="M35.6,101.2c-1-0.8-2.4-0.7-3.2,0.3c-0.8,1-0.7,2.4,0.3,3.2c1,0.8,2.4,0.7,3.2-0.3
			C36.7,103.5,36.5,102,35.6,101.2z"/>
		<path d="M32.4,101.5l1.7,1.4l1.4-1.7C34.6,100.4,33.2,100.6,32.4,101.5z"/>
		<path d="M35.9,104.4l-1.7-1.4l-1.4,1.7C33.6,105.5,35.1,105.4,35.9,104.4z"/>
		<path class="st5" d="M53.1,118.9l12.7,10.6"/>
		<path class="st6" d="M65.9,128c-0.2,0.4,0,1.5,0.1,1.7c-0.2-0.1-1.4-0.1-1.7,0.2"/>
		<path class="st5" d="M53.1,118.9l-10.6,12.7"/>
		<path class="st6" d="M44.1,131.7c-0.4-0.2-1.5,0-1.7,0.1c0.1-0.2,0.1-1.4-0.2-1.7"/>
	</g>
	<g>
		<path class="st3" d="M69,43.9l32.4-25.3"/>
		<path d="M70.1,43.9c0-0.6-0.5-1.1-1.1-1.1c-0.6,0-1.1,0.5-1.1,1.1c0,0.6,0.5,1.1,1.1,1.1C69.6,45,70.1,44.5,70.1,43.9z"/>
		<path class="st3" d="M105.2,10.6L99,15.5l4.9,6.2l6.2-4.9"/>
		<path class="st0" d="M88.5,28.6c-0.8-1-2.2-1.2-3.2-0.4c-1,0.8-1.2,2.2-0.4,3.2c0.8,1,2.2,1.2,3.2,0.4
			C89.1,31,89.3,29.6,88.5,28.6z"/>
		<path class="st5" d="M88.5,28.6c-0.8-1-2.2-1.2-3.2-0.4c-1,0.8-1.2,2.2-0.4,3.2c0.8,1,2.2,1.2,3.2,0.4
			C89.1,31,89.3,29.6,88.5,28.6z"/>
		<path d="M85.3,28.3l1.4,1.8l1.8-1.4C87.7,27.7,86.3,27.5,85.3,28.3z"/>
		<path d="M88.1,31.8L86.7,30L85,31.4C85.7,32.4,87.1,32.6,88.1,31.8z"/>
		<path class="st5" d="M68.2,38.4c-2.7,0.1-5.2,2.7-5.1,5.8c0.1,3.1,2.7,5.5,5.8,5.4c3.1-0.1,5.5-2.7,5.4-5.8"/>
		<path class="st6" d="M67.3,37.2c0.1,0.5,1,1.2,1.2,1.2c-0.2,0.1-1.1,0.8-1.1,1.3"/>
		<path class="st3" d="M69,43.9L66.2,64"/>
		<path d="M70.1,43.9c0-0.6-0.5-1.1-1.1-1.1c-0.6,0-1.1,0.5-1.1,1.1c0,0.6,0.5,1.1,1.1,1.1C69.6,45,70.1,44.5,70.1,43.9z"/>
		<path class="st3" d="M93.7,62.2l-0.8,5.6l-53.6-7.5l0.8-5.6"/>
		<path class="st1" d="M88,59.9c-3.3-0.5-6-0.2-6.1,0.6c-0.1,0.8,2.4,1.8,5.7,2.3c3.3,0.5,6,0.2,6.1-0.6
			C93.8,61.4,91.3,60.3,88,59.9z"/>
		<path class="st1" d="M99.8,61.6c-3.3-0.5-6-0.2-6.1,0.6c-0.1,0.8,2.4,1.8,5.7,2.3c3.3,0.5,6,0.2,6.1-0.6
			C105.7,63,103.1,62,99.8,61.6z"/>
		<path class="st1" d="M46.3,54c-3.3-0.5-6-0.2-6.1,0.6c-0.1,0.8,2.4,1.8,5.7,2.3c3.3,0.5,6,0.2,6.1-0.6
			C52.1,55.5,49.5,54.5,46.3,54z"/>
		<path class="st1" d="M34.4,52.4c-3.3-0.5-6-0.2-6.1,0.6c-0.1,0.8,2.4,1.8,5.7,2.3c3.3,0.5,6,0.2,6.1-0.6
			C40.3,53.8,37.7,52.8,34.4,52.4z"/>
		<path class="st0" d="M67.2,56.2c-1.2-0.2-2.4,0.7-2.5,1.9c-0.2,1.2,0.7,2.4,1.9,2.5c1.2,0.2,2.4-0.7,2.5-1.9
			C69.3,57.5,68.5,56.3,67.2,56.2z"/>
		<path class="st5" d="M67.2,56.2c-1.2-0.2-2.4,0.7-2.5,1.9c-0.2,1.2,0.7,2.4,1.9,2.5c1.2,0.2,2.4-0.7,2.5-1.9
			C69.3,57.5,68.5,56.3,67.2,56.2z"/>
		<path d="M64.7,58.1l2.2,0.3l0.3-2.2C66,56,64.9,56.9,64.7,58.1z"/>
		<path d="M69.2,58.7l-2.2-0.3l-0.3,2.2C67.9,60.8,69,60,69.2,58.7z"/>
		<path class="st5" d="M40.8,50.2l1.5-10.8"/>
		<path class="st6" d="M40.9,40.1c0.5,0,1.3-0.8,1.4-1c0,0.2,0.6,1.2,1.1,1.4"/>
		<path class="st5" d="M94.3,57.7l1.5-10.8"/>
		<path class="st6" d="M94.5,47.7c0.5,0,1.3-0.8,1.4-1c0,0.2,0.6,1.2,1.1,1.4"/>
	</g>
	<g>
		<path class="st3" d="M161.7,132l-44.3-31"/>
		<path class="st3" d="M119,124.2l41-15.3"/>
		<path class="st5" d="M168.8,121.9l6.3-8.9"/>
		<path class="st6" d="M173.4,113c0.4,0.2,1.5-0.1,1.7-0.2c-0.1,0.2,0,1.4,0.4,1.7"/>
		<path class="st5" d="M167.7,118.3c-3.1-1.7-5.3-1.6-5,0c0.4,1.7,3.2,4.4,6.3,6.1c3.1,1.7,5.3,1.6,5,0c-0.2-0.9-1.1-2.2-2.3-3.2"/>
		<path class="st7" d="M171.6,122.8c0.3-0.4,0.1-1.5,0-1.7c0.2,0.1,1.4,0.2,1.7-0.1"/>
		<path class="st1" d="M164.9,127.4c0.5-0.7-1.3-2.7-4.1-4.6c-2.7-1.9-5.3-2.9-5.7-2.2c-0.5,0.7,1.3,2.7,4.1,4.6
			C161.9,127.1,164.4,128.1,164.9,127.4z"/>
		<path class="st1" d="M174.7,134.2c0.5-0.7-1.3-2.7-4.1-4.6c-2.7-1.9-5.3-2.9-5.7-2.2s1.3,2.7,4.1,4.6
			C171.6,133.9,174.2,134.9,174.7,134.2z"/>
		<path class="st3" d="M164.9,127.4l-3.2,4.6"/>
		<path class="st5" d="M167.1,98.7l6.3-8.9"/>
		<path class="st6" d="M171.8,89.8c0.4,0.2,1.5-0.1,1.7-0.2c-0.1,0.2,0,1.4,0.4,1.7"/>
		<path class="st5" d="M165.7,95c-2.8-1.5-5-1.5-4.6,0.2c0.4,1.7,3.2,4.4,6.3,6.1c3.1,1.7,5.3,1.6,5,0c-0.2-0.9-1.1-2.2-2.5-3.4"/>
		<path class="st6" d="M165.4,93.4c-0.2,0.5,0.3,1.5,0.5,1.7c-0.2,0-1.4,0.2-1.6,0.6"/>
		<path class="st1" d="M163.2,104.2c0.5-0.7-1.3-2.7-4.1-4.6c-2.7-1.9-5.3-2.9-5.7-2.2c-0.5,0.7,1.3,2.7,4.1,4.6
			C160.2,103.9,162.8,104.9,163.2,104.2z"/>
		<path class="st1" d="M173,111.1c0.5-0.7-1.3-2.7-4.1-4.6c-2.7-1.9-5.3-2.9-5.7-2.2c-0.5,0.7,1.3,2.7,4.1,4.6
			C170,110.7,172.6,111.7,173,111.1z"/>
		<path class="st3" d="M163.2,104.2l-3.2,4.6"/>
		<path class="st5" d="M124.5,90.8l6.3-8.9"/>
		<path class="st6" d="M129.1,81.9c0.4,0.2,1.5-0.1,1.7-0.2c-0.1,0.2,0,1.4,0.4,1.7"/>
		<path class="st5" d="M123.4,87.3c-3.1-1.7-5.3-1.6-5,0c0.4,1.7,3.2,4.4,6.3,6.1c3.1,1.7,5.3,1.6,5,0c-0.2-0.9-1.1-2.2-2.3-3.2"/>
		<path class="st7" d="M127.3,91.8c0.3-0.4,0.1-1.5,0-1.7c0.2,0.1,1.4,0.2,1.7-0.1"/>
		<path class="st1" d="M120.6,96.4c0.5-0.7-1.3-2.7-4.1-4.6c-2.7-1.9-5.3-2.9-5.7-2.2c-0.5,0.7,1.3,2.7,4.1,4.6
			C117.6,96,120.1,97,120.6,96.4z"/>
		<path class="st1" d="M130.4,103.2c0.5-0.7-1.3-2.7-4.1-4.6c-2.7-1.9-5.3-2.9-5.7-2.2c-0.5,0.7,1.3,2.7,4.1,4.6
			C127.3,102.9,129.9,103.9,130.4,103.2z"/>
		<path class="st3" d="M120.6,96.4l-3.2,4.6"/>
		<path class="st5" d="M126.1,114l6.3-8.9"/>
		<path class="st6" d="M130.8,105.1c0.4,0.2,1.5-0.1,1.7-0.2c-0.1,0.2,0,1.4,0.4,1.7"/>
		<path class="st5" d="M124.7,110.3c-2.8-1.5-5-1.5-4.6,0.2c0.4,1.7,3.2,4.4,6.3,6.1c3.1,1.7,5.3,1.6,5,0c-0.2-0.9-1.1-2.2-2.5-3.4"
			/>
		<path class="st6" d="M124.5,108.7c-0.2,0.5,0.3,1.5,0.5,1.7c-0.2,0-1.4,0.2-1.6,0.6"/>
		<path class="st1" d="M122.2,119.5c0.5-0.7-1.3-2.7-4.1-4.6s-5.3-2.9-5.7-2.2c-0.5,0.7,1.3,2.7,4.1,4.6
			C119.2,119.2,121.8,120.2,122.2,119.5z"/>
		<path class="st1" d="M132,126.4c0.5-0.7-1.3-2.7-4.1-4.6c-2.7-1.9-5.3-2.9-5.7-2.2c-0.5,0.7,1.3,2.7,4.1,4.6
			C129,126.1,131.6,127.1,132,126.4z"/>
		<path class="st3" d="M122.2,119.5l-3.2,4.6"/>
		<path class="st0" d="M141.8,116.5c0-1.2-1-2.3-2.3-2.3c-1.2,0-2.3,1-2.3,2.3c0,1.2,1,2.3,2.3,2.3
			C140.8,118.7,141.8,117.7,141.8,116.5z"/>
		<path class="st5" d="M141.8,116.5c0-1.2-1-2.3-2.3-2.3c-1.2,0-2.3,1-2.3,2.3c0,1.2,1,2.3,2.3,2.3
			C140.8,118.7,141.8,117.7,141.8,116.5z"/>
		<path d="M139.5,114.2v2.3h2.3C141.8,115.3,140.8,114.2,139.5,114.2z"/>
		<path d="M139.5,118.7v-2.3h-2.3C137.3,117.7,138.3,118.7,139.5,118.7z"/>
	</g>
	<path class="st5" d="M89.9,80.4"/>
</g>
</svg>
